/* XPM */
static char *coin_1[] = {
/* columns rows colors chars-per-pixel */
"61 61 128 2 ",
"   c #3B5E0B",
".  c #3E620D",
"X  c #3E6510",
"o  c #4C6C07",
"O  c #43660C",
"+  c #4A6609",
"@  c #456B0D",
"#  c #4A6D0C",
"$  c #526A06",
"%  c #526E0A",
"&  c #4F7107",
"*  c #4D720D",
"=  c #547506",
"-  c #5B7605",
";  c #567907",
":  c #5B7D06",
">  c #52750B",
",  c #5A760B",
"<  c #557A0B",
"1  c #597D0A",
"2  c #456C11",
"3  c #496F10",
"4  c #467014",
"5  c #4B7312",
"6  c #4E7814",
"7  c #4E7B18",
"8  c #517610",
"9  c #547B11",
"0  c #5A7D10",
"q  c #517D18",
"w  c #617D05",
"e  c #647E12",
"r  c #5E8106",
"t  c #5C820B",
"y  c #5F880E",
"u  c #578112",
"i  c #5B8312",
"p  c #5E8A15",
"a  c #548118",
"s  c #5C8C1B",
"d  c #628505",
"f  c #688604",
"g  c #658A06",
"h  c #698D04",
"j  c #618509",
"k  c #6A870E",
"l  c #648A0A",
"z  c #698E09",
"x  c #72830D",
"c  c #6D9204",
"v  c #67900C",
"b  c #6B920B",
"n  c #709604",
"m  c #719806",
"M  c #729108",
"N  c #7D900D",
"B  c #70990A",
"V  c #7F980A",
"C  c #608714",
"Z  c #628B12",
"A  c #6A8D13",
"S  c #628C19",
"D  c #748510",
"F  c #748C14",
"G  c #679314",
"H  c #6A9311",
"J  c #6A9919",
"K  c #7D9111",
"L  c #80900B",
"P  c #889A0E",
"I  c #92940F",
"U  c #849610",
"Y  c #8F9612",
"T  c #949E12",
"R  c #A29F11",
"E  c #94A10D",
"W  c #99A40E",
"Q  c #95A211",
"!  c #9AA116",
"~  c #AEAD0F",
"^  c #A2A411",
"/  c #A8A512",
"(  c #AFA911",
")  c #A2A518",
"_  c #B2AB12",
"`  c #B5B113",
"'  c #BCB414",
"]  c #C3B711",
"[  c #C5BA13",
"{  c #CDBD13",
"}  c #D4BE14",
"|  c #F6BB0D",
" . c #FABF0E",
".. c #EFAC17",
"X. c #EBA51D",
"o. c #EEAB19",
"O. c #F0AE16",
"+. c #F2AE19",
"@. c #F2B213",
"#. c #FCBE11",
"$. c #E79C23",
"%. c #E89E22",
"&. c #E9A020",
"*. c #D3C112",
"=. c #DAC413",
"-. c #FBC506",
";. c #FFCD01",
":. c #FDC30B",
">. c #FFCE0B",
",. c #FFD105",
"<. c #FFD50D",
"1. c #E0C714",
"2. c #EBCD13",
"3. c #FDC311",
"4. c #FECC12",
"5. c #F4D213",
"6. c #FED512",
"7. c #FFD912",
"8. c #FFD21B",
"9. c #FECF25",
"0. c #FFD324",
"q. c #FFD52B",
"w. c #FFD632",
"e. c #FFD73A",
"r. c #FFD83D",
"t. c #FFD944",
"y. c #FFDB4B",
"u. c #FFDC50",
/* pixels */
"0 u t t d g b l l r t # < * * # * r ; @ u @ @ * * u v H l r d : r g g f r = & ; d j > t y r @ # > X . . * r y y Z a 7 4 9 ",
"< t i u ; d l r < r r ; t t > r 6 < > r r # # > u u y l g g d : ; g h g g = O = 1 H l z h & @ # * & . . @ o # r p s 7 9 0 ",
"t < * > > r d r : r h g ; < r r r * > r r = * * * X = r d r : : r r r r d : o * 8 l l h r 6 r u t y 6 ; o . ; t 9 q 6 5 * ",
"j ; * # = d h g r : h g t ; r g r r r r r h > # * * t t h w : d h r r g r & * * 6 0 1 l u r c c c r r r ; ; r r t 8 i 8 9 ",
"; : = o > > f g g g g g l < ; r g r y r g r > # 5 < ; > d : f r r r @ r r 2 5 < < < > t r y c v h d d : r r r ; t Z G i 6 ",
"* ; ; > > : h f h l t ; ; @ * ; r h h r h r > 2 @ > 1 d h f d : r r & r ; & * ; g < * 6 > l c t ; = r : = ; r r 0 Z v t * ",
"; : r : : d d f g r = O > u u 6 * t < 6 < < u 2 O + > : g h : = r 6 * > * r r ; g t t * 5 < y r ; r h : & = r r i t l l = ",
"d : > : d ; ; g c ; = < < t l * . * < * X . X 4 + O @ & d r & & = = u 6 2 < g g r g h < 5 * h r l t 1 : o ; t l j t < < * ",
"r r ; d f ; = d z 1 # ; : < r t * u r > @ . . 5 > # @ ; r ; = r l l t 5 @ * l l r g m t < * < < l t & ; - d h g z t < < < ",
": ; r r d g g ; < > > : g g r t u y r t & O . @ > # @ # # = : t l l * 2 @ * h c c m v t < & * < r h h c c f f r j u < < < ",
": : r : w w g > # * < f d r t t y t ; r r ; @ X 2 @ @ * = d h : l t # 2 X < l m c r t < < t < * l c g c n g d d : < < t g ",
": : ; , - d f ; # @ > r r r t < r r r r g ; @ 4 3 @ @ # h h g r h r 5 4 2 < t t g r ; r g r t < h c r r c c c r > < : d ; ",
"g j > d f w ; 1 ; > * 1 d : ; * * r r g r ; < < * O . # r f - : h g < # 6 u t t l g t t g : ; < g h r d g n h ; < r r g r ",
"z 1 > j j 1 , ; & o @ o # # @ # 5 u g y t 1 < t t e U ( ] { { } [ _ P e # i l c g t 0 t g : > = r h g g h d g h h d r r d ",
"C 8 3 l h : : : =   O   O * @ # * * t u < < 0 Q *.2.7.7.7.7.7.7.7.7.6.2.' Q b l h r * > > = : : c : ; 1 > ; r d h g ; > : ",
": > > k k h z d - + # = * r < * X X 6 t l T =.7.7.7.7.7.7.<.<.<.7.6.7.7.7.7.*.P l * @ @ @ ; d ; r ; ; < r i i f h ; t < r ",
"e > # 8 0 c c j r = r g r r r u * * * H [ 5.7.7.<.<.,.;.;.;.;.;.;.;.,.<.<.7.7.5._ 8 3 3 @ * ; = - > < ; * 8 z n l < g d : ",
"f j > # * t Z j c c r h r r h r X X j *.7.7.7.<.;.;.>.8.q.q.w.q.0.6.>.;.;.<.7.7.7.[ e @ * * & ; = * > # @ > f z ; ; g j ; ",
"; > > 8 9 i i l c h h c r > h l 2 C *.7.7.<.,.;.6.w.y.u.u.y.t.t.t.y.t.q.<.;.>.6.7.7.{ 0 ; 8 # > ; ; < 6 # * > , : j b j t ",
"1 1 > 0 C i 0 j m r u h h = r l C *.7.7.<.;.>.w.u.u.r.0.6.,.>.,.>.>.8.q.e.0.-.:.4.7.7.] i * * O < < > < u 8 8 8 1 i C b j ",
"> t < i i 8 > 9 b y u r r < ; l ] 7.7.<.;.6.t.u.e.8.;.;.;.;.-.;.;.;.;.;.>.0.q.3.#.6.7.7.) 1 r * ; ; r j 0 3 # # 5 9 1 j < ",
"* > # > 8 > < 9 b m h g < < r W 6.7.7.;.4.t.y.q.;.;.;.;.;.-.X.O.;.;.;.;.;.;.6.9.#.3.7.7.2.K t ; * ; l : > 9 # 8 9 < 1 1 6 ",
"< # # > r l r t t h v u < r M =.7.7.;.>.t.y.0.;.;.;.;.;.;. .&.o.-.;.;.;.;.;.;.>.9.#.3.7.7.[ j > > > j j t i > 6 i i 0 0 9 ",
"> 5 3 * d g d h l t 6 > * > W 7.7.,.;.w.u.0.;.;.;.;.;.;.@.X.$.%.X.| ;.;.;.;.;.;.#.#.#.4.7.5.Y < 1 ; g g t < 6 8 8 p i i 9 ",
"j > < ; g c h g c l * * < g { 7.<.,.4.y.w.;.;.;.;.;.;.O.%.%.X.X.%.%.| ;.;.;.;.;.:.#.#.3.7.7._ 1 ; j d d ; * 8 > < 9 * t l ",
"l r 1 ; f h g g g r > > ; V 2.7.<.;.e.y.>.;.;.;.;.;.-.%.%.| ;.-...&.| ;.;.;.;.;.:.#.#.#.6.7.1.e > j 1 > < 8 0 r t < 1 t r ",
"l i > * ; r r < < * * : < P 7.7.,.,.t.q.;.;.;.;.;.;. .$.X.;.;.;.;.-.;.;.;.;.;.;.:.#.#.#.4.7.5.D o * * * * * < t ; d l t t ",
"j l ; * < t t * * * * : r ~ 7.7.;.8.y.6.;.;.;.;.;.;.-.%.%.| ;.;.;.;.;.;.;.;.;.;.:.#.#.#.3.7.7.Y O # * * # 4 r d r c c r < ",
"r r ; # < < < < < < d d h [ 7.7.;.q.t.;.;.;.;.;.;.;.;.o.$.&.@.-.;.;.;.;.;.;.;.;.3.#.#.#.3.6.7.^ @ * @ * * # t u h g r r < ",
"r > < < 6 * * t r g g h c *.7.<.;.w.w.;.;.;.;.;.;.;.;.-.o.%.$.&.@.-.;.;.;.;.;.-.#.#.#.#.3.6.7._ * * 6 * 5 * @ * < * r c r ",
"t u r l t * 5 t g g d h h =.7.<.;.w.0.;.;.;.;.;.;.;.;.;.;.| X.%.$.X.-.;.;.;.;.-.#.#.#.#.#.6.7.` 8 6 5 @ 2 @ @ # @ * ; t r ",
"r ; t r t < 6 < t t r f h *.7.<.;.q.0.;.;.;.;.;.;.;.;.;.;.;.;.| X.$...;.;.;.;.:.#.#.#.#.3.7.7.` 6 4 4 < * . @ # @ X # 5 6 ",
"v r y b c t t r r t r r r *.7.<.;.0.0.;.;.;.;.;.;.;.;.;.;.;.;.;.| %.&.-.;.;.-.#.#.#.#.#.3.7.7.) 4 t t h < 6 2 . 2 5 6 4 7 ",
"u h m b r u r u t & & r h ~ 7.7.;.6.0.;.;.;.;.;.;.-.@.@.-.;.;.;.-.X.%.-.;.;.:.3.#.#.#.#.3.7.7.T * r t g c b u 6 5 6 6 5 # ",
"u i l y u & r > & & u r r E 5.7.,.>.0.;.;.;.;.;.;.-.&.%.| ;.;.;.| %.&.-.;.-.#.#.#.#.#.#.4.7.5.P g r r t h v l a 7 9 6 5 * ",
"* a u r u X u t * X & r r h 2.7.7.;.8.>.;.;.;.;.;.;.O.$.X.| -.| X.$...;.-.#.#.#.#.#.#.3.4.7.=.j < d g g c t b j i t > # @ ",
"y 6 t l r < t * . * < t r r [ 7.7.;.>.4.;.;.;.;.;.;.-.X.$.%.%.%.%.X.-.-.3.#.#.#.#.#.#.3.7.7./ 3 # r l c c g l l l l t < * ",
"r t y l l y t * O @ * r g r E 7.7.<.;.>.;.;.;.;.;.;.;.-.@.X.%.&.@.-.-. .#.#.#.#.#.#.#.6.7.5.F O 2 < p l t t t i g l t l c ",
"r r l r y u * * # @ * r : g c *.7.7.>.;.;.;.;.;.;.;.;.;.;.-.%.O.-.:.#.#.#.#.#.#.#.#.4.7.7.' 9 4 @ 6 p 9 * t t t l g t g r ",
"t t r y u r u = 6 * < t t < * V 5.7.6.:.-.-.;.;.;.;.;.;.;.-.X.+.3.#.#.#.#.#.#.#.#.3.7.7.2.F 9 6 4 5 7 * < t l t t < r g t ",
"r r g i 9 t t u < < l v r t t t ` 7.7.4.3.#.3.:.:.:.:.:.:.#.#.#.#.#.#.#.#.#.#.#.3.6.7.7.! 9 S i < * t t u < j < 5 # > > u ",
"; r y r r r g r t ; ; r r y c y b ] 7.7.6.3.#.#.#.#.#.#.#.#.#.#.#.#.#.#.#.#.#.3.6.7.7.` a i J J G u l l t < > # 6 * # ; h ",
"< t u & t l r r ; ; r r t < i t j A *.<.7.6.3.#.#.#.#.#.#.#.#.#.#.#.#.#.#.#.>.6.7.7.[ S a a p i Z t r j l ; % # 6 < r r r ",
"< 6 # # t l r t & * r r r l u y t r c ] 7.7.7.4.3.#.#.#.#.#.#.#.#.#.#.#.4.4.7.7.6.` A 0 < 8 G H j < < t < @ * 5 > d r = t ",
"u 6 * * 9 i < o O * * ; < t u t t ; r g ~ 5.7.7.7.6.4.3.3.#.#.#.3.3.4.6.7.7.7.2.^ j j 0 < i Z B l 1 9 t 1 > 1 1 r t r 1 r ",
"* * < < * * 6 t & t = * < t y l r : r g r N ] 5.7.7.7.7.6.6.7.6.7.7.7.7.<.5._ x j > 1 j 1 l j < z j r j : , 1 d l g 1 j b ",
"o @ * > * t r r r n ; * * < t l g r r = # @ = L _ 1.5.7.7.7.7.7.7.7.5.} / e + - w = ; j 1 ; t < d d g f ; : g g l w : j v ",
"> & * < t h r u r h ; * t < ; r r h d = O @ o # % w e I R _ _ ( R T x % % = $ w h w 1 j : ; t t 1 : d j : 1 f z : 8 j > t ",
"1 ; : : ; : ; > = r h r 6 ; > t r t t X . o r X @ O O o O @ + + O # # O % : - w f d f : > > ; z j : > 1 > = 1 f r r * o o ",
"r j c g ; ; : ; r r r ; r h y t t t u > & t t r ; & & o * * < > # 2 8 # * , ; : r w d ; = > # w 1 1 % 3 0 1 f w & & X o > ",
"h h g c r r c f r c r r c l y t * u X * t r r r g g < ; r j b b 8 3 * > d : = : : f d = = = > - = = % 8 r > r ; o @ X * & ",
"c g f l < : r h ; r r r r r r * X 5 * * t r g r r r r ; h n c l 1 < = % : f w : d h f j = > d d = - 8 > > * > > & X X & r ",
"d r c n c t < * @ . = < r ; & * X * . u c c t u ; r c r : : = ; g g = + : h h f f h d r < r : : d - + > > o > > & * X & r ",
": r c c g < * @ # * u = r = t * * X X u u r r o = r c c : o o = : o + O - w - h : ; t i t ; d h g - % > : , ; > > # * * & ",
"; r h c t < 6 # 2 5 & t ; r t t X X X * & g g r r g r g d r = : r o O + & = = : r 1 g p t ; g g h d 1 t f j j r 6 * u t * ",
"d d d > # @ 2 5 * 5 * u r r r r r u > X X u g c h c g : g r d d d d * # * O o = t g c < * * r c n M 1 < 1 1 l l l t * * r ",
"r ; ; o . . . . @ @ 5 t r r r r * * X u X * c n v v t & % # f d o > * * @   o = < l j * 5 9 v m h g g t < r l r t l < * r ",
"* * # O @ & & @ . 4 6 t r r r u * * a t t u t u v v * X O @ * < + @ 8 q # # ; : ; j d * * 5 t h < t g 1 ; c h t t ; 2 X 2 ",
"5 9 6 & # ; 1 8 * 5 * > 6 r t r u X X r t X * X < i * X 5 9 5 5 > 5 9 , # > r f d g l t t t l g t t b g < r c g b r 2 4 4 ",
"6 * < & = > 6 9 y < 5 2 . 6 5 # .     * & X X X X * 5 u i t i t 1 9 i ; ; ; r r d l t l h t t r t c y * o : g g c t 2 6 a ",
"> % > # # < i j v y < 6 2 # . . . . . o X X . o 5 6 p p t l l r w r l d - ; ; t r t < t v h t i i l 6 . = : t t y r 5 2 u "
};
