/* XPM */
static char *coin_4[] = {
/* columns rows colors chars-per-pixel */
"61 61 132 2 ",
"   c #3B5E0B",
".  c #3E620D",
"X  c #3E6510",
"o  c #4C6C07",
"O  c #43660C",
"+  c #4A6609",
"@  c #456B0D",
"#  c #4A6D0C",
"$  c #526A06",
"%  c #526E0A",
"&  c #4F7107",
"*  c #4D720D",
"=  c #547506",
"-  c #5B7605",
";  c #567907",
":  c #5B7D06",
">  c #52750B",
",  c #5B760D",
"<  c #557A0B",
"1  c #597D0A",
"2  c #456C11",
"3  c #496F10",
"4  c #467014",
"5  c #4B7312",
"6  c #4E7814",
"7  c #4E7B18",
"8  c #517610",
"9  c #537B11",
"0  c #5A7D10",
"q  c #517D18",
"w  c #617D05",
"e  c #637E11",
"r  c #5E8106",
"t  c #5C820B",
"y  c #5F880E",
"u  c #578112",
"i  c #5B8312",
"p  c #5E8A15",
"a  c #548118",
"s  c #5C8C1B",
"d  c #628505",
"f  c #688604",
"g  c #658A06",
"h  c #698D04",
"j  c #618509",
"k  c #648A0A",
"l  c #698D09",
"z  c #72840E",
"x  c #6D9204",
"c  c #67900C",
"v  c #6B920B",
"b  c #709604",
"n  c #719806",
"m  c #729108",
"M  c #7F910D",
"N  c #70990A",
"B  c #628613",
"V  c #628B12",
"C  c #6A8D13",
"Z  c #628C19",
"A  c #748C13",
"S  c #679314",
"D  c #6A9311",
"F  c #6A9919",
"G  c #7C9011",
"H  c #81900C",
"J  c #889A0E",
"K  c #94960F",
"L  c #949E0E",
"P  c #848F11",
"I  c #8E9512",
"U  c #879811",
"Y  c #939D11",
"T  c #95A20E",
"R  c #9AA50F",
"E  c #94A110",
"W  c #99A116",
"Q  c #B0AF0F",
"!  c #B0B00E",
"~  c #A3A413",
"^  c #AAA611",
"/  c #ADAC12",
"(  c #A1A418",
")  c #B4AC12",
"_  c #B9AD14",
"`  c #B5B213",
"'  c #BAB313",
"]  c #BFBA15",
"[  c #C2B713",
"{  c #C8B714",
"}  c #C4B913",
"|  c #CBBC12",
" . c #D1BF13",
".. c #F7BC0D",
"X. c #F9BE0C",
"o. c #EBA41D",
"O. c #EEAA1A",
"+. c #F0AF16",
"@. c #F0AA1B",
"#. c #F3B412",
"$. c #F5B810",
"%. c #FCBE11",
"&. c #E79C23",
"*. c #E89E22",
"=. c #E9A020",
"-. c #D4C113",
";. c #DBC413",
":. c #FCC606",
">. c #FFCD01",
",. c #FCC30B",
"<. c #FFCE0A",
"1. c #FFD005",
"2. c #FFD40D",
"3. c #E6CA14",
"4. c #EBCD13",
"5. c #FDC311",
"6. c #FECC12",
"7. c #FCC118",
"8. c #FDC81D",
"9. c #EFD013",
"0. c #F4D213",
"q. c #FED412",
"w. c #FFD912",
"e. c #FFD21B",
"r. c #FFD325",
"t. c #FFD52B",
"y. c #FFD631",
"u. c #FFD739",
"i. c #FFD83B",
"p. c #FFD943",
"a. c #FFDB4B",
"s. c #FFDC51",
/* pixels */
"0 u t j r h v k k r t 3 < * * 3 * t ; @ u # X * 6 u c D k : d : r g g f r = & ; g t ; t r r # & * X . X & r r c V a 4 5 9 ",
"< t u u ; d g t ; r r ; t < > t > < = r r @ & * ; u y c h d f r ; g h h g = O = , D k k g & X * * * . . o X & u V s q q 0 ",
"t < * > = r j r : r h g r < r r r * = t r ; * * * X < r f r ; r r r r r r : o * < y k v t u t ; t y * u o O ; u 9 q 7 5 * ",
"j ; * # = d h g r : h g r ; r g r t t r r h = # * * u r h w ; d x r r r r & * * > < t g t u x x x r r r = ; r r t 9 u < 0 ",
"; : > o > = d g g g g g g < ; r g r y r g r > 2 * 8 < ; : w f r r r # r t @ * * < > > t t y x c g d d : r r r ; t k D i < ",
"= ; ; > > : g f h k r < < @ * < r h h r h r = 2 # * t r h g d : r r & t ; * * ; g 9 5 > * c x r : ; r : = ; r r u Z k u * ",
": : : : ; g g g g r & O > u u > * t ; 6 < < u 2 O O = : h h : & t > < * & t r t g t t > * 6 r y ; r g : & ; r r 0 t c k * ",
"d : = : d ; ; g x ; < ; < t k * . * < * X . X 4 + O @ & d r & & * ; < 6 3 ; h r t g x > * > c r h < : : o ; t k j t < < * ",
": : : r f ; ; d k ; # ; < ; t t * u r & o . . 5 , # @ ; r ; = r k c y * 2 * g g r h n t < * t < g t * ; = f h h k t 0 6 < ",
": : r : d g g : , < * t h g r y y t u t & X . @ * * O # * = ; t k k @ @ @ * v x x n c t < & 3 < t h h x h f f r k < < < < ",
": : j : w w g = # * ; d r r t t u t r r r = @ X @ @ @ * = d h r d t 2 2 X < k x h r t < > t ; * g x h x b f d d ; < < r g ",
": : ; , - d d < * @ = t r r r ; t r r r r t # 2 @ 2 @ * h g g r h t * 5 2 < y t h r ; r g t t < h x : d b b x : ; < r d ; ",
"g j , d f j , : ; * * : d : ; * * r r g t < < < > O . @ r d = : g g ; # 5 u t r t g t t g ; ; < g h d d g b h : < r r g r ",
"C 1 8 w w : > : & o @ # # # @ * > u g y t : < t t e P / [ | | | ] ` J e 5 t k v v r < y g r * ; d g k j h d g h h r r r r ",
"1 8 3 k g : 1 : =   O   O * @ 3 X * t u < < 1 E | 9.w.w.w.w.2.w.w.w.0.3.' E v k v r * = ; = : : h r ; 1 > : : d h g ; * : ",
"j > * l l l g f - + o = * r < # X X u t k Y -.w.w.w.w.q.q.6.q.2.q.w.w.w.w.0.| J h * . 2 O ; r = r ; ; < t t u g h t ; t r ",
"t > # 8 0 x v f r ; r g r r r u & X u c } 0.w.w.q.q.5.7.5.%.5.%.5.5.5.6.q.w.w.0.Q 8 3 3 @ = < = ; * ; < * 8 l n k < g r r ",
"f t , # * t B k x h r h r r h r * X i -.w.q.w.6.5.%.%.%.%.%.%.X.%.%.%.5.5.q.q.w.w.} e @ * * * : = > * * @ = g k : ; g d < ",
": > = 8 8 i u k x h h x r ; h c @ B -.w.w.q.5.X.%.%.%.%.%.%.%.%.%.%.%.%.%.%.5.q.w.w.{ 0 = 8 3 > ; ; < 8 # * > < : j l k y ",
"1 , > u p i 0 j n r t x r < t r j -.w.w.6.5.%.7.%.%.%.%.%.%.%.%.%.%.%.%.%.%.%.5.q.w.q.[ i * * O < : * < u 8 8 , < i p v t ",
"< t < 1 u 8 8 9 v y u r t < t g } w.q.6.5.7.8.,.,.:.:.:.,.%.%.%.%.%.%.%.%.%.%.%.%.q.q.w.~ 1 t = ; < t j < 5 @ # 5 8 t j > ",
"5 > * 8 < > ; 9 v b h g > ; r T 0.w.q.,.5.r.<.>.>.>.>.>.>.>.:.,.5.%.%.%.%.%.%.%.%.5.q.w.9.G : ; > = g : 8 0 # 8 0 < : , > ",
"9 # @ > t k r t t h c u < r m ;.w.q.<.<.t.<.>.>.>.>.>.>.>.>.>.>.:.:.%.%.%.%.%.%.%.%.5.q.w.} j > = , j j t i 6 * i i u 0 9 ",
"> 5 # * r h d h k t 6 > * < R w.w.2.>.r.r.>.>.>.>.>.>.>.>.>.>.>.>.>.:.X.%.%.%.%.%.%.%.q.w.0.J < < - g g t 8 < 8 9 p i u u ",
"t ; < ; h h h k v r * * < k | w.q.1.6.u.1.>.>.>.>.>.>.>.>.>.>.>.>.>.>.>...%.%.%.%.%.%.5.q.w.` t < j d d ; 6 < > > 9 > y t ",
"k t : ; d h g g h r < = t M 9.w.2.>.t.t.>.>.>.>.>.>.>.>.>.>.>.>.,...,.>.:.%.%.%.%.%.%.%.q.w.;., * j ; ; < * 0 : t r < t r ",
"k t > * > r r t < * * : = J w.w.1.<.p.e.>.>.>.>.$.#.>.>.>.>.,.o.&.&.*.O.,.:.,.%.5.%.%.%.6.w.0.z @ * * * * * < t < t g t t ",
"j k ; * < t t * * * * ; t Q w.w.>.q.p.2.>.>.>.#.*.=.:.>.>.:.o.&.o.o.*.&.o.,.,.%.%.%.%.5.5.q.q.I @ # * * @ * t d r x b r < ",
"t t ; 3 < < t < < < d d h | w.2.>.r.p.1.>.>.:.o.&.+.>.>.>.+.&.o.,.>.,.o.&.#.:.%.%.%.%.%.5.q.w.~ @ * @ * * 4 t : h g r r ; ",
"r < > < 6 # * < r g h h h -.w.w.>.t.p.<.:.+.o.&.o.:.>.>.,.*.*...>.>.>...&.&.o.@.%.%.%.%.5.q.w.) * * 6 * 5 * @ 5 > * r x r ",
"r t t g < > 6 t k h d h x ;.w.2.>.y.p.<.:.o.o.&.o.>.>.>.+.&.+.>.>.>.>.,.&.&.o.O.%.%.%.%.5.q.w.` q 6 5 @ 2 @ @ * o # ; r t ",
"r ; r t y < > < t t : f l -.w.2.>.y.a.1.>.>.:.o.&.#.:...o.&...>.>.>.>...&.O.:.:.%.%.%.%.5.q.w.) 6 2 4 ; * . @ @ @ X 3 5 7 ",
"y t r v x t r r r r r r r -.w.2.>.r.a.e.>.>.>.$.&.&.o.&.&.O.>.>.>.:.$.o.&.#.>.>.,.%.%.%.5.q.w.( 4 t t x < 6 2 X @ 5 6 4 6 ",
"t c n v t u t u r & & t g ! w.0.<.q.s.r.>.>.>.>.#.o.&.o.#.>.>.>.>.+.&.&.O.:.>.>.:.%.%.%.5.w.w.Y * r t r h v < 6 5 7 5 6 3 ",
"u i c y u & r u * > t r g T w.w.1.<.p.p.<.>.>.>.>.:.,.:.>.>.>.>.>.#.o.#.:.>.>.>.,.%.%.%.6.w.0.J g r r t h h S a 9 q 6 * * ",
"6 9 u t = X u r * X & t r h 4.w.2.>.y.s.e.>.>.>.>.>.>.>.>.>.>.>.>.:.:.>.>.>.>.>.,.%.%.5.q.w.;.j < g g g x y h y i t * 3 @ ",
"t u y c r < t # X * : < r r } w.2.1.2.a.p.1.>.>.>.>.>.>.>.>.>.>.>.>.>.>.>.>.>.>.,.%.%.5.q.q.^ 5 * r g x v k k k g k y < * ",
"r u r y h t y * @ @ * r g r T 0.w.2.>.t.s.t.1.>.>.>.>.>.>.>.>.>.>.>.>.>.>.>.>.>.,.%.%.q.w.0.A O X 9 p k t t t t g k t g h ",
"r r g t y u * # @ @ * r t k x -.w.w.1.<.i.s.r.>.>.>.>.>.>.>.>.1.>.>.>.>.>.>.>.>.,.%.6.w.w.' q 5 @ 6 p 6 > t t t k g t g r ",
"t r r y u t u > > * < t t ; = U 0.w.2.<.<.p.s.t.<.>.>.>.>.>.>.>.>.>.>.>.>.>.1.>.X.7.q.w.4.A q 5 4 5 u * > t j j t < r g t ",
"; r g y > t t t < < g k t t t t ` w.w.2.>.2.u.a.i.q.>.>.>.>.>.>.>.>.>.>.>.1.>.:.5.q.w.0.W q V p 8 * t t u < j 9 * # * * u ",
"; t g t u t g r t < ; r t k v t A | w.w.2.>.<.t.a.a.y.e.<.1.>.>.>.>.<.2.q.1.:.5.q.q.w.` p i S F S < h k p < > # = * * ; g ",
"< u < & t h r r ; : r r r < y y k k -.w.w.q.1.>.6.t.p.p.p.u.t.t.r.t.r.e.<.>.1.q.w.w.} C a i p s V t r k g = o # 6 < t r r ",
"9 < @ * t c t t * * r r t t u y t : x } q.w.w.2.1.>.<.q.e.r.r.r.e.6.>.>.<.2.w.w.0.' C u < 8 V D k < < t * * > 5 < t d ; t ",
"t < 2 * 9 u u # O * & < < t t y t ; r g ! 0.w.w.q.2.1.1.>.1.>.>.1.1.1.w.w.w.w.4.~ j t 1 > u V N k < 0 t 1 8 < ; t d t : r ",
"5 5 < < * * * r * r * * < t y t r : r g t H } 0.w.w.w.w.w.q.2.w.2.w.w.w.q.9.) z t , 1 j 1 V k : g k t t : : : d j k : j c ",
"+ + * < > t t g g x ; * * < t h g r r ; * @ = H ' ;.0.w.w.w.w.w.w.q.0. .^ z $ = w = : t < , t < d g g g : : g h d t : j x ",
"< * * < ; h t ; r h ; * t < < r r h d = O O @ + = , z K ^ ) _ ) ^ L z % o = $ w f d : j : : t 1 : : : j , : d h t , e 8 t ",
"< < : : = : ; = ; g h ; ; < < t t t y & . & u X @ O O o O @ + + O # @ + % : - w f d f : > = ; g f : , , < > : g r t * # o ",
"t g x g : ; : ; ; r r ; r c r t t t * u & > r r ; = o o * * < > # 2 8 # * ; : : w d r ; , = * : : 9 # # < : g w & # @ o & ",
"h h f v r g x d r x r r h h y y * * * * u r r r g g < ; r k v l q 3 * > d : > - : f d = * = = ; > = * 8 t > : ; o # X * & ",
"x h d h < ; r h ; r r r t t r * * X X * r g g r r r r ; h b v g 1 ; > % : f w : w h g j = ; t f - - > 8 , * > = & X X > r ",
"d r h b h t > * # @ = * r ; u X X * X u x x r > ; r x r : : = ; f h = o : f h h f h d t t : ; : g - @ # o o = = * # . & r ",
": r x x h > * @ @ 3 6 t r = t & * X # * u r r * = d x x : o o = ; o O + : w : f : < t t t ; g h f - $ = t ; < < * * & * & ",
"; r x x r u 6 3 * 5 * ; = t t t X X X * * x h t r g d g d : = : d o O O = = $ : : ; g p < ; g h g g t t f j j t ; * t u * ",
"g d r = @ @ 3 5 * 5 * t r r r r u u & X X u g x h x d : g r d g f : * # # O o ; y h h < * < r h x m < 0 1 : k j y t * & t ",
"r ; ; @ . . . . @ @ 5 y r r r r & * 5 5 * * g b c k u t % o k j o < * * @   + ; ; k d * 5 a h n h k g t < r g r t g < * u ",
"* * & O O * & # X 4 > t r r r u & * u u y * t u c c # . O @ o < O # 8 q @ # : r < t d * * 5 t h : t h t ; x h < t t 4 X 4 ",
"4 0 > * o : : < 5 * 3 > < y r t & X X t u X * X 6 y # X 5 9 5 * 5 5 9 , # > r f r h k t t t k g < t c g < r x d h t @ 4 6 ",
"8 * = * * < 5 8 y u * X X 6 * @ . . . & = X X X X * * u i t i t : 8 t ; ; ; r : d k t k h t t r k x y * o : g g x t 4 6 6 ",
"< > > # @ < 0 V v t u * 2 @ X . . & X . X X . & * > p s i g k t j w k g = : > d g t < u h h t u u k > X * d t t y t * 2 u "
};
