/* XPM */
static char *coin_2[] = {
/* columns rows colors chars-per-pixel */
"61 61 132 2 ",
"   c #3E620D",
".  c #3E6510",
"X  c #4C6C07",
"o  c #43660C",
"O  c #4A6609",
"+  c #456B0D",
"@  c #4A6D0C",
"#  c #526A06",
"$  c #526E0A",
"%  c #4F7107",
"&  c #4D720D",
"*  c #547506",
"=  c #5B7605",
"-  c #567907",
";  c #5B7D06",
":  c #52750B",
">  c #59760B",
",  c #557A0B",
"<  c #597D0A",
"1  c #456C11",
"2  c #496F10",
"3  c #467014",
"4  c #4B7311",
"5  c #4E7814",
"6  c #4E7B18",
"7  c #517610",
"8  c #547B11",
"9  c #5A7D10",
"0  c #517D18",
"q  c #617D05",
"w  c #637D11",
"e  c #5E8106",
"r  c #5C820B",
"t  c #5F880E",
"y  c #578112",
"u  c #5A8312",
"i  c #5E8A15",
"p  c #548118",
"a  c #5C8C1B",
"s  c #628505",
"d  c #688604",
"f  c #658A06",
"g  c #698D04",
"h  c #618509",
"j  c #6A870E",
"k  c #648A0A",
"l  c #698E09",
"z  c #73820E",
"x  c #718A0B",
"c  c #6D9204",
"v  c #67900C",
"b  c #6B920B",
"n  c #709604",
"m  c #719806",
"M  c #719108",
"N  c #7E900D",
"B  c #70990A",
"V  c #7F980A",
"C  c #608714",
"Z  c #628B12",
"A  c #6A8D13",
"S  c #628C19",
"D  c #748511",
"F  c #748A13",
"G  c #679314",
"H  c #6A9311",
"J  c #6A9919",
"K  c #7E9212",
"L  c #899A0E",
"P  c #92950F",
"I  c #859610",
"U  c #959C13",
"Y  c #93A10D",
"T  c #98A40E",
"R  c #93A110",
"E  c #9CA317",
"W  c #AFAE0E",
"Q  c #B1AF0F",
"!  c #A3A311",
"~  c #AAA512",
"^  c #ACAA12",
"/  c #A9A918",
"(  c #B2AB12",
")  c #B5B012",
"_  c #BBB315",
"`  c #BFBA14",
"'  c #C2B70F",
"]  c #C1B80F",
"[  c #CDBE0F",
"{  c #C2B714",
"}  c #C4BA13",
"|  c #CCBC13",
" . c #D1BF15",
".. c #F6B90E",
"X. c #F9BF0B",
"o. c #EFAD17",
"O. c #EBA41E",
"+. c #EEAB19",
"@. c #F1AD19",
"#. c #F4B611",
"$. c #F5B810",
"%. c #FCBE11",
"&. c #E79C23",
"*. c #E89E21",
"=. c #E9A020",
"-. c #CFC10F",
";. c #D5C212",
":. c #DCC313",
">. c #FCC606",
",. c #FFCD01",
"<. c #FCC20B",
"1. c #FFCF0C",
"2. c #FFD005",
"3. c #FFD50D",
"4. c #E4C914",
"5. c #EBCD13",
"6. c #FDC311",
"7. c #F0CF13",
"8. c #FECC12",
"9. c #F4D213",
"0. c #FED512",
"q. c #FFD912",
"w. c #FFD21B",
"e. c #FECE25",
"r. c #FFD324",
"t. c #FFD52C",
"y. c #FFD632",
"u. c #FFD739",
"i. c #FFD83C",
"p. c #FFD943",
"a. c #FFDB4B",
"s. c #FFDC51",
/* pixels */
"9 y r r e g b k t e e & , & & 2 & e - + - 2 + & , 5 v H k ; s ; e s g s e * % ; s h , r t e @ & % . . . % e e k l p 3 4 8 ",
", r u < - h f r - ; e - e , % r : y : e e @ 2 & y y t v l h s e ; s g g g * o * , H k k f & . & & & .   @ + % y C a 6 0 y ",
"r , 4 : * e f e r e g f r - r f e % % e e % & & & + % e s s ; ; e e e e e - X & , Z k g r - r - e t , % X + - y 0 0 4 3 & ",
"h - & @ : e g f e e g f r - e e e r r e f f : & & & y e g q - s c e e e e * & & , , < k r y c c c e r e % - ; e r 8 u , , ",
"< ; * X : * s g s f g f t , - e e f t e e e : + & , - - q q s s e y X e e + & & , & & r t k c l g e e ; e e ; ; h C H t & ",
"& - - * * ; g d g l r * r + & r e g f t c e : 1 + & < h g d s ; e e & e r & & - k , & & : f B r ; - e ; - ; e e , Z H y & ",
"- ; ; ; ; h h s s e % + % y u & & r y , y - y 1 o O & ; g g ; * r - & - & - e r f r r & 2 : t e ; e g ; & * e e < u v t : ",
"s ; * ; h - ; f g r * - : r t &   & % &     . 3 O o + % s e % % % - y 5 1 , g s e l c , 2 8 g e f , ; ; X = r k k r , , & ",
"; ; ; e s ; * h g ; @ , r : e r & y r & @     & : @ + , e - * r k k r 4 1 & f s e v m r , & < , f r % ; = d g f k r 8 7 , ",
"; ; e e q g f < , * & < g f e r y r r e % .   + : & + X X * ; r k k & + + & v c c m v r , & @ 7 r v g g c d s s h r , < r ",
"; > e q = q f * @ & - s e e r r y r e e e - + . 1 1 + & * e g ; h h @ 1 . , k m g e e , : e , * f c f c n s s s ; < < r f ",
"; s , * q s s < & + * r e e e , r e e e e e + 1 1 + + X g g g e g r 2 2 1 , r r g e < e f r t , f c e s n c c ; & , ; e * ",
"f e , h d h * ; ; @ & ; e e - % : e r f e - , : & +   X e s = ; g l * @ & y r r e e r k f ; - - f v e s g c g - , e e e e ",
"l r : q q ; - - * @ @ @ @ @ + 2 , y k e < < y r r w K ^ ' [  .| } Q L C 4 y l c v e , r f ; * & e g f h g s g g g e e e s ",
"9 7 4 l l < < ; # O       & + & . % y y < , 9 R | 5.0.q.q.q.3.q.q.q.0.4._ Y b h l e & , - * ; ; g ; - < - < r s g s r : e ",
"r 7 $ k j g g h = O X % & e , @ . . y r k U ;.q.q.q.q.q.q.3.3.3.0.q.q.q.q.0.-.L v & o + o - s - s - - < ; u r h g ; ; , e ",
"< 7 $ 7 9 c c h e - e f e f e y & . y v ` 9.q.q.3.3.1.,.,.,.,.2.,.2.2.3.3.q.q.9.) 7 @ 2 + & - * ; & , , & 7 l M k - f e e ",
"j h : + & r Z j c g s f r r g e & . t -.q.q.0.3.2.,.1.w.r.t.y.t.t.8.1.,.2.3.q.q.q.} w + & & & - * * & & + * k f , - g h < ",
"; : : : 7 y u f c g g c e % c f + w ;.q.q.0.1.,.3.w.r.r.w.r.r.y.p.a.p.y.0.,.1.3.q.q.} w - 7 + * - - < & @ & , > < h l k r ",
"; ; , y C u 8 h m e r c e - r e j | q.q.8.<.,.1.1.1.,.,.,.,.,.,.1.0.t.a.a.t.,.,.3.q.0.{ u & & o : - & 8 9 8 7 , , r i b r ",
"7 r , 9 y , 4 8 b t y e r , ; k ` q.0.8.6.>.,.,.,.,.,.,.,.,.,.,.,.,.,.8.u.s.i.1.,.3.q.q.^ , r : - - ; h 9 & + + 4 8 < h , ",
"& : @ , , , ; 7 b n v f : ; e Y 9.q.0.6.%.,.,.,.,.,.,.,.,.,.,.,.,.,.,.,.1.t.s.p.3.2.3.q.7.K < < : , k r : 8 @ 7 9 , , , & ",
"7 2 + : r h e < e v v , , r c ;.q.q.6.%.<.,.,.,.,.,.,.,.,.,.,.,.,.,.,.,.,.,.r.s.i.,.1.0.q.| h - * , h q t u , 4 y C C , 8 ",
": : 2 & h g s l f r 8 : & , T q.q.8.6.%.<.,.,.,.,.,.,.2.,.,.,.,.,.,.,.,.,.,.,.y.s.t.,.3.q.9.I , , - k g r 7 7 7 , C u y 8 ",
"r , : - g c g g c e & & , h | q.0.6.%.%.>.,.,.,.,.,.,.,.,.,.,.,.,.,.,.,.,.,.,.1.p.a.3.2.q.q._ u , h h e < & 7 , & y 5 r t ",
"g r < - s g f f l h * , < V 7.q.0.%.%.%.>.,.,.,.,.,.>.>.,.,.,.,.,.,.,.,.,.,.,.,.r.a.t.,.3.0.4.< : h = - , & , r r r ; e e ",
"k r : & - ; e < * & & - , L 0.q.6.%.%.%.>.,.,.,.<.+.O...,.,.,.,.>.>...>.,.,.,.,.1.p.p.1.3.3.9.z @ & & & & & < r - e l e r ",
"t k - @ , t r & & & & ; ; W q.0.6.%.%.%.>.,.,.<.O.&.&.#.,.,.,.>.+.*.&.O.#.,.,.,.,.t.a.8.2.q.0.U O + & & @ 2 e h e c c e , ",
"e e , + & , < , - - h s g { 0.0.6.%.%.%.<.,.,.o.&.O.X.,.,.,.>.+.&.*.O.&.&.$.,.,.,.w.s.w.2.q.q.~ + & 2 & 2 & r r v f e e , ",
"e , : , 7 4 & r s h l g g | q.0.6.%.%.%.6.>.<.O.&.<.,.,.,.,.#.&.O.<.,.#.&.O.>.>.,.8.a.r.,.q.q._ & : 5 & & 2 + 2 & % e c ; ",
"r , e f < & 4 r l f s g g -.q.0.%.%.%.%.$.O.*.&.O.>.,.,.,.>.O.&.$.,.,.>.O.&.&.+.,.1.a.t.,.3.q.` 8 5 3 + 1 + 2 @ @ @ , e e ",
"e r r f r y & , r h ; s g -.q.0.%.%.%.%.$.o.o.*.*.<.2.,.,.#.&.O.>.,.,.>.=.*.+.#.,.3.p.r.2.0.q._ 5 3 2 , @   + @ + + 2 3 5 ",
"t e t c c r r e e e e e e ] q.q.6.%.%.%.%.%.>.@.&.O.<.>...O.&.#.,.,.>.+.&.+.,.,.,.1.a.w.,.q.q./ 4 r r c , 5 1   1 4 5 3 y ",
"r v m v r y e y e % : e g W q.q.6.%.%.%.%.%.>.<.O.&.*.*.&.&.+.,.,.,.>.&.=.X.,.,.,.w.p.1.1.3.q.U & t e e v b 9 5 4 5 4 4 2 ",
"y u v r y & y - & & % e g Y 9.q.8.%.%.%.%.%.%.>.>.+.O.*.O.o.>.,.,.,.,.#.X.,.,.,.,.r.u.,.3.q.9.L e e e r c v k p 6 8 5 4 2 ",
"5 y y r - . r e & 2 % r ; g 5.q.8.%.%.%.%.%.%.<.>.,.>.<.>.,.,.,.,.,.,.,.,.,.,.,.,.u.r.,.3.q.:.j ; e f f c e v k r t & & + ",
"r 5 r l e , r @   & < r e e ` q.q.6.%.%.%.%.%.%.X.>.,.,.,.,.,.,.,.,.,.,.,.,.,.,.0.u.1.2.3.q.^ 2 & e k m c k k h k k r , & ",
"r r e t c r y , + + & r h s Y 9.q.8.6.%.%.%.%.%.%.%.>.,.,.,.,.,.,.,.,.,.,.,.,.,.t.w.,.3.q.9.F o + 5 u k r r r r k k r l c ",
"e e f t u y & 2 @ + & < ; k g [ q.0.6.%.%.%.%.%.%.%.%.<.1.,.,.,.,.,.,.,.,.,.,.w.r.>.1.q.q.} y 3 + 5 i 8 & r r t k e r f e ",
"r r e t y r y - & & < r r - * L 9.q.0.6.%.%.%.%.%.%.%.%.X.<.>.,.,.,.,.,.,.,.1.e.6.6.0.q.5.F 0 5 2 5 5 & , r h r r < e f e ",
"e e f r & e r r , , e v r r y t ) 0.q.0.6.%.%.%.%.%.%.%.%.%.%.%.6.<.<.<.<.%.e.%.6.0.q.0.E 0 i u 5 & r t , , h , 2 & : & - ",
"* r k r r t f e < < ; e e k b e b } q.q.8.6.%.%.%.%.%.%.%.%.%.%.%.%.6.%.%.%.%.6.0.q.q._ y i J J G y f f u , : @ : & 2 - g ",
", y < & r f r e ; ; e e ; , y t t l -.q.q.0.8.6.%.%.%.%.%.%.%.%.%.%.%.%.%.%.8.0.0.0.} A y p i u k r e h l , X @ & y r e e ",
", 5 @ % y v e r @ & e e e k y t r e x ] 0.q.0.8.6.%.%.%.%.%.%.%.%.%.%.6.6.8.q.q.9.` A y 8 7 G H t * < r & & : 4 , e e - r ",
"r 7 & 4 5 r y @ + & & , < r y r r - e c ^ 9.q.q.q.0.8.6.6.6.%.6.6.6.8.0.0.q.q.5.! h r , , y Z B l , 8 t < : , > r e r < t ",
"4 & , , & & & r & r * & , r t k e e e e e N } 9.q.q.q.0.0.0.0.0.0.0.q.q.q.7.( x r - < j , l k , g k r r < ; ; h k f ; h l ",
"@ + & & & r r e e m - X & , r f s e e ; & + * N ( 4.9.q.0.q.q.q.q.0.9.;.~ z # * q > , h , , t - h s g s ; < d g f r ; h c ",
": & * - < c e - e g , & r < * e e g e * o o X X & > z P ! ( ( ( ! U D $ X * # q g q ; h ; ; ; < ; > q h ; ; f l < > < , r ",
", ; ; ; * r ; * % f g - - , % r r r r &   % r . @ o o X o + O O O + + O : q = q d d s ; : X ; j h ; , > , > ; s f y % @ X ",
"h h c f ; * ; - e e e - t l t e r r & y % % e e - * % @ & % , : @ 3 4 @ @ > ; ; e q s ; * : @ ; < - : @ > , s s % %   X % ",
"g g s n s h g s e c e e g e l y : y @ & y e e e s e , ; e k b b 7 2 & * s - : ; ; s s * : * * ; : $ & 7 r * ; ;   @ .   : ",
"g g s k , ; e g - e e r r e r , . 2 . & r f f e e r e ; g c c k < , : : ; d q ; d g d s = - r s = ; : : 7 @ * : %   % y e ",
"s s g n g < , & @ + : % e - e . . .   r c c e y , e c e ; - * - g d * X ; d g d d g h r r ; ; ; d = O @ : X : : & @   % e ",
"; e c c g , & + + @ : r ; - y & & & . y y e r % * s c c ; X X = = X o o ; q ; g ; - , t r - s g g = $ : ; > ; - : @ & : % ",
"; e g c h y 5 + 2 5 % e - e r r & . & . % g f r e s e g s ; - ; e X o O * % # ; e ; k i < - e g g h < h f h r r , 2 r y & ",
"s e s % @ + + 4 & 2 4 y e e e r y & . . & y e c g c s ; g e s s s e & @ & O X - r l g , 4 * s c n g < , < < h f k r & & r ",
"e - ; +         . + 4 r t e e r & & & p 4 & f m c t r e @ @ s s X * & 4 + o O - - h f & 4 p v n g l k < , e f e r l , 2 e ",
"& & % o + % % @ . 3 & t e e e - & & & y y & y y v v .   O + & , + @ : 0 + @ ; ; , r h & & 4 e l < r g < , c g r r , + . 1 ",
"4 8 & & % - < , 5 2 & & - r r e % . . r r & & . 8 r & + 4 , 4 & 7 4 8 7 @ : s s e f l r r < k f < r b f * e c s c e 1 3 3 ",
"4 & , % & , 4 7 r y & 1 . 5 & +       & % . . .   5 4 y y t u < , 8 < ; * - e e f f e t c r r r r c t & X ; g h c r 1 5 p ",
", $ 7 @ X , 9 Z b t y % 1 + .     %   . % .     2 & i S i e b r s q l s = - * r e r , r k v e r u k 7 . % s r t t r 4 1 y "
};
