/* XPM */
static char *coin_3[] = {
/* columns rows colors chars-per-pixel */
"61 61 129 2 ",
"   c #3B5E0B",
".  c #3E620D",
"X  c #3E6510",
"o  c #4C6C07",
"O  c #42660C",
"+  c #4A660A",
"@  c #456B0D",
"#  c #4A6D0C",
"$  c #526A06",
"%  c #536E0A",
"&  c #4F7107",
"*  c #4D720D",
"=  c #547506",
"-  c #5B7605",
";  c #567907",
":  c #5B7D06",
">  c #52750B",
",  c #5B770E",
"<  c #557A0B",
"1  c #597D0A",
"2  c #456C11",
"3  c #496F10",
"4  c #467014",
"5  c #4B7311",
"6  c #4E7814",
"7  c #4E7B18",
"8  c #517610",
"9  c #547B11",
"0  c #587E10",
"q  c #517D18",
"w  c #617D05",
"e  c #627D11",
"r  c #5E8106",
"t  c #5C820B",
"y  c #5F880E",
"u  c #578112",
"i  c #5A8312",
"p  c #5E8A15",
"a  c #548118",
"s  c #5C8C1B",
"d  c #628505",
"f  c #688604",
"g  c #658A06",
"h  c #698D04",
"j  c #618509",
"k  c #648A0A",
"l  c #698D09",
"z  c #73830F",
"x  c #728A0B",
"c  c #6D9204",
"v  c #67900C",
"b  c #6B920B",
"n  c #709604",
"m  c #719806",
"M  c #719108",
"N  c #7F910E",
"B  c #70990A",
"V  c #7F980B",
"C  c #608714",
"Z  c #628B12",
"A  c #6B8D13",
"S  c #748C13",
"D  c #679314",
"F  c #6A9311",
"G  c #6A9919",
"H  c #7C9011",
"J  c #81910D",
"K  c #889A0E",
"L  c #838E11",
"P  c #859711",
"I  c #8F9C10",
"U  c #939711",
"Y  c #949F11",
"T  c #999F12",
"R  c #93A20E",
"E  c #99A40E",
"W  c #9CA216",
"Q  c #AFAF0F",
"!  c #B1B00F",
"~  c #ABA612",
"^  c #A6A813",
"/  c #ADAB11",
"(  c #A7A818",
")  c #B7AE13",
"_  c #B9AE14",
"`  c #B4B214",
"'  c #BBB313",
"]  c #BEB914",
"[  c #CBBC0F",
"{  c #C2B713",
"}  c #C8B714",
"|  c #C4B913",
" . c #CBBC12",
".. c #F6BB0D",
"X. c #F9BF0C",
"o. c #EBA41D",
"O. c #EEAA1A",
"+. c #F0AE17",
"@. c #F2B213",
"#. c #FCBE11",
"$. c #E79C23",
"%. c #E89E22",
"&. c #E9A120",
"*. c #D3C112",
"=. c #DAC313",
"-. c #FBC506",
";. c #FFCD01",
":. c #FCC30B",
">. c #FFCF0B",
",. c #FFD005",
"<. c #FFD50D",
"1. c #E0C713",
"2. c #E6CA14",
"3. c #EBCD13",
"4. c #FDC211",
"5. c #FECD12",
"6. c #FDC71E",
"7. c #F4D213",
"8. c #FED412",
"9. c #FFD912",
"0. c #FFD21C",
"q. c #FFD324",
"w. c #FFD42A",
"e. c #FFD634",
"r. c #FFD73A",
"t. c #FFD83D",
"y. c #FFDA46",
"u. c #FFDB4B",
"i. c #FFDC51",
/* pixels */
"0 u t t d h b k g y r 3 < * * 3 * t > @ ; 3 3 * 5 u D F k r d : r d h f r = & ; d j < t y t & # & X X X & r y r Z a 5 5 8 ",
"< t i 1 ; j d t ; ; r ; t ; * r > t = r r @ # & u u k r h r d r : d h h d = + > ; F k k g & X * 5 * X . . & = u s s 7 q u ",
"t < 5 > = : k r r r h g r < r g r & > r r > * * # X t r d r : r r r r y r : & * 9 k k b t > t t r t > ; o . ; t 0 q 6 5 * ",
"j ; * # = d h g r r h d t ; r r r t t r g g > # * * u r h w ; d h r r r r > # * 8 < t d t u c c c g u t ; r ; r t 8 i < 0 ",
"1 1 = o > = d h h d h g r < r r r r y r g r * * 5 < < ; d : f r r r X g t # * * < 8 > t t y c h h d d : r r ; r t Z F i * ",
"* ; ; = > : h f h k t < t @ * > r c g y g r < X @ * 1 d h f d : r t & r ; > 3 ; g < * 6 ; g c r ; ; : : & r r r 0 Z k i * ",
"; : : : : d d d d r > O * t i > * t t > t > u 3 O + > : h h : = t > > > * t r r g r t * 3 * y y ; r h : & = r r 0 t v k * ",
"d : > : d ; 1 g h r > < > t y * . * > 3 X . X 3 + O @ o d r & & > > u > 4 ; h r r g b > 3 u g r h < 1 : o ; r y k t < < * ",
": : ; d d ; ; j l ; # < t > r t * u t > # . . 5 = # @ < r ; = r k v t 5 @ 3 d g r h m t 9 * t < g t * ; ; d h g l t 0 8 < ",
": : : d w f g ; ; < > : h d r y i t t r & X . @ > # O o * = ; t k k * @ @ * c c c m v y > & # < t h h c c f f r j < < < t ",
"w ; d : w w l = # o < d r d t t t t ; r r > 3 . 2 2 @ * ; r h r j t 2 2 O < k b h r r < > r < * g c h c n f d d r < t r h ",
"r : ; , w d d ; * @ > j r r r ; t y r r d r @ 3 2 # O * h h f r h t * 5 4 < y t k r < r g r t < h c : d n c c r * < ; r > ",
"g t > j f j > : ; > * r r r ; * & r t g r ; < < * O . @ r d = : h d ; # * u t r g r y y h r > < g h r d h c h ; < r r r r ",
"l 1 > w j : = ; $ # @ o o @ @ 3 * u g y t < < t t e L Q ' [ [ [ { ! I 0 * u v b h r < t d : = = d g g k h d f h h d r r d ",
"i 8 5 l h : ; w =   O   O * @ # X # t u 1 < 0 R *.2.8.9.9.9.<.9.9.9.7.2.` R v y c r * * ; = : : h r : 1 = < t d h d ; * : ",
"w 8 # l l l l d - + o > * t < * X X u t k I *.9.9.9.9.8.8.8.5.8.8.9.9.9.9.7.*.K h * O @ O ; r ; r > ; < t t t k h r r t r ",
"1 8 % 9 0 b M j r ; r g r y t < * * * D ] 7.9.9.8.8.4.4.4.#.4.X.4.4.5.5.8.9.9.7.! 9 # 3 O > ; > ; * < < * < l n k < d d r ",
"f j > @ * t k k h c r g r r h g * X y *.9.8.9.5.4.#.#.#.4.#.#.#.#.#.#.#.4.5.8.9.9.{ 0 @ * * * : = > > * O > g j ; ; h j < ",
", = > > 9 0 i j c c g n r > h k @ e *.9.9.8.4.#.#.#.#.#.#.#.#.#.#.#.#.#.#.4.4.8.9.9.} e < > # > ; ; < * # * > , 1 j l k t ",
"1 1 > i C i 9 j m r r c r ; r r Z  .9.9.5.4.4.#.#.#.#.#.#.#.#.#.#.#.#.4.#.#.#.4.8.8.8.{ i * * O < ; * 9 0 0 9 , 1 i Z b t ",
"> t < 0 i 8 5 0 b y t r t > r k { 9.8.5.4.#.#.#.#.#.#.#.#.#.#.#.:.:.-.-.:.:.:.4.4.5.9.8.^ < r * ; ; t j < 3 # @ # 9 0 j < ",
"5 > > > < > ; 9 b n h y * : r E 7.9.8.4.#.#.#.#.#.#.#.#.#.O.O.-.;.;.;.;.;.;.;.;.:.:.8.9.7.H t < > = l : 8 0 # 8 0 < 1 ; 9 ",
"9 # @ > t j t t y h v u < t c =.9.8.4.#.#.#.#.#.#.#.:.:.-.o.o.:.;.;.;.;.;.;.;.;.,.;.>.8.9.} d = = < j w t i * 8 i i i 0 6 ",
"> 8 3 # d h d h d t 8 > * < E 9.9.5.4.X.#.#.#.#.#.:.-.X.+.$.$.o.@.-.;.;.;.;.;.;.;.<.;.<.9.7.K < < = g l t 9 8 8 < Z a i < ",
"j > < ; h c h h b r * * < k  .9.8.4.#.#.#.#.#.#.:.-.X.o.$.%.&.$.$.o.-.;.;.;.;.;.;.8.>.;.9.9.' 1 < j j d ; 5 8 < 8 < 6 y t ",
"h t < ; d h d k h r < = < V 3.9.8.#.#.#.#.#.#.:.;.-.o.$.O.-.-...&.$.@.;.;.;.;.;.;.5.0.;.8.9.1.1 > j ; = < > < t t t ; r r ",
"k t > * ; r d < < * * : > K 8.9.4.#.#.#.#.#.#.-.;.:.%.&.-.,.;.;...$.o.-.;.;.;.;.;.;.w.;.<.9.7.z # * * * * * 1 t < r g r t ",
"t k ; * < t t * * * * : r Q 9.9.4.#.#.#.#.#.:.;.;.X.%.o.-.;.;.;.;.@...;.;.;.;.;.;.;.w.<.,.8.8.K O # * * # # t d r c m r < ",
"r r ; 3 8 < t < < < d d h | 9.8.4.#.#.#.#.X.;.;.-.:.%.%.-.;.;.;.;.;.;.;.;.;.;.;.;.;.w.0.,.9.9.~ @ * 3 8 5 4 1 t h g r r r ",
"t < > < < 4 * < r d h h h  .9.8.4.#.#.#.4.:.;.;.;.;.O.$.o.@.;.;.;.;.;.;.,.;.;.;.;.;.w.q.;.9.9.) * 5 * * * * @ * > * r b ; ",
"r t r g u 5 * y h k d h h *.9.8.#.#.#.#.#.-.,.;.;.;.-.O.$.$.o...;.;.;.;.;.;.;.;.;.;.e.q.;.8.9.] 9 6 5 O 2 @ @ # @ & < r t ",
"t ; r d t < > < t t : f h *.8.8.4.#.#.#.:.;.;.;.;.;.;.-.@.o.$.%.O.-.;.;.;.;.;.;.;.;.r.q.;.8.9.' 6 4 2 < * X @ # O @ 3 5 6 ",
"y r y b h t t g r t r r r | 9.<.4.#.#.#.:.;.;.;.;.;.;.;.;.-.@.o.$.+.;.;.;.;.;.;.;.<.y.0.;.8.9.( 5 t t c t 4 @ X @ 5 6 4 6 ",
"t v m b y u t ; r & & t g ! 9.9.4.#.#.#.:.;.;.;.;.,.;.;.;.;.,.X.&.&.-.;.;.;.;.;.;.0.u.8.;.9.9.Y 6 r r r b b 9 6 5 7 5 5 4 ",
"u i y y u * r ; * & * r d R 9.9.4.#.#.#.:.;.;.;.;.;.;.:.-.;.;.-.o.%.-.;.;.;.;.;.;.e.y.;.<.9.7.K r r r r h h k a 6 q 6 5 * ",
"6 u u r ; X t y # 3 > t r h 3.9.5.#.#.#.:.,.;.;.;.;.@.%.+.-.-.@.$.o.-.;.;.;.;.;.0.u.q.;.8.9.=.j t r g d c y v k t y < # @ ",
"t 9 t k t t u # X * ; < r t { 9.8.4.4.#.:.;.;.;.;.;...%.$.&.o.$.$...;.;.;.;.;.>.y.y.<.,.8.9./ 3 * r k m h h k k k k t < * ",
"r t r y g t t * X # * r d d R 9.9.5.#.6.:.;.;.;.;.;.;...o.%.%.o...;.;.;.;.;.;.e.u.q.;.<.9.7.S O O 6 p k u t t i d k t v c ",
"t r y y t t 6 # # @ # t r g h *.9.8.4.#.6.<.;.;.;.;.;.;.;.o.o.-.;.;.;.;.;.;.e.i.e.;.,.9.9.] 0 4 @ 6 p 9 < t t t k d t g r ",
"r r r y u y t * > * t t t ; * P 7.9.8.4.#.q.8.,.;.;.;.;.;.+.+.;.;.;.;.;.>.r.i.r.<.;.8.8.3.S q 6 3 6 6 * > t k t t < r g r ",
"r r g i 9 r t t < 9 y g t t t y ` 9.9.8.#.4.q.w.8.;.;.;.;.-.;.;.;.;.<.q.y.i.e.<.;.8.9.8.W a C i 6 * t t i < j < * * * * t ",
"; r y t t r y r ; t ; r r y b r A | 9.9.8.:.-.q.r.e.q.5.<.>.>.8.0.e.y.i.y.q.;.,.8.9.9.' a i G G D < g k t < > # * * * < y ",
"< u < & r g r r r r r r r < t y k l *.9.9.8.>.;.>.q.t.y.u.u.u.u.i.u.t.w.>.;.,.8.9.8.| A u u p i D t r j k ; % # 8 < r r r ",
"u 8 3 # t v t r @ & r r r y u y t : M | 8.9.8.<.;.;.;.>.0.q.q.q.0.5.>.;.;.<.9.9.7.] A i 9 8 D F t ; < y < @ * 5 < t r ; r ",
"t 8 # 6 u i t @ X * > < < t u t r ; r c ! 7.9.8.9.<.<.;.;.,.;.;.;.,.<.<.8.9.9.3.^ j j < < u p B k < 0 t < < ; , t j r t g ",
"* 3 < > 3 3 * t & r > # < t y y r : r r t N } 7.9.9.9.9.9.8.<.9.9.9.8.9.8.7.) x w < 1 j < v k t l k t r : ; : j k d ; j g ",
"@ # > > & t t r r m : & * < r h h r r ; * @ = J ' 1.7.9.9.9.9.9.9.8.7.=.~ z o - w , < j < 1 t < j d h g 1 : h h d e : j b ",
"= & > > r h t t r h > * t < < r r h r = O O @ o > , z U ~ _ _ _ / T z % o = $ w h : : j : ; : 1 : : w j : ; d h : 9 j > t ",
"< < : : > r ; = ; g g ; ; < > t t t t & . X r X & O O # O o + + O # @ O > : - w f d d : > > ; l j : = 0 > - , k g t # & # ",
"r d c h : > : ; ; y r ; r v y t t t * u * r t r > > o # * * < = # 2 5 % % ; ; w d w w : = > o w : 9 % 3 < : d d & & X o & ",
"c h h c r r c d r h r r c r k t * u # * t r r y d d < ; r k b b q 2 > > j - = ; : f d > > = = ; = > o 8 1 > : : & X # X & ",
"b h d d < : r h ; r r t t r t < 3 X X & t g r r r r r : h c c k 1 ; > o : d d w d h f j = ; d d - , > > > * = = & . X & r ",
"d d c m c < < * @ @ ; & r ; r X X X X u h c t = < r c r : : = ; h f = @ : f h h f h d t t r : : d - + # > # > = * X X & r ",
": r c c h < * @ # 3 > t r & t & * 5 # * t y t & = r c c : o o ; ; o + + : w : f : ; t t r > d c h - $ > w ; < > > # = u & ",
"; r h c y < 9 3 3 5 > ; ; t r t X X X # * h g t r h d d d : = : : o O O & = $ : r < k p < ; r h h j 1 j d j j t > 5 t t > ",
"d r d & @ @ @ 5 * 3 5 t r r t t t u * X # u g c h c d : h r f d f d * * o O o : t h h < * < d h M M 1 1 t : j k g t 3 3 t ",
"r ; ; # . . . . 2 2 5 y r r r t & * X u 5 5 g n c y t ; > o j d o > * 5 @   # = ; j g * 5 u h m b h d t ; r g t t y ; * t ",
"* * & O @ * o o X 2 6 r y t r t & * a u y * t u v D # X O @ # < O o 8 q 3 # : w < t d * * * y h : t h < ; c h t t t X X 4 ",
"5 9 > * o : 1 < 3 3 3 > > t t r & X X t t X 5 # < y 3 X 5 9 3 5 % 8 9 9 # = d d r h h t r < h k r t b g > r c g c t 3 4 5 ",
"5 > > * * ; 5 8 y t 3 @ X > * @ . . . & & X X X X * * u i t i t 1 9 1 ; = < r : d k t y b u t r t b y * # r g d c t 4 6 a ",
"> > > % @ < 0 Z v y t 6 X # X . . & . . # X . . 3 9 p s y r h t j : l d = ; ; d t t < t h v r u u v 8 . & r t t y t * # 6 "
};
