/* XPM */
static char *cover[] = {
/* columns rows colors chars-per-pixel */
"61 61 36 1 ",
"  c #445E1D",
". c #485F1C",
"X c #46611F",
"o c #4B651F",
"O c #4E681F",
"+ c #50661F",
"@ c #52691F",
"# c #586A1F",
"$ c #476421",
"% c #4B6620",
"& c #4E6A22",
"* c #526D22",
"= c #596E21",
"- c #567224",
"; c #5A7524",
": c #5E7926",
"> c #557428",
", c #5A7728",
"< c #5D7B29",
"1 c #617523",
"2 c #627D26",
"3 c #687E25",
"4 c #627E28",
"5 c #668127",
"6 c #698327",
"7 c #658229",
"8 c #6A8529",
"9 c #67882E",
"0 c #6D892A",
"q c #718C2A",
"w c #75912C",
"e c #79952D",
"r c #7B982E",
"t c #678B31",
"y c #739331",
"u c #749834",
/* pixels */
"<77750w0065*:-**-5-O5&&->5wy855555665;-5565575&5&$X$*588t7&$7",
"<474:685125;5:-5;5;55O*->780056556q0q=oO1q660$O&&*$ &&*57t777",
"2;-;;58225q85:565--55-->*&-565:5555555O5570q5755775**X55>7>$$",
"8:-@;5q055005;5555550q-&*>55q5:505585=@--55075www8555*5557777",
"::;@#;8008008::5858885*&*;;:53655-&55*--5&5777q06555555577y5-",
"-11;;200005;:O-:5008855&*-55q66155-55---77--57w55@55O55577t7*",
":252266665-o;77-*55;5>7&XO;56q1;55-**555855&$-775565O55557q7-",
"55=26210q5;:-70-X*;*$ $&OoO=66-=--57&-0658q5&7985555O@555575-",
"2515612682@;:;56&55&&  -;@*:5:-5007>&-005qr7:-5-55*555q0q55*5",
"2:553q02;2-2085777555$$&;-&&O:5508&&&-qwqr05:**:5q0qq66665-55",
"5152168;@-:8557577555-&$OOO;;68589*&o>9wq65;-5:;0w0we65555556",
"25;11382-@;2:775575555$$O*&&q065q7*&&57507:5075:8q55wwq5O*55-",
"65;686;2:--555:-&5775*-5>& %55#5005&-775667802118q558wq555555",
"q5;532;1=@OO*OO*777755575&&55:=5q5:O&7qq05:762-;6855q66655555",
"5--00222=XXXO*O*&&75-5&7575%5650q07&&7y7q7*::;22q5555555065O5",
"5--0qq061@@;-5:*$ 777777775*6q66:5&*-987q-ooo:5:65@5555505555",
"5&&57w0555505755&$77t75&997&5055:--*:9w07&--O-:#1-::-;qe8:055",
"575&&7970q5055085$X7777777&O5555552->289<,-%---2;;;*%;00::08:",
"557&5775qq0q5-00&&X&&&75775560O50005;*;,;;%&;;*-:;:-*-;:55095",
"*5&77777e55055507&$X$&&X&70700OO00052-;;79>,:>-o;2-:<,,;:57w7",
"55&77&-7w8575-57t9X $755X5855OO5580687777074<:5;::28<-O*-:55:",
"$5$5555-ww08&557wt7&$7775575O55O70ww0779<98w0:22;;02;<*-<::<-",
"5*%*587770055555897&&755558555558000:-,,<80w022;;:6357->775<:",
"5*$5606085&5&575877&5&555555OX558008-O&*;582287:;18q5,,>,975>",
"7&&58qq0w55%555597-&&5w05555&%75:557*%X&;25,-5,5:865:-:;-7*57",
"7755500805&5575557775577O  55X----<,>&O>><09555-;61;<-,575:55",
"075&O5555OO55&75577&-7t75XX57&%7:-->,,,,-5ww92-O@-----:6:5855",
"705X5555&O55556055-&&&-755&5-&&&-:--<5,8099005OO&*--O&565ww57",
"555$&555555655O577*---77755-77-7-255964009790<O&O-*---<50088:",
"5&555$$7566865O557&---&775557&77555052<900290:-O-->->-O->-5q:",
"55777&&7808q85555->-&77775775&55685w022;0w0755**,>>&&&&*o-:77",
"557775&555560w7555-77707&555557&:66rq6:*29:>***,>>*,*%O&&o**>",
"777tt77755555855555008665-5:6555;;;qrq7*7&*5**->>75q:-%$&>>>7",
"57ew775555&5055O:8eq58605:5651;55O*50-$&&$*5-55--557qu7>>>>**",
"77085&75XX555555505085;56580::-;55557%X&&&-555-685550q07,,,-*",
"&777&X57&5O555550555q6155-56=;:555885*X&&*-55;*55509w80877,&O",
"7778757X 55555558050w555:*155;1;-755-&XOO*&&&5-O&79rq088985;-",
"77778777XOX75555055805*55;@;5;*--55505O**o&&-5;o$77077770q50q",
"7777775$&$O55555775565&;:;#;OOXo55565-X-5O&&>77&$>75;75888706",
"5577775&&5557O55:-*;55;;55-:*Oo-6q-*O*O**557>75>&>7-;:857:507",
"557757577&5857575&&&5*--50:;OO55:1;@O&oO>777>777,-577,5<**--:",
"57755777575578q755--75555666O#55;;3;;*--*-7777tuy<807,-*:-*:0",
"&575555557555577655588565166;55566812;#;-&7977tt05580:-@-7555",
"&5&&7775$&557779555558805;5q0555661@;;Xo>757>5tt5:<7;O---561:",
"5&&5755%%%5557575;555665555665O-1;211@@;2552>59u0::5:;::56550",
"&57&&X&755%&&777555655556665-5;*1#11@@O;5:2859770055512668:50",
"O$&55555705XX5786655*O-55=@#O*-*=#+OO@@12;:5::5:5606:20q85550",
"5O5&5055505&5557665-oOO*-O...OOO;;+.#1#1q6:55:5:232622805-5:5",
"5555555O&605&55&775& &5XOOo*OOooo-*o-213q362;=1082;2;;100;-*O",
"55w85O5555556675777&5&57*5OOO5-5O&-#-2;22361;;*35;--:165-*OO:",
"708w55555755q88557$5555756*550wq,&-;61#2366;;;;1-=-;5;51OOO&;",
"0880555055555555X$&&585555550eq05,;-26326006;166;1;;--;;*X&:6",
"55qe655O&O5$555$&$X50q75*6q555O500=O2qq66q65:5:561@*-@-;-&X*5",
"55ww855X&$555&5X&&%5577&58ww5OO*1#oo321q2:255:5qq;@-51:1:*-;*",
"555q77&&&5&5&557&%%&5087585655555#Oo--#35:885;50q6556555>*:7*",
"5555$XX5&$555555-7&XX78w0q65558505-@-O@170w:--6qww::550807--7",
"55*XXXXX&&7755555-->-&twwt555$77*;--OXO-:58->50eqq02:70550:-7",
"*55X%***$&&77555&&>77&770w& XX&5o*;:@@55:58-*-902202:q055:oo>",
"&5*O&55&7&&77777-&&77&&&57&&&7X5--::#-6670057:08<5w0:5e807&>>",
"5O*5&5&577&$$&7&X  --%%X 5&77777<-7:;:525888q5756e5-@:80y7&>>",
"*&5%%557t757X$X X&%%O%X%$77t77976506::;685:7005770>X#57587**7"
};
