/* XPM */
static char *enemy_left_2[] = {
/* columns rows colors chars-per-pixel */
"61 61 194 2 ",
"   c #040403",
".  c #080604",
"X  c #060902",
"o  c #0A0B04",
"O  c #0E0709",
"+  c #0D0B0B",
"@  c #140B0C",
"#  c #190D0E",
"$  c #0D1401",
"%  c #0E1801",
"&  c #111B01",
"*  c #100F10",
"=  c #1D0E11",
"-  c #141414",
";  c #181915",
":  c #171818",
">  c #1B1C1D",
",  c #241114",
"<  c #291416",
"1  c #2B1519",
"2  c #35191C",
"3  c #34191D",
"4  c #162302",
"5  c #1A2500",
"6  c #1C2A01",
"7  c #233303",
"8  c #283600",
"9  c #263904",
"0  c #2A3C03",
"q  c #273E0C",
"w  c #1E1F20",
"e  c #201F22",
"r  c #351A20",
"t  c #3D1E22",
"y  c #232325",
"u  c #262528",
"i  c #27282A",
"p  c #2A2B2C",
"a  c #2E2D30",
"s  c #2F2F31",
"d  c #363739",
"f  c #401F25",
"g  c #442126",
"h  c #4D262B",
"j  c #50272C",
"k  c #53292E",
"l  c #542B32",
"z  c #5C2E33",
"x  c #5E3037",
"c  c #623137",
"v  c #643239",
"b  c #6A353C",
"n  c #6F383E",
"m  c #2E4102",
"M  c #2C440A",
"N  c #314302",
"B  c #344B05",
"V  c #394E04",
"C  c #344C0B",
"Z  c #3C5405",
"A  c #385208",
"S  c #3C5D0C",
"D  c #3E630D",
"F  c #3F6510",
"G  c #425C05",
"H  c #476507",
"J  c #4A6606",
"K  c #4D6C07",
"L  c #43660C",
"P  c #456B0D",
"I  c #4A6D0B",
"U  c #516C05",
"Y  c #536E09",
"T  c #4F7006",
"R  c #4D720D",
"E  c #547506",
"W  c #5A7505",
"Q  c #577906",
"!  c #5B7D06",
"~  c #51750B",
"^  c #557A0B",
"/  c #597D0A",
"(  c #456C11",
")  c #486F10",
"_  c #4B7311",
"`  c #4C7715",
"'  c #517611",
"]  c #537C11",
"[  c #567B14",
"{  c #607D05",
"}  c #4C6528",
"|  c #6B3741",
" . c #743B42",
".. c #7C3E46",
"X. c #793E49",
"o. c #3F4041",
"O. c #47484A",
"+. c #4E4E51",
"@. c #504F53",
"#. c #535456",
"$. c #5B5B5D",
"%. c #5D5E60",
"&. c #666669",
"*. c #6F6F72",
"=. c #727275",
"-. c #767679",
";. c #797A7C",
":. c #84434B",
">. c #89464E",
",. c #8B4751",
"<. c #8E4850",
"1. c #944B54",
"2. c #984D56",
"3. c #994E58",
"4. c #9D515C",
"5. c #A3535C",
"6. c #A95762",
"7. c #AE5963",
"8. c #B35B66",
"9. c #B45D6A",
"0. c #B95E69",
"q. c #BB606D",
"w. c #C3636E",
"e. c #C56571",
"r. c #C96672",
"t. c #CE6975",
"y. c #CC6A7B",
"u. c #D16B77",
"i. c #D36E7E",
"p. c #D96F7B",
"a. c #DD717D",
"s. c #E0727F",
"d. c #5E8106",
"f. c #5C820B",
"g. c #5F890F",
"h. c #568012",
"j. c #5B8411",
"k. c #5E8914",
"l. c #58871A",
"z. c #628505",
"x. c #688504",
"c. c #658A06",
"v. c #698C04",
"b. c #618509",
"n. c #648A0A",
"m. c #698E09",
"M. c #6D9204",
"N. c #6B920B",
"B. c #719602",
"V. c #719907",
"C. c #628C14",
"Z. c #6A9412",
"A. c #699618",
"S. c #7E7D81",
"D. c #D56F80",
"F. c #D77081",
"G. c #DB7181",
"H. c #E47582",
"J. c #E97784",
"K. c #EC7886",
"L. c #EF7A88",
"P. c #F27B89",
"I. c #838285",
"U. c #88878A",
"Y. c #92958C",
"T. c #8E8E91",
"R. c #97969A",
"E. c #9F9EA2",
"W. c #A5A4A8",
"Q. c #A6A5A9",
"!. c #AAA9AD",
"~. c #AEADB1",
"^. c #B0AFB3",
"/. c #B4B3B7",
"(. c #BAB9BD",
"). c #C0BFC3",
"_. c #C2C1C5",
"`. c #C9C8CB",
"'. c #CECCD1",
"]. c #D0CFD4",
"[. c #D4D3D7",
"{. c #D8D7DC",
"}. c #DBD9DE",
"|. c #DFDDE3",
" X c #E0DEE4",
".X c #E5E3E9",
"XX c #E5E4E9",
"oX c #EBE9EF",
"OX c #EDEBF1",
"+X c #F1EFF4",
"@X c #F3F1F7",
"#X c #F7F5FB",
"$X c #F8F6FC",
"%X c #FBF9FF",
/* pixels */
"] j.j.d.d.m.N.n.z.f.d.I ^ R T ) _ d.^ P ^ R P R R h.Z.Z.n.! z.! d.x.v.x.d.E T ! b.b.Q f.f.d.R R R P D F T d.d.g.C.l.` ) ] ",
"/ f.j.f.Q z.z.d./ ! f./ d.^ ~ d.~ ^ ~ d.d.P I R h.h.g.n.v.z.x.! Q z.v.x.v.E L ~ ^ Z.n.m.m.R P I I I D D P P T f.C.l.` ] h.",
"/ ^ _ ~ E d.n.! / d.v.v.f./ / c.d.R E d.d.~ R R R P ~ f.z.d.! ! ! x.d.d.d.! I R ^ C.n.M.f.^ f./ f.d.~ ^ T H ^ f.[ [ ` _ R ",
"b.Q R I E d.m.v.d.d.v.c.f.Q d.d.d.f.f.d.z.v.T R R ' f.d.v.{ Q z.v.z.! v.d.T T R ' / ^ n.f.^ V.M.M.g.f.d.~ Q / d.j.' j.~ ] ",
"/ ! E K ~ ~ x.v.v.z.c.z.c.^ ^ z.c.d.g.z.z.d.R P L A B 8 7 6 6 6 7 7 7 Z H D P R / R ^ f.f.n.M.c.v.z.z.! d.d.d.! d.k.Z.g.^ ",
"R Q Q ~ ~ ! v.x.v.c.f.^ ^ L R ^ d.v.m.z.d.H 9 % . . = 1 t g g g f 3 , @ . X % 8 G P R _ R c.N.f.! Q ! ! T Q d.d./ C.C.f.R ",
"Q ! d.! / z.z.z.z.d.^ L ^ ^ h.R R h.H 0 % o , k >.8.u.p.J.K.K.K.L.H.p.t.7.:.z 1 o X 6 C P ^ b.f.Q f.v.d.~ E d.f./ g.N.n.R ",
"z.! R ! z.Q Q v.M./ E ^ ^ f.n.R B 6 X - z 5.a.L.P.P.P.P.P.P.P.P.P.P.P.P.P.P.L.a.9...3 . % M ! z.c.^ / ! J Q f.c.b.h.^ ^ R ",
"! ! ! d.x.Q ~ x.m./ I Q / ~ J 7 X 1 :.u.P.P.P.L.P.P.P.P.P.P.P.P.L.P.P.L.P.P.P.P.P.P.a.c   . & N d.d.R / Q x.v.v.n.j./ _ ^ ",
"! / d.d.z.v.c.Q ^ ~ R f.! N o @   v L.P.P.P.P.P.P.P.P.P.L.P.P.L.P.P.P.P.P.P.P.P.P.P.q.# +.Q.@.o 4 U v.M.M.x.z.z.b./ ^ ^ ^ ",
"! Q d.{ { { c.~ I R Q J 5 + &.).*.O 2.P.P.P.P.P.P.P.P.L.P.P.P.P.P.P.P.P.L.P.P.P.P.P.z p }.%X+XE.p X B v.B.z.z.z.! Q / f.v.",
"! d.Q Q W z.x.Q R L N X a !.+X%XOXO.2 H.P.P.P.P.P.P.P.P.P.L.P.P.P.L.P.P.P.P.L.P.P.s.1 &.%X#X#X%X{.&.. 8 x.B.B.! R ^ ! z.^ ",
"c.b.^ z.x.{ ^ / E 7 . $.[.%X%X#X%XT.# t.P.P.P.P.P.P.P.P.P.P.P.P.P.P.P.L.L.P.P.L.P.s.< =.#X#X#X#X%X}.y   5 z.M.W ^ d.d.d.d.",
"N./ ' { b./ Q U 6   * _.%X#X#X#X%XT.# t.P.L.P.P.P.P.P.P.P.P.P.P.P.L.P.P.P.P.P.P.P.L.k s XX%X#X#X%X!.@ c = 5 ! v.v.z.z.d.z.",
"/ ' _ m.v./ Y 5 @  .@ I.%X%X#X%XOX+.2 H.P.P.P.L.P.P.P.P.u.6.3.8.a.P.P.L.P.P.P.P.P.P.6.@ &.|.@X+X(.p f s.7.= 5 Q M.v.^ T ! ",
"{ ' ) m.m.{ 6 = 5.K.z : E.oX+X X-.O 1.P.P.P.P.P.P.P.J.,., @ : + < 1.L.P.P.P.P.P.P.P.L.:.@ i @.O.: 1 w.P.P.5.O 8 z./ / / d.",
"{ ' I ' ^ 0 @ 4.P.P.p.h + d +.p @  .J.P.P.P.L.P.P.L...o $./.'.^.@.o <.P.P.P.P.P.P.P.P.L.0.c t g :.u.P.L.P.P.>.X Z Q x.b.! ",
"x.b.^ ) 9 + X.K.P.P.P.s.2.k g c 7.L.P.P.P.P.P.P.P.q.@ *.+X%X%X%XoX%.# r.P.P.P.P.P.P.P.P.P.L.K.K.P.P.P.P.P.P.H.k o H c.b./ ",
"^ ~ ~ A . x D.J.P.P.P.P.P.P.K.P.P.P.P.P.P.L.P.L.P.n e {.%X#X#X#X%X'.: :.P.P.P.P.L.P.P.L.P.P.P.P.P.P.P.P.P.P.P.r.= 8 m.n.f.",
"/ / ) & r q.F.H.P.P.P.P.P.P.P.P.P.P.P.L.P.P.P.P.P.j O.@X#X#X#X#X$XXXd c P.P.P.P.P.P.P.P.P.P.P.P.P.P.P.P.P.P.P.P...X ) N.b.",
"^ b.0 O 4.F.D.F.P.P.P.P.P.P.P.P.P.P.P.P.P.P.P.P.L.z d oX#X#X#X#X%XXXp b P.P.P.P.P.P.P.P.P.P.P.P.P.P.P.P.P.P.L.P.i., 7 b.~ ",
"' H $ l y.D.D.F.L.P.P.P.P.P.P.P.P.P.P.P.P.L.P.P.P.>.- (.%X#X#X#X%X!.+ 5.P.P.P.L.P.P.P.P.P.P.P.P.P.P.L.P.P.P.P.P.P. .o K ] ",
"] q @ 6.F.i.i.i.J.P.P.L.P.P.L.a.e.e.H.P.P.P.P.L.P.p.1 d `.%X%X#X(.p t s.P.P.P.P.P.P.s.r.e.s.L.P.P.P.P.P.P.L.P.P.P.9.O C ] ",
"I % t D.i.F.i.i.a.P.P.P.P.u.v = # # 3 <.J.P.P.P.P.P.0., > $.-.$.: 2 w.P.P.P.P.P.H.:.1 # * , n p.P.L.P.P.P.P.P.P.P.H.3 7 ^ ",
"K o X.F.F.D.D.y.F.K.L.P.y.2 > *.!.R.+.@ b J.P.P.P.P.P.u.n 2 , 2  .p.P.P.L.P.P.J.x * #.E.Q.&.- g u.P.P.P.P.P.P.P.P.P.v & f.",
"G O 4.F.D.D.D.D.F.H.L.K.z w (.$X%X%X+XS.O 5.P.P.P.P.P.P.P.s.p.J.P.P.P.P.P.P.P.1.+ T.@X%X%X#X!.: b P.P.P.P.P.L.P.P.P.1.o E ",
"Z @ 9.F.y.D.D.y.i.F.P.e.@ U.%X#X#X#X$XoXo.g J.P.P.P.P.L.P.P.P.P.P.P.P.P.P.P.J.2 +.+X$X#X$X$X%X=.# u.P.P.P.P.P.P.P.P.6.o Z ",
"A @ 6.F.D.D.D.D.F.F.K.5.- _.$X#X#X#X#X%X;., s.P.P.P.P.P.L.P.P.P.P.P.P.P.L.P.t.# U.%X#X#X#X#X%X^.@ 8.P.P.P.L.P.P.P.P.9.o A ",
"L o ,.F.D.D.D.D.i.i.G.6.- _.$X$X#X#X#X%X;., p.P.P.P.P.P.P.P.P.L.P.P.P.P.P.P.u.# U.%X$X$X#X#X%X^.O 8.P.P.P.P.P.P.P.P.q.+ A ",
"Q & t y.D.y.y.D.D.i.F.q.@ U.%X$X#X#X$XoXo.g K.P.P.P.P.P.P.P.P.P.P.P.P.P.P.P.J.2 @.@X$X#X#X#X%X-.= u.P.P.L.P.P.L.P.P.5.o Z ",
"/ C   | D.F.D.D.i.i.F.i.k w (.$X%X%X@XI.@ 3.P.P.P.P.P.P.P.P.P.P.P.P.P.P.L.P.P.<.* T.@X%X%X%X~.> b L.P.P.P.P.P.P.P.J.k % E ",
"g.Q 9   l 6.D.D.F.F.i.a.r.2 > =.!.R.@.+ n L.P.P.P.P.P.P.P.P.P.P.P.P.P.P.P.P.P.H.x + $.E.Q.&.: g u.P.P.P.P.P.P.P.a.b . M ` ",
"n.d.f.A $ # l 1.q.y.D.D.G.i.b , # # 2 1.L.P.L.L.s.p.w.8.2. .b  .4.8.r.a.s.P.P.P.P.>.1 # # < n p.P.P.P.P.P.J.r.,.2 O q ( ] ",
"/ m.V.N.R 9 % . - r l b X.1.5.,. ...:.>...b k g 3 = @ O - e y e * O @ , 2 g z n :.2.1.:.:.5.0.0.8.8.5.:.v f @ O 4 S ` _ ) ",
"] k.n.n.h.~ E D q 6 % $ $ o X o o o   . > y d O.%.;.T.!._.}.XX}._.Q.T.-.#.O.s e ; X . O @ o O O o X X $ & 6 V ) ` ] _ _ R ",
"] ] ] f.~ P d.f.R R I T U J J J E J $ +.{.XXoX@X#X%X%X%X%X#X#X%X%X%X%X$X@X+XXX|.].d & G G Z A Z Z J E / v.b.m.n.j.g.R R P ",
"g.' g.c.d.' f.I D R / f.f.! ^ d.m.! o S.%X#X#X#X#X#X#X#X#X#X#X#X#X#X#X#X#X#X%X$X%X=.$ L E ! ~ R R f.m.B.M.c.n.b.v.b.f.^ R ",
"z.h.f.f.M.f.f.' L P R d.v.z.z.f.n.J o ^.%X#X#X#X#X#X#X#X#X#X#X#X#X#X#X#X#X#X#X#X%XR.X A ~ / _ L F ^ k.n.h.f.f./ n.m.f.c.M.",
"d.z.n.g.g.h.R ) I P P f.d.c.c./ b.V : '.%X#X#X#X#X#X#X#X#X#X#X#X#X#X#X#X#X#X#X#X%X_.* M ] j.h._ P ` l.] ^ d.f.g.g.z.f.c.d.",
"f./ d.n.^ g.^ ^ R R f.f.f.^ ~ / [ C $.OX#X#X#X#X#X#X#X#X#X#X#X#X#X#X#X#X#X#X#X#X%X.Xp 9 ] h.] _ ) _ h.R ~ f.b.g.d.^ f.v.f.",
"d.d.g.j.' f.f.h.^ ' d.m.d.f.h.d./ } '.%X#X#X#X#X#X#X#X#X#X#X#X#X#X#X#X#X#X#X#X#X#X+X+.4 _ [ k.k._ R f.g.] / b./ ) R T R ^ ",
"^ d.c.f.f.d.c.d.^ f.^ d.f.m.M.g.Q $ R.%X#X#X#X#X#X#X#X#X#X#X#X#X#X#X#X#X#X#X#X#X#X%X;.$ _ j.A.A.A./ z.m.g.^ ~ I ^ R R ^ v.",
"^ f.f.T d.c.f.d.d.d.f.d.f.^ f.g.E ; !.oX#X#X#X#X#X#X#X#X#X#X#X#X#X#X#X#X#X#X#X#X#X%XW.O L l.k.l.C.d.d.z.z.^ U I _ / f.d.d.",
"h.R P R f.n.d.f.I T d.d.d.g.h.g./ Y. XXXOX#X#X#X#X#X#X#X#X#X#X#X#X#X#X#X#X#X#X#X#X%X'.: M / C.Z.g.Q ^ g.R ) R _ R f.z.Q f.",
"h.^ ) R ] h.h.T F T R ^ ^ f.h.f.0 &.XXXXXXOX#X#X#X#X#X#X#X#X#X#X#X#X#X#X#X#X#X#X#X#XXXs 7 ] C.V.n.^ ] j./ ' ^ Q d.b.z./ f.",
"R R ] ^ ) R ~ f.R f.~ I ^ d.g.f.7 d  XXXXXXXOX#X#X#X#X#X#X#X#X#X#X#X#X#X#X#X#X#X#X%XOXd 7 m.n./ m.n.d.d.d.Q { b.n.n.Q b.m.",
"I L R ~ T f.f.d.d.V./ T T ^ f.v.0 i ].XXXXXXXXOX#X#X#X#X#X#X#X#X#X#X#X#X#X#X#X#X#X%X}.y 0 / f.^ z.x.c.x.Q / c.v.n.{ / b.m.",
"Q T R ^ f.v.d.f.d.M.~ R f.f.^ d.G o R.XXXXXXXXXXOX#X#X#X#X#X#X#X#X#X#X#X#X#X#X#X#X%XT.O G Q d./ ! / d.x.! / x.m./ ' { ^ f.",
"] Q d.! ~ d.Q E E d.M.Q ^ ^ ~ f.~ 6 y /.oXXXXXXXXXOX$X$X$X$X#X#X%X#X#X%X#X#X%X%X%X(.e 6 Y Y Q m.b.{ W ] ^ W W n.d.f.T T I ",
"d.x.M.z.! E ! Q d.d.d.Q n.v.g.f.f.T % w I.).'.].'.'.[.|.|.|.|.XX|.|. X X X X X`.I.> & U ~ ~ I { / ^ I ) / / x.{ R T P P T ",
"M.v.z.M.f.d.M.z.d.c.d.d.c.c.n.f.R h.D 6 X - y y y y y y u y y y y i i y i i y : o 8 U E ~ E ~ Q E E Y ' f.~ d.Q P P F D T ",
"M.v.b.m.^ ! d.v.d.d.d.d.f.d.f.R F ) F P L V m m 0 0 m 0 N B N 0 0 0 8 7 8 0 0 V U v.c.b.E Q z.z.W Q ' ~ ~ R Q ~ T D I d.c.",
"z.d.M.B.M.^ ^ T P P ~ R d.Q d.F ) F F h.V.V.d.^ ^ z.B.d.! ! E / v.v.Q H { v.v.v.x.v.v.d./ d.d.! x.W I I I I ~ ~ R F D R d.",
"! d.M.M.v.^ _ P I ) ~ f.d.T h.R ) ) P R f.f.f.T ~ d.M.M.! I K E ! K H H { { ! v.! ^ / j.d.^ d.v.x.W U ~ b.W Q ~ ~ ) ~ ~ R ",
"Q d.M.M.d.h.] ) ) _ R f.Q f.f.f.I D F T R M.m.f.d.v.z.z.z.d.E ! ! K L L T T U { d.Q z.g.^ / z.v.c.b./ b.z.b.b.f.^ T f.f.R ",
"z.z.z.T P P P _ R ) R f.d.d.d.d.h.R R F P f.d.M.v.M.z.d.z.d.x.z.x.z.R R R H K Q g.c.M.h.R T d.M.B.B.^ / / / v.n.c.h.R R f.",
"d.^ Q I D D D D P ( _ g.c.d.d.d.~ R _ _ R F M.V.N.n.h.d.I I x.z.I ^ R R P S H Q Q b.z.~ R h.m.B.m.m.n./ ^ d.c.f.f.m.^ R f.",
"R R T H L T R I D ( R d.d.f.d.h.R R h.j.g.R f.f.n.Z.F D L P R ^ L P ' [ ( I ! d.^ f.f.R ) _ g.c./ / m./ Q M.c.d.f.^ P F F ",
"_ h.R R R Q Q ^ _ ) _ ' ~ f.f.d.T D F f.f.F _ F ' g.R D _ ] _ _ ~ ) ] ' I ~ d.x.z.c.M.f.f.f.N.z./ f.M.c.^ d.M.z.v.g.P ( ` ",
"' R ~ R R ^ _ ' g.^ _ P F ' ~ P D D D R R ) F D F ~ _ j.j.f.j.f./ ] f.Q Q Q f.d.z.z.f.g.m.f.f.d.b.M.g.R I Q v.z.V.h.) ` h.",
"~ Y ' I I ^ j.n.N.g.h.R P P F D D T D D I F D D _ R k.C.j.g.m.d.b.{ m.z.W Q Q d.n.f.^ f.n.m.d.h.j.m._ D R z.d.g.f.d._ ) h."
};
