/* XPM */
static char *enemy_right_2[] = {
/* columns rows colors chars-per-pixel */
"61 61 194 2 ",
"   c #010101",
".  c #0B0204",
"X  c #050A01",
"o  c #090D01",
"O  c #070708",
"+  c #0D0508",
"@  c #060908",
"#  c #0B0C0C",
"$  c #100407",
"%  c #130509",
"&  c #19070A",
"*  c #1C090D",
"=  c #0C1401",
"-  c #0F1802",
";  c #0D100F",
":  c #101600",
">  c #141C01",
",  c #191B05",
"<  c #0E1110",
"1  c #141415",
"2  c #171919",
"3  c #1A1B1C",
"4  c #210A0F",
"5  c #240C11",
"6  c #2A0E14",
"7  c #310D15",
"8  c #2C1016",
"9  c #331219",
"0  c #3C161D",
"q  c #162103",
"w  c #1A2502",
"e  c #1D2B04",
"r  c #202F04",
"t  c #243304",
"y  c #273A07",
"u  c #2B3C04",
"i  c #232A15",
"p  c #201F21",
"a  c #242525",
"s  c #272828",
"d  c #2B2C2C",
"f  c #2F2F30",
"g  c #343435",
"h  c #373837",
"j  c #3D3D3E",
"k  c #41161F",
"l  c #461A23",
"z  c #4D1C26",
"x  c #501D27",
"c  c #521E29",
"v  c #611C2B",
"b  c #56202B",
"n  c #5C222E",
"m  c #642531",
"M  c #6B2835",
"N  c #722B39",
"B  c #7A2E3D",
"V  c #2D4309",
"C  c #324504",
"Z  c #354A05",
"A  c #334A09",
"S  c #3D5405",
"D  c #3A540A",
"F  c #3C5C0B",
"G  c #3E630D",
"H  c #3F6510",
"J  c #425B05",
"K  c #405E0A",
"L  c #584B1B",
"P  c #466307",
"I  c #4B6706",
"U  c #4D6B06",
"Y  c #43660C",
"T  c #466A0D",
"R  c #4A6D0B",
"E  c #516D06",
"W  c #536E09",
"Q  c #4D720C",
"!  c #547506",
"~  c #5B7505",
"^  c #577906",
"/  c #5B7D06",
"(  c #52750B",
")  c #557A0B",
"_  c #597D0A",
"`  c #476913",
"'  c #456C11",
"]  c #4B7311",
"[  c #4A7616",
"{  c #517610",
"}  c #537C12",
"|  c #597E11",
" . c #517D18",
".. c #607C05",
"X. c #3F4040",
"o. c #444445",
"O. c #474848",
"+. c #4C4C4C",
"@. c #504F52",
"#. c #545454",
"$. c #5D5D5E",
"%. c #5F605F",
"&. c #636363",
"*. c #676669",
"=. c #6B6B6C",
"-. c #6E6D71",
";. c #747474",
":. c #78777A",
">. c #7B7B7C",
",. c #802539",
"<. c #992D44",
"1. c #843142",
"2. c #8C3445",
"3. c #923749",
"4. c #97394B",
"5. c #9B3A4D",
"6. c #A53149",
"7. c #A53E52",
"8. c #A93D52",
"9. c #C43956",
"0. c #AC4156",
"q. c #B04257",
"w. c #B34359",
"e. c #B9465C",
"r. c #BF485F",
"t. c #C65651",
"y. c #C44A62",
"u. c #CB4C65",
"i. c #DE4162",
"p. c #D14F68",
"a. c #D6506A",
"s. c #DD536E",
"d. c #E74466",
"f. c #FA496F",
"g. c #E0546F",
"h. c #FB4C71",
"j. c #E25570",
"k. c #E95774",
"l. c #ED5976",
"z. c #FC5577",
"x. c #F45C7A",
"c. c #FD5F7E",
"v. c #FF607F",
"b. c #5E8106",
"n. c #5C820B",
"m. c #5A8312",
"M. c #588517",
"N. c #5E8914",
"B. c #628505",
"V. c #688504",
"C. c #658A06",
"Z. c #698D04",
"A. c #618509",
"S. c #648A0A",
"D. c #688E09",
"F. c #6D9204",
"G. c #6B920A",
"H. c #719502",
"J. c #729906",
"K. c #638E12",
"L. c #6B9411",
"P. c #758C44",
"I. c #7F7D81",
"U. c #FF6080",
"Y. c #848585",
"T. c #88878B",
"R. c #8A8A8B",
"E. c #8D8C90",
"W. c #929293",
"Q. c #99979C",
"!. c #9C9C9C",
"~. c #9E9CA1",
"^. c #A4A3A5",
"/. c #A7A6AB",
"(. c #ACACAD",
"). c #B1AFB4",
"_. c #B4B4B5",
"`. c #B5B3B9",
"'. c #B8B6BB",
"]. c #BCBCBC",
"[. c #BEBCC2",
"{. c #C1BFC4",
"}. c #C2C1C2",
"|. c #C6C4CA",
" X c #C8C6CC",
".X c #CBCBCD",
"XX c #CDCCD1",
"oX c #D0CFD3",
"OX c #D4D3D5",
"+X c #D7D6D9",
"@X c #DCDCDD",
"#X c #E3E3E3",
"$X c #E7E7E8",
"%X c #E9E9E9",
/* pixels */
"| m.n.n.b.Z.G.S.C.b.n.R ) Q U ] Q n.( T ) R T Q ] m.G.L.S./ B./ ..C.V.Z.b.! ! ^ B.n.) n.b.n.Q R ( H G H Q b.b.S.K.M.[ ]  .",
") n.m.m.^ B.B.n._ / b.) n._ ( n.( n.! b.b.T R ] ) m.N.D.C.B.B.B.^ B.V.Z.Z.! T ( ) L.C.C.C.Q T ] ' Q G G U T Q m.N.N.[  .} ",
"n.( Q ) ( b.S.b./ b.Z.Z.n.) / C.b.Q ( b._ ! Q Q Q T ( b.B.b.~ b./ V./ b.b./ T Q ( K.D.D.n.) b.) b.b.m.Q U G ^ n.|  .[ ] Q ",
"A.^ Q T ! B.Z.C.b./ Z.B.n.^ b.b.b.n.n.b.Z.Z.Q Q Q ] n.n.Z...! B.Z.C./ Z.b.! U ( } ) _ S.m.n.F.F.F.b.n.b.^ / ) b._ } m.} ) ",
"_ / ! U W ( C.Z.C.S.Z.S.S.) ) B.b.b.S.B.B.b.I F D V u t r w w r t u t S F F T ( ) Q ) _ n.S.F.D.Z.b.b./ b.b./ / n.K.L.n.Q ",
"Q ^ ^ ( ( / V.C.Z.D./ ) ) T Q ) b.F.B.U Z e =       O . $ % & % + O       X > t S R ] Q Q C.F.n._ / b./ ^ ^ b.b.} K.K.n.Q ",
"^ / b./ / B.B.Z.B.b.( Y ( _ m.Q G C q X   $ 7 c N 4.w.y.u.p.p.p.y.r.0.2.M l 5     X e A R Q N.b.^ b.Z./ ! ! b.n.| n.G.S.Q ",
"B./ Q / B.^ / B.F._ ! _ ) _ R e X     & 2.y.k.c.U.U.U.U.c.c.c.c.U.U.U.v.v.x.g.e.m       = V b.B.C.) _ / I ^ n.S.S.n.) ( Q ",
"/ / / b.C.! ! B.D.) R _ I r X   s =.s * s.U.v.c.c.c.c.c.c.c.c.c.v.v.x.v.c.v.v.v.3.  %.*.2   > C b.b.Q / ~ V.V.C.D.n.( } ) ",
"/ _ b.b.B.V.V./ ) ) R C o   d I.{.#X&.  e.U.c.c.c.c.c.c.c.c.c.c.v.v.v.v.c.c.v.v.M @ (.%X}.=.2   e ! Z.F.Z.C.Z.B.A.m.( _ n.",
"/ ~ b.......C.! R Y t   1 *.'.@X$X%X;.  q.U.c.c.c.c.c.c.c.c.c.c.v.x.x.v.c.c.c.x.b ; ].%X%X$X].+.  = S F.H.C.B.B./ ) _ n.S.",
"b.b.) ^ ....C.) F >   g Q.XX#X%X%X%X&.  e.U.c.c.c.c.c.c.c.c.c.c.v.v.v.v.c.c.c.c.m @ (.%X$X%X%X@XT.2   Z Z.H.F.b.Q ) b.b.^ ",
"C.b.( B.V.A.) I >   @.).OX#X%X%X%X@Xh * s.c.c.c.c.c.c.c.c.c.U.c.v.v.v.v.v.v.v.v.2.  Y.%X%X%X%X%X%X(.s   u Z.Z.^ _ b.b.b.b.",
"D.n.( A..._ P : O $.{.OX#X%X%X%X%X^.O c x.c.c.c.c.c.c.c.U.U.U.U.v.v.x.v.v.v.x.v.u.$ g +X%X%X%X%X%X%X}.g   u B.Z.Z.b.b.b.B.",
"| { ] S.D.W , O %.{.oX#X%X%X%X%X Xg . q.U.c.c.c.c.v.c.s.0.2.1.4.r.l.v.v.x.v.v.c.x.m   ;.#X%X%X%X%X%X%X.Xh   C B.Z.B.) ! b.",
"n.( W D.S.t   # T..X#X%X%X%X%X[.j   N x.c.c.c.c.v.g.B 5         . 0 8.x.v.v.v.v.v.a.8 @ ;.+X%X%X%X%X%X@X%.    J Z.n.b.) b.",
"..{ R ) A   4 + # #.~.].}./.=.2   m l.v.v.v.v.v.y.9   a &.W.!.Y.+.; X M l.c.c.c.c.v.y.8   h T._.}._.R.h   * + - ! ) C.B.b.",
"S.A.( F X * 9.6.0   X ; ; X   5 3.l.v.c.x.v.v.u.8 @ *..X%X%X%X%X#X(.h   M x.c.c.c.c.v.a.n +   # 1 #   $ m p.1.  w ( Z.A.m.",
"_ ! ( e   ,.f.h.k.8.N b x M 5.g.c.v.c.c.v.v.x.b   ;.#X%X%X%X%X%X%X%X.Xh   8.v.c.c.c.c.v.x.u.1.n z n 2.y.x.U.l.l   J G.S.n.",
"_ _ ( L ,.f.h.z.c.U.v.c.x.c.v.v.c.c.c.c.v.v.w.. o.@X%X%X%X%X%X%X%X%X%X(.; 0 l.c.c.c.c.c.v.v.U.c.x.c.U.U.c.c.U.w.+ > | G.n.",
"{ A.W t.f.f.h.c.c.c.c.c.c.c.c.c.c.c.c.c.c.c.M   !.%X%X$X%X%X%X%X%X%X%X%X+.. y.v.c.c.c.c.c.c.c.c.v.c.c.c.c.c.U.c.n   D B.( ",
"( K , 6.f.f.z.c.c.c.c.c.c.c.c.c.c.c.c.c.c.x.k 2 .X%X$X%X%X%X$X%X%X%X%X%XY.  3.v.c.c.c.c.c.c.c.v.v.c.c.v.c.c.c.U.y.+ q ) ( ",
"{ r O <.f.h.c.c.c.v.c.c.c.c.c.c.c.c.c.c.v.k.8 a OX%X$X$X$X%X%X$X%X%X%X%X~.  1.v.c.c.c.c.c.c.c.c.c.c.c.c.c.c.c.c.x.x   K } ",
"R = 5 i.f.z.c.c.c.c.c.c.c.c.v.c.c.c.v.c.c.l.9 a oX%X%X$X%X$X$X%X%X%X%X%XW.  1.v.c.c.c.c.c.c.c.c.c.c.c.c.c.c.c.U.U.5.  u } ",
"J   v f.f.z.v.v.v.v.v.v.v.v.v.v.v.v.v.v.v.v.b ; _.%X%X$X%X$X%X$X%X%X%X%X=.  0.v.c.c.c.c.c.c.c.c.c.c.c.c.c.c.c.c.U.s.* > n.",
"u O 6.f.f.x.v.v.v.x.x.v.v.x.v.x.v.v.x.v.v.v.3.  =.%X%X%X$X%X$X%X%X%X%XoXs * a.v.c.c.c.c.c.c.c.c.c.c.c.c.c.c.c.c.c.x.z X U ",
"> % 9.f.h.c.c.c.v.v.v.v.v.x.v.v.x.v.x.v.v.v.s.6 1 (.%X%X%X%X%X$X%X%X%X=.  N v.v.c.c.c.c.c.c.c.c.c.c.c.c.v.v.c.c.v.U.B   Z ",
"X 5 d.f.z.v.v.v.v.v.x.v.v.v.v.v.v.v.v.v.v.x.v.5.X s ).%X%X%X%X%X%X@X:.@ 9 s.v.v.c.c.c.c.v.c.c.c.c.c.c.v.v.v.v.v.U.U.8.  t ",
"  k i.9.8.8.e.s.v.v.v.x.v.x.v.v.v.v.v.x.v.v.v.l.,.X 1 =._.OX+X.X^.o.  5 y.v.c.c.c.c.v.c.v.c.c.c.c.c.c.v.l.u.0.7.q.a.e.. e ",
"  & 7 +       5 M p.v.v.v.v.v.x.x.v.v.v.l.v.v.v.v.5.8   ; a d 3   . x p.c.v.c.c.c.c.c.c.c.c.c.c.c.c.x.4.0 .       & 9 O q ",
"    2 o.;.I.*.d   * 7.x.v.v.v.v.v.v.v.v.v.v.v.v.v.v.a.3.b 8 6 0 m q.x.v.c.c.c.c.c.c.c.c.c.c.c.c.v.s.c   < +.;.>.;.h @   > ",
"  s ^.}.#X%X%XOXR.2 . 4.c.c.v.v.x.v.v.x.v.v.v.v.v.v.v.v.v.k.g.v.c.v.c.c.c.c.c.c.c.c.c.c.c.c.c.v.j.l   +._.$X%X%X%X@XR.@ > ",
"  d {.|.+X%X$X%X%X(.3 & y.U.U.U.c.c.c.c.c.c.c.c.c.c.c.c.v.v.c.c.c.c.c.v.c.c.c.c.c.c.c.c.c.v.c.x.N   #.+X%X%X$X$X%X%X).o r ",
"o 2 (. XOX$X%X$X%X%XW.O n x.c.c.c.c.c.c.c.c.c.c.c.c.c.c.c.c.c.c.c.c.c.c.c.c.c.v.c.c.c.c.c.c.v.p.% d oX%X%X%X%X$X$X%XY.  y ",
"e   I. XXX#X%X$X%X%X@Xh & p.U.c.c.c.c.c.c.c.c.c.c.c.c.c.c.c.c.c.c.c.c.c.c.c.c.c.c.c.c.c.v.v.v.1.  Y.%X%X%X%X%X%X%X#Xo.  D ",
"D X g '. X@X%X%X%X%X%X-.  8.U.c.c.c.c.c.c.c.c.c.c.c.c.c.c.c.c.c.c.c.c.c.c.c.c.c.c.c.c.c.c.v.x.x < ].%X%X%X%X%X%X%X/.# > G ",
"m.e   $.[.XX#X%X%X%X%XR.  3.c.c.U.c.c.c.c.U.U.U.U.U.v.v.U.U.v.v.v.v.c.v.v.c.c.c.c.c.c.c.c.v.l.0 3 .X%X%X%X%X%X%X}.f   S Q ",
"A.R > O #.`.OX$X%X%X%XT.  4.U.U.U.U.U.U.c.x.k.s.p.y.e.w.0.0.0.0.q.w.e.u.a.g.l.x.c.U.U.U.v.v.x.k 2  X%X%X%X%X%X).g   u S.F.",
"A.C.! w   d :.).@X$X$X$.  0.k.s.y.8.2.N c l 6 & $ .                   . % * 9 l m B 4.w.u.g.l.n @ (.%X#X+X_.=.1   u _ Z.b.",
"_ _ A.^ y o   1 g +.@.2   9 6 & +       # 2 d h o.$.-.;.:.:.>.:.:.;.=.#.X.h a 2 @     O $ 5 9 *   g #.O.d ;   : D ( b.B.n.",
"b.n.C.m.( Q Z e =     X = = > w w   a T.~.}.+X#X#X%X%X%X%X%X%X%X%X%X%X$X#X@XOX.X_.>.O X e q - = o   X X = w Z R ] Q ( Q m.",
"^ b.C.n.n.b.C.b.Q U P I U _ S.n.C   -.XXXX#X%X%X%X%X%X%X%X%X%X%X%X$X$X%X$X%X$X%X%X@Xh X Y | M.M.m.Y ! ! ) ( ( R ( Q R ) C.",
") m.) Q n.C.b.n./ b.b.b._ ) n.) , 2 /. XOX%X%X$X%X%X%X%X%X%X$X$X%X%X$X%X$X$X%X$X%X%XY.  V M.K.M.K.n.b.S.C.) W R Q m.n.b.b.",
"m.] R Q n.D.n.n.U Q b.B.n.S.m.T   o.{.|.@X%X$X%X%X%X%X%X%X%X%X$X%X%X$X%X$X%X$X%X%X%X}.1 w { K.L.n.) n.n.Q T ( ] Q b.b.^ n.",
"_ { R ] } m.m.R T Q ! ) ^ n.m.V   :.XXXX#X%X%X%X%X%X%X%X%X%X%X%X%X%X$X%X%X$X%X$X%X%X@XX.X T K.J.S.} | n._ { ) ^ n.b.B.n.b.",
"Q Q ) ) R Q Q ) Q b.Q Q ) n.n.w < ^. XoX%X%X%X%X%X%X%X$X%X%X%X%X%X%X$X$X%X%X$X%X%X%X%X:.  K S.) D.C.n.b._ ^ ..B.S.S._ b.C.",
"Y T ] ( ! n.n.C.b.H.^ R Q n.) o d ].|.+X%X%X%X%X$X$X$X$X%X%X%X%X$X$X%X$X$X%X%X%X%X%X%X(.+ t A.( B.B.Z.C.^ _ V.Z.A.A./ A.F.",
") ! ( ) _ Z.n.) b.Z.( Q n._ S   #.|.|.#X%X.XY..X%X%X%X%X%X%X%X%X%X%X$X%X$X(.Q.#X%X%X%X.X3 w _ _ / / ..A.../ S.Z._ { A.( n.",
") ) / / ) b.^ ! ^ B.Z.^ ) ) C   -..X X#X%XW.  T.%X%X%X@X].#X%XOX}.$X%X%X#XX.a oX%X%X%X%X!.` ^ D.A./ ( _ ) ~ ~ A.C.^ Q R U ",
"b.B.Z.Z.^ ! / ^ / b.b.^ C.Z.V   E..XXX#X%XW.  Y.%X%X%XR.< &.R.h a .X%X%X#Xc 2 .X%X%X%X%X#XP.U b._ ) R Q | _ B.B.! Q G R ^ ",
"F.Z.Z.F.b.B.F.B.b.F.b.b.C.Z.t # ~. XXX$X%X}.*.}.%X%X%X'.f     @ %.@X%X%X%XQ.P.%X%X%X%X%X/.i K ~ ( ( Q ( n.( / / U H R G ( ",
"F.C.B.S.) / b.Z._ b.B.n.n.) q 1 (.|.OX$X%X%X$X%X%X%X%X%XoX!.Y.(.#X$X%X$X%X%X%X%X%X%X%X%XI.  S V.~ ~ ( ( ( R ) ! Q G G b.b.",
"B.b.F.H.Z.n.( Q R Y ( ( / ! > 2 _.|.OX$X%X%X$X%X$X%X$X$X%X%X%X%X%X$X$X%X%X$X%X$X%X%X%X%XW.  C b.B.~ I R ( R ( ) Q R G H b.",
"/ b.F.F.C.) ] T ' R ( ) / E - p `.|.+X%X%X$X%X$X%X$X%X$X%X%X%X%X%X%X$X$X$X%X%X$X%X%X%X%X!.  C F.Z.~ W ( / ~ ) ) Q R Q n.Q ",
"/ b.Z.F.b.m.} R Q ] ( ^ / ^ - a '.|.OX%X%X$X$X%X$X%X%X%X%X%X%X$X$X$X$X%X%X$X$X%X%X%X%X%X^.  C V.Z.B._ A.B.A.B._ Q Q n.n.Q ",
"B.b.b.! T T ' ] ] ] Q n.b./ > 3 `.|.OX%X$X%X$X$X%X%X%X%X%X%X$X%X$X%X%X$X$X%X$X$X%X%X%X%XW.  Z F.H.F._ _ n._ C.A.C.m.] ( ^ ",
"b.) _ T G G G G H ' ] n.b.b.r @ W. XoX$X$X$X$X$X%X$X$X%X%X%X%X%X%X$X$X$X$X$X$X$X%X%X%X$X%.  I H.D.D.C._ ) b.C.b.n.C.) ] n.",
"Q ( R P P ! R R H ' M.b.b.n.F   h `.XX@X%X$X%X%X%X%X%X%X%X%X%X%X%X%X%X%X$X$X%X%X%X%X%X^.< - _ C.^ n.D._ _ F.C.n.n._ T H T ",
"R m.( Q Q ^ ) ( ] ' T ) ) n.n.r   j Q.{.@X#X@X#X#X$X#X@X#X@X@X#X@X#X#X@X#X#X#X#X#XoXE.p   S D.S.n.n.G.D.! b.F.C.C.n.T [ [ ",
"{ Q ( Q ( ) ] { m.n.] H H { ( G q   # d h j o.j X.X.b X.j j o.j X.X.X.X.j j j j j a X o S _ n.n.A.G.n.Q R / C.C.F.n.' [ M.",
"( ( ( R R ) M.S.G.b.m.) H ' H G F V -           X               O                   e K C.F.n.n.m.D.Q H R B.n.n.N.b.] ] } "
};
