/* XPM */
static char *enemy_right_1[] = {
/* columns rows colors chars-per-pixel */
"61 61 196 2 ",
"   c #010101",
".  c #0C0305",
"X  c #050900",
"o  c #080E00",
"O  c #070608",
"+  c #0B0608",
"@  c #070909",
"#  c #0B0C0D",
"$  c #140609",
"%  c #1A070B",
"&  c #1B090D",
"*  c #0D1401",
"=  c #0E1507",
"-  c #101700",
";  c #131B01",
":  c #100F11",
">  c #131415",
",  c #171618",
"<  c #161818",
"1  c #1A1B1C",
"2  c #200B0F",
"3  c #250C12",
"4  c #2A0F15",
"5  c #2D1016",
"6  c #311218",
"7  c #3C161E",
"8  c #152103",
"9  c #1A2501",
"0  c #1E2A03",
"q  c #202D02",
"w  c #243303",
"e  c #263605",
"r  c #2B3C04",
"t  c #293D08",
"y  c #202218",
"u  c #1E1E20",
"i  c #242425",
"p  c #2C2D2D",
"a  c #302F31",
"s  c #2F3030",
"d  c #333334",
"f  c #373738",
"g  c #3A3A3A",
"h  c #40171F",
"j  c #4B1621",
"k  c #451922",
"l  c #4B1C25",
"z  c #531F29",
"x  c #56202A",
"c  c #5A212C",
"v  c #61202D",
"b  c #642532",
"n  c #6C2836",
"m  c #732B39",
"M  c #7C2E3D",
"N  c #2F4103",
"B  c #2D450A",
"V  c #314303",
"C  c #364B05",
"Z  c #354D09",
"A  c #3B5306",
"S  c #395008",
"D  c #3D5C0B",
"F  c #3E630D",
"G  c #3F6510",
"H  c #415907",
"J  c #425B06",
"K  c #486306",
"L  c #4F6C06",
"P  c #42650C",
"I  c #496709",
"U  c #456A0D",
"Y  c #4A6D0B",
"T  c #536D07",
"R  c #4D720D",
"E  c #557506",
"W  c #5A7504",
"Q  c #577906",
"!  c #5B7C06",
"~  c #51750B",
"^  c #557A0C",
"/  c #597E0A",
"(  c #406710",
")  c #456C11",
"_  c #496F10",
"`  c #4C7311",
"'  c #4C7715",
"]  c #507512",
"[  c #537C12",
"{  c #557D14",
"}  c #607B05",
"|  c #6F661B",
" . c #3F3F40",
".. c #3F4040",
"X. c #434444",
"o. c #4A4A4B",
"O. c #535354",
"+. c #575758",
"@. c #5B5B5C",
"#. c #5F5E61",
"$. c #636263",
"%. c #676669",
"&. c #6B6B6B",
"*. c #6F6E71",
"=. c #737373",
"-. c #767578",
";. c #7B7C7C",
":. c #84273A",
">. c #892A3E",
",. c #912D3F",
"<. c #833141",
"1. c #8C3445",
"2. c #923749",
"3. c #983449",
"4. c #95384A",
"5. c #9B3A4D",
"6. c #B1344E",
"7. c #A53E52",
"8. c #C73A58",
"9. c #D33E5D",
"0. c #B75649",
"q. c #AC4055",
"w. c #B04257",
"e. c #B4445A",
"r. c #BB465D",
"t. c #C0485F",
"y. c #C44A61",
"u. c #C94C64",
"i. c #D14F68",
"p. c #D6506A",
"a. c #DB526D",
"s. c #E94467",
"d. c #F2476B",
"f. c #FA496F",
"g. c #FC4C71",
"h. c #E45671",
"j. c #E85774",
"k. c #EC5976",
"l. c #FC5376",
"z. c #F05A77",
"x. c #FB5678",
"c. c #F45C79",
"v. c #FD5F7E",
"b. c #FF607F",
"n. c #5E8106",
"m. c #5C820B",
"M. c #5F890F",
"N. c #578416",
"B. c #5B8412",
"V. c #5E8914",
"C. c #628505",
"Z. c #658A06",
"A. c #698D04",
"S. c #618609",
"D. c #648B0A",
"F. c #688E09",
"G. c #6C9204",
"H. c #6B920A",
"J. c #719703",
"K. c #71990A",
"L. c #628C12",
"P. c #618A18",
"I. c #6A9513",
"U. c #6A9A1A",
"Y. c #69813E",
"T. c #94A961",
"R. c #FF6080",
"E. c #838383",
"W. c #88878B",
"Q. c #8C8C8C",
"!. c #908F93",
"~. c #939293",
"^. c #969599",
"/. c #9B9A9C",
"(. c #9E9DA2",
"). c #A09FA4",
"_. c #A4A4A4",
"`. c #A5A3A8",
"'. c #AAAAAB",
"]. c #AFADB3",
"[. c #B3B3B4",
"{. c #B6B4BA",
"}. c #BBBBBB",
"|. c #BEBCC2",
" X c #C2C1C3",
".X c #C7C5CB",
"XX c #C9C7CC",
"oX c #CBCACD",
"OX c #CECCD1",
"+X c #D0CFD3",
"@X c #D3D3D4",
"#X c #DBDADB",
"$X c #E0DFE1",
"%X c #E5E4E5",
"&X c #E7E7E8",
"*X c #E9E9E9",
/* pixels */
"[ B.B.n.n.F.H.D.D.m.m._ ^ R Y R R n.^ Y Q U D Z t 0 9 ; = o o * * ; 0 w V A K E C.D.^ m.S./ Y R R U F G Y n.C.M.L.N.' ) N.",
"/ m.m.B.Q n.S.n.Q n.n.Q n./ R n.~ ^ L D r - X       $ & 3 3 3 3 2 % +       o ; e I / Z.H.R Y Y Y R F F Y U R m.P.V.' { { ",
"/ ^ ` ^ E n.Z.n.! n.A.Z./ / / C.K e *     2 k m 4.e.u.a.h.h.h.h.h.a.u.w.4.n k &   . ; V I ! S.Q n.n.] ^ U U Q m.{ { ' ` ` ",
"S.Q R I E n.A.Z.n.! A.Z.m.Q J 0 X     + 3.a.c.v.R.R.R.R.b.R.R.R.b.b.b.b.v.v.c.a.1.+       0 E G.A.M.n.n.E ! Q n./ [ B.[ / ",
"! ! E Y ~ E C.F.Z.Z.Z.Z.E q   O f E.X.. t.R.v.v.v.v.v.b.b.v.v.v.c.b.b.b.c.b.b.b.q.  @.!.g X X r E C.C.! ! n.! ! M.B.I.B.R ",
"R Q Q E ~ ! A.Z.A.Z.! C o   d W..X%XE.  5.R.v.v.v.v.v.v.v.v.v.v.b.b.b.b.b.b.b.b.<.  ).*X#X~.f   * C ! ! E ! n.n./ L.F./ R ",
"Q ! ! ! ! C.C.C.Z.W q   , *.}.#X&X*X~.  1.R.v.v.v.v.v.v.v.v.v.v.b.b.b.b.b.b.b.b.M   _.*X*X*X@X;.>   r E ~ E n.n./ B.I.D.R ",
"S.! E ! S.Q Q A.W 8   f ).+X%X*X&X*X;.  7.R.v.v.v.v.v.v.v.v.v.v.c.b.b.b.c.b.b.b.1.  Q.*X*X*X*X*X].f   8 J ! m.D.S./ ^ ^ R ",
"! n.Q C.Z.Q Q L ;   O.{.@X%X*X*X*X$Xo.. t.b.b.b.v.v.b.v.v.v.b.v.b.b.b.b.b.b.b.b.e.  +.%X*X&X*X*X*XOXO.  ; W A.Z.F.S./ ] / ",
"! ! n.! } Z.W ;   #.|.+X&X*X*X&X*X'.# h z.b.b.c.v.v.b.b.b.b.v.b.b.b.b.c.c.b.b.b.j.6 < }.*X*X*X*X*X*X#X$.  8 W C.S.{ [ Q / ",
"} ^ C.! } W 9   #. X+X%X*X*X*X*XoXg   q.b.b.b.b.v.R.v.p.2.n c m 5.p.b.b.b.b.b.b.v.4.  X.@X*X*X*X*X*X*X$X@.  0 Q ! / / n.Z.",
"n.} Q ^ W w     %.|.&X*X*X*X*X[.g   n z.b.b.b.b.b.p.b $   O @ O   & n h.b.b.b.c.v.c.c   o.}.*X*X*X*X*X@X&.    r R Q ! n.Q ",
"Z.n.E S.H   3 3   a -._.'.~.+.>   n j.b.b.c.b.b.y.5   s ;.'.[.'.-.p   7 i.v.v.v.v.v.h.c   < @.~.'._.=.p   4 4   S n.n.n.n.",
"H./ ~ T * % 8.9.v %           6 5.c.b.b.b.b.b.p.5 @ &.@X*X*X*X*X*XoX#.  7 h.v.v.v.v.v.c.2.5     X X   & n a.e.$ - E C.n.C.",
"/ ] _ B   :.f.g.x.i.5.M m 1.e.j.b.b.b.b.b.b.c.v   =.%X*X*X*X*X*X*X*X$X$.  m v.v.v.v.v.v.b.h.w.<.m M 7.i.v.v.v.m   N / R ! ",
"S.] ~ | ,.s.f.l.R.R.R.R.R.R.b.b.b.b.c.b.b.b.u.+ g @X*X*X*X*X*X*X*X*X*XoXp $ p.b.v.v.v.v.b.b.R.R.R.R.R.v.v.v.v.a.5 o K m.n.",
"/ ~ K 0.f.f.f.v.b.b.b.b.c.b.b.c.b.b.b.b.b.b.<.  W.*X*X*X*X*X*X*X*X*X*X*X;.  5.R.b.v.v.v.v.v.v.v.v.v.v.v.v.v.v.b.1.  r C.! ",
"S.T * :.f.f.l.b.b.c.b.b.b.b.b.b.b.c.c.b.b.b.c # }.*X*X%X%X*X*X%X*X*X*X*X'.O n R.b.b.v.v.v.v.v.v.v.v.v.v.v.v.v.R.h.4 * T ! ",
"/ r   >.f.f.c.b.b.b.b.c.b.b.v.v.b.c.b.b.c.c.l < oX*X*X*X*X*X*X*X*X*X*X*X[.@ c c.b.v.v.v.v.v.v.v.v.v.v.v.v.v.v.v.v.M   S B.",
"^ ; $ 9.f.l.b.b.b.c.v.v.v.b.v.v.b.b.b.b.b.b.x # }.*X*X*X*X*X%X*X*X*X*X*X'.X n b.v.v.v.v.v.v.v.v.v.v.v.v.v.v.v.v.R.y.+ 0 n.",
"J X j d.f.l.b.c.b.c.b.b.b.c.b.b.b.b.b.b.b.b.M   !.&X&X&X*X*X*X*X*X*X*X*X;.  2.b.v.v.v.v.v.v.v.v.v.v.v.v.v.v.v.v.v.z.7 o P ",
"t   >.f.f.v.b.b.b.b.b.b.b.b.b.b.b.c.c.b.b.b.r..  .$X&X&X%X*X*X%X*X*X*X@Xd $ u.b.v.v.v.v.v.v.v.v.v.v.v.v.v.v.v.v.v.v.m   Z ",
"0 . 6.f.f.v.v.b.b.b.v.v.c.b.b.b.b.b.c.b.b.b.c.x O E.&X&X*X*X*X*X*X*X%X=.  b b.b.v.v.v.v.v.v.b.v.v.b.v.v.v.v.v.v.v.R.7.  e ",
"* % 9.g.l.b.b.b.b.b.c.b.b.b.b.c.b.b.b.b.c.b.b.u.& # T.$X*X*X*X*X*X#X=.@ 5 p.b.c.v.v.v.v.v.v.v.v.v.v.v.v.v.R.R.R.R.R.u.+ 8 ",
"* 3 8.6.:.<.4.y.k.b.b.b.b.c.b.b.v.v.v.v.v.v.v.b.e.& O  .!.|..X}.Q.g X 5 r.b.b.b.b.c.b.b.b.b.b.b.v.v.R.b.h.e.1.:.1.w.y.& - ",
"  . 2           7 q.c.b.b.b.b.b.v.v.v.v.v.v.v.v.R.u.l O   : < #   + c p.b.b.b.b.b.b.b.b.b.c.b.b.v.R.k.1.5     O     2 . - ",
"    1 +.Q._.W.O.>   n k.b.b.b.c.v.v.b.v.v.b.v.v.R.R.R.e.M x k x >.r.c.b.b.b.b.b.b.b.b.c.b.b.b.c.b.a.l   1 #.Q._.~.$.u   ; ",
"X 1 `..X#X*X*X%X[.g   b z.b.b.b.v.v.b.b.b.c.v.v.R.R.R.R.b.v.c.v.b.b.b.c.b.b.b.c.b.c.b.b.b.c.b.b.j.l   o. X*X*X*X*X*X[.< * ",
"* 1 [..X@X&X&X*X*X@X..  4.b.v.v.v.v.v.v.v.v.v.v.v.v.v.v.v.v.v.v.b.c.b.b.b.c.b.b.b.c.b.b.b.b.b.b.M   O.#X*X*X*X*X*X*X X> ; ",
"q O !..X+X%X*X*X*X*X}.< 5 h.b.b.b.v.v.v.v.v.v.v.v.v.v.v.v.v.v.v.v.b.b.b.b.b.b.c.b.b.b.b.b.b.b.i.& i oX*X*X*X*X*X*X*X/.  w ",
"V   @..X.X%X*X&X*X*X*X@.  e.b.b.v.v.v.v.v.v.v.b.v.v.v.v.v.v.v.b.b.b.b.b.b.b.b.b.c.b.b.c.b.b.b.5.  *.*X*X*X*X*X*X*X%X+.  A ",
"E * , `..X@X&X*X*X*X*X^.  >.b.v.v.v.v.v.v.v.v.v.v.v.v.v.v.v.v.v.b.c.b.b.c.b.b.b.b.b.b.b.b.b.b.n   '.*X*X%X*X*X%X*X[.> = _ ",
"D.C   f ].OX#X&X&X&X*X'.O m b.b.R.b.b.b.b.b.b.b.R.b.R.R.b.b.b.b.b.b.b.b.b.b.b.b.b.b.b.b.b.b.v.x # }.*X*X*X*X*X*X Xd   B { ",
"/ D.r   s /.oX%X*X&X*X_.  m R.b.R.R.b.b.z.a.p.u.e.q.5.2.1.<.<.<.1.2.5.q.e.u.a.h.c.c.b.R.b.b.b.b @ [.*X*X*X*X%X'.s   w ` _ ",
"[ V.m.r   : O.~. X#X$X=.  <.a.t.q.1.n z 7 3 $ .                           . $ 3 7 c m 1.q.y.a.m   E.$X#XoX_.+.>   t ` ` R ",
"[ { { ! S ;   O 1 s f >   & & .       # < p X.+.&.=.E.Q./._.'.'./.Q.;.=.&.O.X.s 1 #       + & &   1 g s 1 @   ; D m.` Y P ",
"M.[ B.Z.n.R F w - * o o - ; 9 w w   4 ^.[.XX%X%X*X*X*X*X*X*X*X*X*X*X*X*X*X*X%X@X@X_.1   q q 8 * o o o - 8 r J ^ Z.Z.m.^ R ",
"n./ m.D.H.m.m.] P P F ~ Q C.n.S.A   $.XX.X%X*X&X*X*X*X&X*X*X*X*X*X*X*X*X*X*X*X*X*X*X@.  S m.R P F Y ` m.^ S.m.m.D.D.m.Z.G.",
"n.D.D.m.M./ ` _ _ U R n.n.Z.Z.Q 8 # (..X@X&X*X*X*X&X*X*X*X*X*X*X*X*X*X&X*X*X*X*X*X*X`.O 0 m.{ ` ) ] V.[ Q n./ B.D.S.n.Z.Z.",
"m.! n.M./ M.^ ^ R R m.m.m.~ ~ I X d |..X#X&X&X*X&X*X*X&X*X*X*X*X*X*X*X*X*X*X*X*X*X*X#Xp * ` { ' _ ' { ` ^ / D.S.m./ n.Z.m.",
"n.m.Z.m.] m.m./ ^ ^ Z.D.m.m.m.S   %.XXXX$X*X*X&X*X*X*X%X*X%X*X*X*X%X*X*X*X*X*X*X*X*X*X&.  D V.B.` R m.L.[ / S.^ R Y R R Q ",
"E m.Z.m.m.n.Z.n.^ / / n.n.D.F.w + !.XXOX&X*X*X&X%X*X*X*X*X*X*X*X*X*X*X*X*X*X%X*X*X*X*X/.  B I.U.I.[ Z.Z.m.^ R R ~ R R ^ A.",
"^ B.^ R n.Z.n.n.n.! n.n./ ^ ] ; u {.XX@X*X&X*X&X*X*X*X*X*X*X*X*X*X*X*X%X*X*X*X*X*X*X*X.X, 9 N.N.L.n.n.S.D.Q R Y ] ^ m.n.n.",
"N.R Y R B.F.M.n.Y R n.n.m.D.U X g  XXX#X*X@X&.[.*X*X*X*X*X*X*X*X*X*X*X*X*X_.*.#X*X%X*X#X .- V.I.M.Q ! m.R Y R ` ] n.n.Q m.",
"/ ] _ R ^ N.B.Y U R R ^ / m.P   #..XXX$X*X'.  =.*X*X*X#X_.@X*X+X_.#X*X*X&XO.@ }.*X&X*X*X XY.M.K.Z./ [ B./ ] ^ Q m.n.m.m.M.",
"R R ^ ^ ` R R / R n.R R ~ m.Z   -.XXoX%X*X'.X =.*X*X*X_.@ f &.s # [.*X*X%X+.# }.*X*X&X*X&XT.m./ F.S.n.S./ / } C.Z.D.! S.Z.",
"I U ~ ~ R ! m.n.n.J./ Y R / N   Q.XXoX%X*X#XQ.}.*X*X*X@X@.#   > $.#X*X*X*X}.Q.$X*X*X*X*X[.y A / C.S.A.Z.Q ! A.A.C.S.! S.G.",
"~ R ~ ~ / G.n./ n.A.E R m.! w O ^.XX+X&X*X*X*X*X*X*X*X*X$X}._.}.%X*X*X*X*X*X*X*X*X*X*X*X_.  r m.! ! } S.! ! C.A./ ] S.~ m.",
"m./ ! ! Q n.Q ~ E Z.A.n.~ ^ 9 : `..X+X&X&X&X*X&X*X%X*X*X*X*X*X*X*X*X*X*X*X*X*X*X*X&X*X*X'.@ r Z.S.! ~ / ~ T } D.Z.n.R Y L ",
"n.n.G.Z.W Q ! Q n.n.n.E Z.M.0 : '..X+X&X&X*X*X*X*X&X*X*X*X*X*X*X*X*X%X*X*X%X*X*X*X*X&X*X[.# q ! / / R Y / / Z.} R E F Y E ",
"H.Z.Z.G.Z.n.G.C.n.G.n.! A.M.0 > ]..X@X&X*X*X&X*X&X*X*X*X*X*X*X*X*X*X%X*X*X%X%X*X*X*X*X*X}.# 0 Q T E ~ ] m.E } ! Y F Y G R ",
"G.Z.Z.Z.~ ! n.A.Q n.n.n.n.Q 0 # (..XOX&X*X*X*X*X*X*X&X&X%X*X*X%X*X*X*X*X*X*X*X*X*X*X*X*X'.. r C.W ^ ~ ~ ] ` ~ E R F G Q n.",
"C.n.G.J.A.m.^ R Y U R R ! ! N   *.XXoX%X*X*X*X*X&X*X*X*X*X*X*X&X*X*X*X*X*X*X*X*X&X*X*X*X&.  C n.C.W I Y ~ Y ~ E R G F Y n.",
"! n.G.G.A.~ R P ) R ~ m.n.Q U o 1 ^.OX#X*X*X*X*X*X*X*X*X*X*X*X*X*X*X*X*X*X*X*X*X*X*X*X'.> * E G.A.W T ~ ! W ^ Q ~ _ n.R R ",
"! n.G.G.m.m.[ _ ) R ~ n.E m.n.B   1 -.'. X@X@X@X@X@X@X@X@X@X@X@X@X@X@X+X@X@X@X@X@X XE.1 X C n.A.A.C./ m.S.S.S.m.~ R m.m.R ",
"C.n.n.R U U ) ` ` R R m.n.n.m.m.B X   > u i i i i i i i i i i i i i i i i i i i i >   X B ~ C.A.J.G./ / n./ Z.S.D.m._ ~ Q ",
"n.Q / U F F F F G U ` m.Z.n.n.m.~ D e 8 ; * 8 8 8 ; - * * * - ; - - - - * * - - ; 0 N D ` N.F.J.F.F.D./ Q m.Z.m.n.M.^ R m.",
"R R Y K U ~ L U G _ ~ M.n.n.n.m.R ~ ] N.N.U ~ ^ M.M.U F H U U ~ F I ` ' U I Q W E m.S.R _ R M.Z./ / A./ / G.A./ m.n.U G ) ",
"` [ ~ R Y ! / ] N.G _ ~ R m.m.n.R Y ` / m.U _ G ^ B.Y U ~ ] _ ] ~ ] [ ] Y ~ S.C.C.Z.Z.m.m.m.G.n.! m.H.A.Q n.G.S.A.M.G ` ' ",
"] R Q R ~ ~ R ] M.m.R G F N.R Y F D D R R U G U U ` ` { { S.P./ / [ / ! E Q C.! S.D.m.D.F.m.m.m.S.H.m.~ Y ! C.Z.G.m.) ' [ ",
"^ T ` R I / N.D.H.M.m.R G G G F F Y F U U F F F _ ] P.P.B.S.F./ } S.Z.C.Q ^ E C.S.n.~ m.F.F.n.B.N.F.` ( T } M.m.M.m.R ) N."
};
