/* XPM */
static char *enemy_left_1[] = {
/* columns rows colors chars-per-pixel */
"61 61 201 2 ",
"   c #040501",
".  c #0B0706",
"X  c #060A01",
"o  c #090B03",
"O  c #0D0C0C",
"+  c #130B0C",
"@  c #190C0E",
"#  c #0C1300",
"$  c #0D1901",
"%  c #121C01",
"&  c #0F0F10",
"*  c #1D0E11",
"=  c #131313",
"-  c #161718",
";  c #1A1B1B",
":  c #210F11",
">  c #231114",
",  c #291416",
"<  c #2B1519",
"1  c #32181C",
"2  c #391C1F",
"3  c #162303",
"4  c #192601",
"5  c #1C2A02",
"6  c #212E00",
"7  c #223304",
"8  c #233806",
"9  c #2A3D03",
"0  c #1E1F20",
"q  c #361B20",
"w  c #3C1D22",
"e  c #1F2021",
"r  c #222324",
"t  c #272829",
"y  c #282A2B",
"u  c #2F3132",
"i  c #333335",
"p  c #37363A",
"a  c #393A3C",
"s  c #401F24",
"d  c #422125",
"f  c #472329",
"g  c #4B252A",
"h  c #4F282C",
"j  c #50272C",
"k  c #52292E",
"l  c #562B31",
"z  c #5D2F35",
"x  c #5F313A",
"c  c #633137",
"v  c #653339",
"b  c #6B363D",
"n  c #70383F",
"m  c #2E4607",
"M  c #314503",
"N  c #354C06",
"B  c #324A09",
"V  c #3B5305",
"C  c #36520A",
"Z  c #39550A",
"A  c #3C5B0B",
"S  c #3C5313",
"D  c #3E620D",
"F  c #3F6510",
"G  c #435D05",
"H  c #415F0B",
"J  c #466206",
"K  c #4A6506",
"L  c #4D6B07",
"P  c #43650C",
"I  c #4A6609",
"U  c #466B0D",
"Y  c #4A6D0B",
"T  c #516C07",
"R  c #4D720C",
"E  c #547506",
"W  c #5A7605",
"Q  c #577906",
"!  c #5B7D06",
"~  c #51750B",
"^  c #557A0B",
"/  c #597D0A",
"(  c #446712",
")  c #456D12",
"_  c #496F10",
"`  c #546E16",
"'  c #4B7311",
"]  c #4C7715",
"[  c #507610",
"{  c #537B11",
"}  c #567E13",
"|  c #617D05",
" . c #484D3E",
".. c #3E3E40",
"X. c #733A42",
"o. c #7B3E45",
"O. c #793F49",
"+. c #454648",
"@. c #4A4B4C",
"#. c #4F5052",
"$. c #535456",
"%. c #5B5C5E",
"&. c #7E4048",
"*. c #5E5E61",
"=. c #646467",
"-. c #666669",
";. c #6B6C6E",
":. c #6D6D70",
">. c #727174",
",. c #767679",
"<. c #78777A",
"1. c #7A7A7C",
"2. c #86444C",
"3. c #8A464E",
"4. c #8E4953",
"5. c #934B54",
"6. c #994E57",
"7. c #9B4F58",
"8. c #9D515B",
"9. c #A3535D",
"0. c #A65764",
"q. c #AA5761",
"w. c #AE5963",
"e. c #B25B65",
"r. c #B45D6A",
"t. c #B95F69",
"y. c #BD616C",
"u. c #BC6271",
"i. c #C1636E",
"p. c #C66570",
"a. c #CA6773",
"s. c #CD6975",
"d. c #D16B77",
"f. c #D36E7E",
"g. c #D96F7B",
"h. c #DD717E",
"j. c #E0727F",
"k. c #5E8106",
"l. c #5C820B",
"z. c #5F890F",
"x. c #5A8312",
"c. c #5B8615",
"v. c #628505",
"b. c #688504",
"n. c #658A06",
"m. c #698D04",
"M. c #618509",
"N. c #648A0A",
"B. c #688E09",
"V. c #6D9204",
"C. c #67900A",
"Z. c #6B920A",
"A. c #719603",
"S. c #729907",
"D. c #628C13",
"F. c #618A18",
"G. c #6B9411",
"H. c #649118",
"J. c #7E7E81",
"K. c #D56F80",
"L. c #D67081",
"P. c #DC7282",
"I. c #E47482",
"U. c #E97785",
"Y. c #EC7986",
"T. c #EF7A88",
"R. c #F27B89",
"E. c #858488",
"W. c #8F8E91",
"Q. c #929195",
"!. c #969599",
"~. c #98979A",
"^. c #9C9A9F",
"/. c #9CA18F",
"(. c #A1A29E",
"). c #9E9DA1",
"_. c #A3A2A6",
"`. c #A7A6AA",
"'. c #AEADB1",
"]. c #B6B5B9",
"[. c #BEBCC1",
"{. c #C0BFC4",
"}. c #C3C2C7",
"|. c #C8C7CC",
" X c #CECCD1",
".X c #D0CFD4",
"XX c #D2D0D6",
"oX c #D6D4D9",
"OX c #DBD9DE",
"+X c #DEDCE2",
"@X c #E0DEE4",
"#X c #E2E1E6",
"$X c #E5E4E9",
"%X c #E8E7EC",
"&X c #EAE8EE",
"*X c #EEECF2",
"=X c #F0EEF4",
"-X c #F3F1F7",
";X c #F7F5FB",
":X c #F8F6FC",
">X c #FBF9FF",
/* pixels */
"} x.x.l.v.m.Z.N.z.k.k.U ^ R R _ _ l.Q U k.U F ' ' [ C.G.z.k.v.! k.v.m.v.k.E ~ ! v.M.~ l.z.k.U R R F D D Y k.k.N.H.c.) ) } ",
"^ l.x./ Q v.v.l.Q ! k.l.k.Q R k.^ Q ~ k.k.F R l.x.l.z.C.m.k.v.k.Q v.m.m.m.E P E / G.n.n.n.R U R R R D D U U R l.c.F.] c.} ",
"l.~ R ^ E k.N.! k.k.m.n.l.Q l.n.k.R ~ k.k.R R R F F R k.v.! ! ! k.v.k.k.k.! U R ^ D.N.Z.l.R k.l.k.l.[ l.L D ~ l.{ } ] ' ' ",
"v.^ R Y E k.m.m.k.k.m.n.l.Q k.k.k.l.l.k.n.m.E R R l.l.k.m.v.Q v.V.k.k.n.k.E L R ^ ^ / N.l.x.V.A.V.k.k.k.Q Q l.k.l.{ x.{ { ",
"^ ! E L ~ E v.m.v.n.m.N.N.^ / k.n.k.N.k.k.k.R U R [ ^ Q v.| v.v.k.k.U k.k.U R R ^ R ~ l.z.k.C.n.m.k.k.! k.k.Q k.l.D.G.x.R ",
"R Q ! ~ ~ ! m.b.m.C.k.~ Q P R Q k.m.m.k.m.z.[ _ U R l.k.m.v.v.! k.k.R k.Q R R / N.^ R [ ~ C.V.k.! ! k.Q E k.k.k.} z.N./ R ",
"Q ! k.! ! v.v.v.k.k.~ P ~ l.c.[ R k.l.[ l.~ x._ P P ~ k.n.V.! E l.~ ~ ^ R k.k./ M.l.l.R _ R z.k.Q k.m.k.T E k.l.l.z.C.N.R ",
"v.! ~ / v.Q / n.V.k.~ Q ~ x.N.R D R R ' F D F F I J U T v.k.T T R ^ ^ ] _ ~ m.M.k.m.V.~ _ ^ V.z.N.^ / ! L ! z.k.M.l.{ ^ R ",
"! ! ! v.n.^ E v.B.Q Y / / E k.l.R x.k.R U D D ' ^ L ) ^ k.Q ~ k.n.C.l.] U R M.n.k.V.S.z.^ ~ l.^ n.k.R Q W b.m.n.B.x.^ { / ",
"! ! k.! | b.m.Q ~ ^ ~ / m.v.l.l.c.l.l.k.T P P U ] R D J J G J L ^ ^ P P P R V.A.V.A.V.l.^ Y _ ^ k.C.m.V.V.b.v.v.M.^ ^ / l.",
"! ! k.| | | n.E Y R ^ v.k.v.l./ l.l.! k.k.Q D m 8 4 $ # X o X o o # # % 4 m J v.k.z.k.~ ~ k.~ ~ N.V.n.A.A.v.v.v.k./ / k.M.",
"! ! ^ Q | v.v.^ L U ~ k.k.k.M./ l.l.k.E A 6 # o * w z o.4.7.9.8.5.2.X.l 2 * o # 5 M J k.N.l.l./ m.V.! k.V.A.A.! R ~ ! k.Q ",
"m.M.E M.b.M.^ ! / ~ R k.k.k.Q R R L m $ . 2 X.w.d.Y.R.R.R.R.R.R.R.R.R.R.Y.f.e.&.d + o 7 G E Q ~ n.m.k.v.m.V.m.^ / ! k.v.k.",
"G./ ~ | v./ E W T L U U Y Y U A 7 X @ z e.j.R.R.R.R.R.R.R.R.R.R.R.R.R.R.R.R.R.R.U.p.2.<   % M L v.m.n.v.m.v.n.m.m.k.v.k.v.",
"/ [ _ B.m.W / | E J D D P D 7 X   z s.T.R.R.R.R.R.R.R.R.R.R.R.R.T.R.T.R.R.T.R.R.R.R.I.j + i O % K ! / / E / l.v.V.v./ R ! ",
"/ ~ ` B.B.B.B.v.W K Y R N $ = @.; w g.R.R.R.R.R.R.R.R.R.R.R.R.R.R.R.R.R.R.R.R.R.R.R.5.O !.$X_.i X 6 Y / l.x.l.v.m./ k.^ k.",
"| [ T { { V.Z.M.v.W ~ 9   ..].-X].- b T.R.R.R.T.R.R.R.T.R.R.T.R.R.R.R.R.R.R.T.R.R.Y.w +.-X:X:X#X<.= % G ' ~ B.A.n.^ b.v.! ",
"M.M.[ Y T M.D.N.m.E 3 & <.#X>X;X;X;.> h.R.R.R.R.R.R.R.R.R.R.R.R.R.R.R.R.R.R.R.R.R.h.> <.:X;X;X:X:X`.= X m ~ B.b.^ E m.M./ ",
"W ~ ~ ~ { x.} n.T % O ~.;X;X;X;X>X~.+ s.R.R.R.T.T.R.R.R.R.T.R.R.R.R.R.R.R.R.R.R.R.j.1 *.;X;X;X;X;XoX; + o m { ^ / M.B.N.x.",
"/ / ~ } F.x./ G # @ + ].>X:X;X;X>X1.@ f.R.R.R.R.R.R.T.R.R.Y.Y.T.R.R.R.R.T.R.T.R.R.R.n ; }.>X:X:X-X<.+ q.l o C ^ / x.F.Z.M.",
"{ M.~ } x.{ C o f t., $.&X>X>X>X.Xt k T.R.R.R.R.R.R.R.h.5.j 2 k 5.I.R.R.R.T.R.T.R.R.d.1 t ~. X}.:.O X.R.I.g o C R { } M.~ ",
"~ ~ T ~ { Z o f g.R.5.. #.'.}.^.u > i.R.R.R.R.T.R.R.s.w & a $.a O g d.R.R.R.R.R.R.R.R.i.g + - = * o.I.R.R.d.q # _ / W / ~ ",
"{ Y _ ~ Y # w d.R.R.T.6., O = + d y.R.R.R.T.R.R.R.j.d r '.*X;X&X_.; h U.R.R.R.R.R.R.R.R.j.y.7.9.s.T.R.R.T.R.t.* 7 x.x.} { ",
"~ [ _ U 3 * e.R.R.R.R.R.g.w.9.y.j.R.T.R.R.R.R.R.R.7.+ `.:X:X:X:X>X~.O q.R.R.R.T.R.R.R.R.R.R.R.R.R.R.R.R.R.R.R.3.. H x.x.} ",
"l.E ~ 9 O 4.K.U.R.R.R.R.R.R.R.R.R.R.R.R.T.R.T.R.R.c i %X:X;X;X;X>X+Xr n R.R.R.R.R.R.R.R.R.R.R.R.R.R.R.R.T.R.R.I.d % _ l.M.",
"B.M.J o x f.K.I.R.R.R.T.R.R.R.R.R.R.R.R.R.R.R.R.R.j +.-X;X;X;X;X:X&Xp c R.R.R.R.R.R.R.R.R.T.R.R.R.R.R.T.R.R.R.R.9.. N M.M.",
"N.l.4 > u.K.K.K.T.R.R.R.R.R.R.R.R.T.R.R.R.R.R.R.R.b t +X:X:X;X;X>XXX; o.R.R.R.R.R.R.R.R.T.R.R.R.R.T.R.R.T.R.R.R.I.s 3 ^ / ",
"z.I X O.K.K.K.K.U.R.R.T.R.R.R.R.R.R.R.R.T.R.T.R.R.e.O E.;X>X:X:X;X<.+ y.R.R.R.R.R.R.R.R.R.R.R.T.R.R.R.R.R.R.R.R.R.5.o J / ",
"l.8 - u.K.K.K.s.I.R.R.R.R.R.d.4.n n 9.j.R.R.R.R.R.Y.v + 1..X#X X>.O o.T.R.R.R.R.R.j.9.n n 5.g.R.R.R.T.R.R.R.R.R.R.d.* M / ",
"E o x K.K.K.K.K.P.T.R.R.Y.6.: = y r + f p.R.R.R.R.R.j.n + ; r - + o.I.T.R.R.R.R.y.2 + r y = , 9.T.R.R.R.R.T.T.R.R.U.f 4 ^ ",
"G X 3.K.K.K.K.K.K.Y.R.R.9.# $.}.#X+X_.y 1 d.R.R.R.R.R.T.i.4.n 4.p.R.R.R.R.T.R.a.> i '.+X#X].+.+ q.R.R.R.R.R.R.R.R.R.o.# E ",
"Z + 0.K.a.K.K.K.f.I.R.j.1 +.%X>X;X>X>X[.; n R.R.T.R.R.R.R.R.R.R.R.T.R.R.R.R.T.v e |.>X>X>X>X@Xa s I.R.T.R.R.T.R.R.R.7.o A ",
"V @ u.f.K.K.K.s.K.K.T.r.O `.>X;X;X;X;X;X%.1 j.R.R.R.R.R.R.T.R.R.T.R.R.T.R.R.g.> :.:X:X;X;X;X:X~.+ p.R.R.R.R.R.R.T.R.e.. Z ",
"N . 8.L.K.K.K.K.K.K.U.8.- |.;X;X;X;X;X>XE.: g.R.R.R.R.R.R.R.R.R.R.R.R.R.R.R.d.@ Q.:X;X;X;X;X>X].. q.R.R.R.R.R.R.R.R.t.. m ",
"( o X.L.K.K.K.K.K.K.K.0.. ].>X;X;X;X;X:X-.< j.R.R.R.R.R.R.T.T.R.T.R.R.T.R.R.g.: <.>X:X;X:X:X>X_.+ t.R.R.R.R.R.R.R.R.r.. B ",
"[ 5 - r.K.K.s.K.K.K.K.u., %.=X>X:X:X>X.Xe v R.R.R.T.R.R.R.R.R.R.R.R.R.R.R.R.Y.l y OX>X:X;X:X*X@.1 I.R.R.R.R.R.R.R.R.3.o C ",
"z.P # q 0.K.K.K.K.K.K.P.3.. >.+X-X=X}...> a.R.R.R.T.R.R.R.R.T.R.R.R.R.R.R.R.R.y.@ +.|.-X=XoX-.+ 6.R.R.R.R.R.R.R.R.s., 4 R ",
"M./ J # * X.r.K.K.K.K.K.P.o.+ r +...= , e.R.R.R.R.R.R.T.Y.j.g.j.Y.T.R.R.R.R.R.R.9.> ; ..+.e @ 2.Y.R.R.R.R.R.R.I.9.< # E V.",
"! n.B.~ 7 o * f O.8.r.u.K.I.e.b d g &.p.h.g.s.r.9.4.n l w , * , s l o.5.e.y.d.g.I.i.o.g g n i.T.R.T.T.I.d.e.O.w o 3 L n.M.",
"l./ l.M.{ Y m % X . @ * 1 w g g f d f 2 , @ * . + - r p @.;.J.-.+.i 0 = # + @ : 1 f k k c b b v x k d 1 * . # 5 V ~ v.n.l.",
"k.k.k.x.^ l.l.~ ( Z V m 7 6 5 4 4 3 X 0 ;.<.W._.]. X+X&X-X>X>X;X=X&XOX|.].^.E.>.*.= X % % % % 3 % % 5 9 m Z ~ ^ R R ~ R l.",
"Q k.C.k.l.k.C.k./ l.k.k.k.N.V.z.N.~ $ =.;X>X>X>X>X;X:X:X;X;X;X;X;X;X;X;X>X>X>X>X-X$.3 { { { c.H.H.^ n.B.l.l.~ L ~ R _ ^ C.",
"^ x.l.R l.N.k.k./ / k.k./ ^ l.l.B.P o Q.>X;X;X;X;X;X;X;X:X:X;X;X;X;X;X;X;X;X;X;X>XE.# { c.c.F.c.D.l.k.M.N.^ T Y [ ^ k.k.k.",
"x.R U Y l.C.z.k.L R k.k.k.z.x.z.l.V O {.>X;X;X;X;X;X;X;X;X;X;X;X;X;X;X;X;X;X;X;X>X'.o H { { H.G.M.^ / / ~ U R ] R z.k.Q / ",
"^ [ _ R x.x.^ U F R R Q ^ l.x.l.^ 9 r +X;X;X:X;X;X;X:X;X;X;X;X;X;X;X;X>X;X;X;X>X;XXX; M ~ x.D.S.N.^ { z./ ~ ^ Q k.z.k.! k.",
"R ' x.^ _ R R l.R k.~ R ~ l.z.N.| ` (.-X:X;X;X;X;X;X;X;X;X;X;X>X;X;X;X;X;X;X;X;X;X&Xp 7 ^ N.N.^ B.n.l.v.! Q / M.M.m./ v.C.",
"K K R ~ ~ l.k.z.k.A./ Y R / l.m.| S ].>X;X;X;X;X;X;X;X;X;X;X;X;X;X;X:X;X;X;X;X;X;X;X*.% ~ / z.^ v.M.m.b./ ! m.m.b.! / M.V.",
"[ R ~ ~ Q m.k.k.k.m.~ Y l.l.~ k.L X ~.-X:X;X;X;X;X;X;X;X;X;X;X;X;X;X;X;X;X;X;X;X;X>XW.o T Q ! / ! / | v./ / b.B./ { M.~ l.",
"l.^ k.k.~ ! Q ~ E k.m.E x.R R k.Y  .}.%X-X:X:X;X;X;X;X;X;X;X;X;X;X;X;X;X;X;X;X;X;X>X].. V ~ Q B.M.| ^ / ~ W / M.n.k.R L L ",
"k.k.V.v.Q Q k.Q k.k.k.k.n.m.z.l.Y /.$X$X%X-X:X;X;X;X;X;X;X;X;X;X;X;X;X;X;X;X;X;X;X;X+Xr 9 E Y ! / { _ T / / b.| R E D U E ",
"V.m.v.V.k.k.V.v.k.m.k.k.n.n.z.l.5 +.@X$X$X%X-X:X;X;X;X;X;X;X;X;X;X;X;X;X;X;X;X;X;X;X&Xp 6 E E ! E T ~ [ l.~ | ! Y D R F R ",
"V.n.M.V.Q / k.m.k.l.k.k.l.k.k.R 3 a OX$X$X$X&X-X;X;X;X;X;X;X;X;X;X;X:X;X;X;X:X;X-X:X%Xi 6 ^ M.v.W Q ~ [ ~ Y ~ ~ R D F E k.",
"v.k.V.A.m.l.[ ~ Y F k.R k.k.k.F 8 ; {.$X#X$X$X%X-X;X;X;X;X;X;X;X;X;X;X;X;X;X;X;X;X>X}.= M k.! ! b.W I Y ~ Y T E R F F Y k.",
"! k.V.V.m.^ R F R F R l.k.E k.F A X -.#X$X$X$X#X&X=X;X;X;X;X;X;X;X;X;X;X;X;X;X;X>X=X*.# T / v.m.m.W T ~ | Q / ^ R Y k.R R ",
"! k.V.V.k.x.^ _ R R R k.E l.k.l.F 8 o ,.oX%X%X%X%X&X-X>X>X>X>X>X>X>X>X>X>X>X>X>X$X>.o B l.Q v.m.m.M.! M.v.M.z.l.R R l.l.R ",
"v.k.k.R U U ) ' F x.F k.l.l.l.l.^ _ 8 X a :.W.W.Q.Q.Q.~.^.).).).^.^.^.^.^.^.!.,.i X B ^ R R k.V.A.A.} / ! / n.M.C.l.' R l.",
"k.Q / U D F D D F ) ' l.n.k.k.l.[ ' _ Z 4 # X # # # X X o o o . . o o o o X o o 4 J v.R ' x.C.A.B.B.n./ Q l.N.k.k.N.^ _ l.",
"R R L J P T R L F _ [ z.k.l.k.l.R R [ c.l.F U _ ~ ^ A C Z A A P Z H ( ( A G T E ~ M.v.R R R z.M.^ / B./ / V.m./ l.k.) F ] ",
"' x.[ R L ! ^ ^ ] F U ~ R l.l.k.R U _ l.l.U U U ~ F.' ) ' { ' ~ [ ' } / Y ~ v.v.k.m.m.l.l.^ V.l./ l.Z.m.~ k.V.n.V.l.) _ F ",
"[ R ~ R ~ E ] { z.l.' _ D x.R R D A D R R U F D P ' ' } x.M.x.} / { / Q ! ^ k.! v.N.l.z.C.l.l.l.l.V.z.R L ! n.M.V.l.) ] x.",
"~ ~ ~ Y U ^ } N.V.N.l.' F F F D D U D U U D D U _ [ F.F.x.M.B.| M.| B.v.W ^ E v.k.l.^ l.C.V.l.l.c.B.R D L v.z.l.z.k.' F x."
};
