/* XPM */
static char *player_right_1[] = {
/* columns rows colors chars-per-pixel */
"61 61 222 2 ",
"   c #2C2530",
".  c #372A36",
"X  c #3B2C38",
"o  c #463F2F",
"O  c #412C37",
"+  c #432F3C",
"@  c #453636",
"#  c #463B34",
"$  c #4A3C35",
"%  c #44333B",
"&  c #4B343C",
"*  c #443C3D",
"=  c #4B393B",
"-  c #55353C",
";  c #66373C",
":  c #3B5E0A",
">  c #3E630D",
",  c #3F6610",
"<  c #445517",
"1  c #465A1A",
"2  c #4D5C1C",
"3  c #525D1D",
"4  c #4B6B07",
"5  c #42660D",
"6  c #456A0D",
"7  c #4A6D0C",
"8  c #506907",
"9  c #536F0C",
"0  c #4F7006",
"q  c #4D720D",
"w  c #547507",
"e  c #5B7605",
"r  c #567907",
"t  c #5B7D06",
"y  c #52750B",
"u  c #5B760C",
"i  c #557A0B",
"p  c #597D0A",
"a  c #466413",
"s  c #4B6414",
"d  c #456C11",
"f  c #4C6D11",
"g  c #4C621A",
"h  c #526C14",
"j  c #54631B",
"k  c #58691A",
"l  c #4C7312",
"z  c #4A7616",
"x  c #4E7915",
"c  c #527611",
"v  c #5B7512",
"b  c #537B11",
"n  c #587815",
"m  c #617D0A",
"M  c #617714",
"N  c #454B27",
"B  c #4B4D26",
"V  c #46452C",
"C  c #4A452D",
"Z  c #4B4C29",
"A  c #504F28",
"S  c #4B5323",
"D  c #495622",
"F  c #515625",
"G  c #515527",
"H  c #4A4330",
"J  c #47413A",
"K  c #7B403F",
"L  c #526221",
"P  c #4E3941",
"I  c #523944",
"U  c #533C44",
"Y  c #5A3C44",
"T  c #663A42",
"R  c #773D42",
"E  c #454441",
"W  c #474842",
"Q  c #484C42",
"!  c #584548",
"~  c #495443",
"^  c #4B5C44",
"/  c #56574A",
"(  c #654448",
")  c #794F4D",
"_  c #78514D",
"`  c #4C6446",
"'  c #4D6A46",
"]  c #4C6D48",
"[  c #526849",
"{  c #4E7548",
"}  c #537847",
"|  c #7E6158",
" . c #813F44",
".. c #834344",
"X. c #8C4343",
"o. c #904642",
"O. c #9E4944",
"+. c #89534D",
"@. c #865B54",
"#. c #A94B44",
"$. c #AE5046",
"%. c #BB5147",
"&. c #976959",
"*. c #917456",
"=. c #A7745B",
"-. c #B37150",
";. c #8D7264",
":. c #997664",
">. c #A57966",
",. c #C95548",
"<. c #D05748",
"1. c #D45B49",
"2. c #D95B48",
"3. c #CE6349",
"4. c #C86749",
"5. c #D7644C",
"6. c #E07553",
"7. c #E17D5A",
"8. c #5E8106",
"9. c #5C820B",
"0. c #5F880D",
"q. c #5B8312",
"w. c #5B8716",
"e. c #628505",
"r. c #688504",
"t. c #658A06",
"y. c #698D04",
"u. c #618509",
"i. c #648A0A",
"p. c #698E0A",
"a. c #6D9204",
"s. c #6B920A",
"d. c #719603",
"f. c #709808",
"g. c #608715",
"h. c #618A12",
"j. c #6A9311",
"k. c #689415",
"l. c #588348",
"z. c #578948",
"x. c #58934A",
"c. c #5A9E4B",
"v. c #649847",
"b. c #5BA24B",
"n. c #5EA94A",
"m. c #5FA550",
"M. c #64AB45",
"N. c #67B344",
"B. c #69B945",
"V. c #62B249",
"C. c #65BA48",
"Z. c #77BA4B",
"A. c #63A953",
"S. c #73AE56",
"D. c #78B86C",
"F. c #6BC546",
"G. c #6ECB45",
"H. c #74C947",
"J. c #72D443",
"K. c #79D44B",
"L. c #7CD053",
"P. c #8E9051",
"I. c #A48D50",
"U. c #8BAC4D",
"Y. c #86B945",
"T. c #A5BC5E",
"R. c #918A72",
"E. c #AC826B",
"W. c #B5856A",
"Q. c #B48E73",
"!. c #B59974",
"~. c #AEAC71",
"^. c #D6845B",
"/. c #E2835B",
"(. c #CC926F",
"). c #CC9A77",
"_. c #C49D7C",
"`. c #E28D68",
"'. c #D4A37D",
"]. c #DAA37A",
"[. c #D0AA7C",
"{. c #E4AA7D",
"}. c #87CD52",
"|. c #93CF59",
" X c #86D254",
".X c #8BD255",
"XX c #80D55B",
"oX c #96D15C",
"OX c #99D05E",
"+X c #9DC967",
"@X c #A4CD6D",
"#X c #B1CD77",
"$X c #C0CA7E",
"%X c #A4A797",
"&X c #B8ACAD",
"*X c #DBAC81",
"=X c #DBB686",
"-X c #E4AE82",
";X c #E3B183",
":X c #E8B484",
">X c #E3B688",
",X c #E8B688",
"<X c #E5BB8B",
"1X c #E9BF8F",
"2X c #E9BF90",
"3X c #90C586",
"4X c #A9CA9D",
"5X c #AFCCA3",
"6X c #B4D3AA",
"7X c #B9DAB0",
"8X c #CAC989",
"9X c #D4C485",
"0X c #DEC289",
"qX c #E2C18C",
"wX c #E9C08F",
"eX c #E7C090",
"rX c #EAC090",
"tX c #CED9C6",
"yX c #E2DCD6",
"uX c #E4DED9",
"iX c #E9DFDD",
"pX c #E5E0DB",
/* pixels */
"b q.q.9.8.y.s.i.t.9.9.7 i q q q q 9.r 6 r q d q q q.j.j.u.8.e.t t r.y.r.t w w r e.u.r 9.0.8.7 q q , > , q 8.8.i.h.w.z z x ",
"p 9.9.q.r e.e.9.p t 8.r 9.p 0 8.q i r 8.9.6 6 y i q.0.0.y.e.e.8.r e.y.y.t.w 5 w u j.i.i.t.q 6 q q q > > 6 7 q 9.k.w.z x q.",
"9.y q y w 8.t.8.t 8.y.t.p r p t.8.y y 8.8.0 q q l l q 8.e.8.t t t r.8.e.e.r 0 q i h.i.a.9.y 8.y 8.9.i 0 7 6 r 9.b x z l l ",
"u.r q 7 w 8.y.t.8.8.y.t.9.p 8.8.8.r 9.8.t.t.y 7 7 q 9.8.y.m t e.y.e.t t.8.w 6 q y i 9.u.9.q.d.d.a.8.9.8.w r r 8.9.b q.y i ",
"p t w 4 y w e.y.r.t.t.i.u.i r u.t.8.u.t.t.9.q a s h h c u u e u c c s u n a d z b y y 9.0.0.y.y.t.e.e.t 8.8.8.r 8.0.j.q.y ",
"q r r w y t y.r.y.i.t r r 6 q i 8.t.u.n k 2 N V V V Z G A B A Z Z N V Z N V Z D j g f x q y.s.8.t r 8.t w r 8.8.q.h.j.p q ",
"r t t t t e.e.e.e.u.q 6 y p w.f a k S X @ @ % P E * P X * * % * * * * * P * * X % X D g q y 0.9.r 8.t.t w w 8.8.p 9.j.i.y ",
"e.t y t e.r p t.a.p w p y n n Z # X P E ~ ^ ` ] ] ] ] ] ] ] ] ] ] ] ] ] ] ] ` ` ^ P @ V g l y.0.t.p p t 4 r 9.i.0.q.i y q ",
"t t t 8.r.r w e.y.p 7 y s N # X E ^ ] { x.c.c.c.c.c.c.c.c.b.c.c.c.c.b.c.c.b.c.c.x.] W X Z l p w t.9.q r e r.y.t.i.0.y b i ",
"t t 8.8.e.r.t.r i w f 2 J % E ` { c.c.c.c.b.b.b.b.c.b.b.b.b.b.b.b.b.b.b.b.b.b.b.c.c.{ P @ 1 7 b 9.y.y.a.y.t.e.e.u.9.y p 9.",
"m r 8.m m m e.w 7 f S $ % ~ { x.b.b.b.b.b.b.b.b.b.b.b.b.b.b.b.b.b.b.b.b.b.b.b.b.b.b.x.W @ 3 c y y.a.y.a.d.r.e.e.p p p 9.e.",
"8.t w p m e.e.r 7 1 # % ^ x.b.b.b.b.b.b.b.b.b.b.b.b.b.b.b.b.b.b.b.b.c.b.b.b.b.b.m.A.A.[ * F p p y.a.t 8.d.a.a.8.0 y 8.8.r ",
"t.8.w u.r.u.u p h V X ` x.b.b.b.b.b.b.b.b.b.b.b.b.b.b.b.b.b.b.b.b.b.b.b.b.b.m.S.D.4X5X%XE S y i t.y.8.8.y.a.y.r i 8.8.8.8.",
"s.p y m e.p w u S % Q z.b.b.b.b.b.b.b.b.b.b.b.b.b.b.b.b.b.b.b.b.b.b.b.b.b.m.D.5XtXiXtX%XU Z 9 w 8.t.y.u.y.r.t.y.y.8.8.8.e.",
"p c f p.y.p r 9 V P ] b.b.b.b.b.b.b.b.b.b.b.b.b.b.b.b.b.b.b.b.b.b.b.b.b.m.D.&XuXiXiXyX&XI C u t a.t r u r p 9.8.y.e.9.q t ",
"9.y q p.p.p.y.k @ J } b.b.b.b.b.b.b.b.b.b.b.c.b.b.b.c.b.b.b.b.b.b.b.b.b.S.6XyXiXiXiXyX&X! Z u y 8.w i p 9.q.q.e.y.9.r 9.8.",
"m y 7 c p y.s.k X ^ x.b.b.b.b.b.b.b.b.b.b.b.b.b.b.b.b.b.b.b.b.b.b.b.b.n.3XtXpXpXpXpXpX&X! @ H V 2 g v y q y i.d.u.r t.u.8.",
"u.u.y 7 c 9.g.F % ] b.b.b.b.b.b.b.b.b.b.b.b.b.b.b.b.b.n.b.n.b.b.n.b.b.A.3X6X7X7X7X7X7X4X/ J W J @ @ V 1 a y y.i.p r y.u.9.",
"t y y y b b n F P ] c.b.b.b.b.b.b.b.c.b.b.b.n.n.n.n.V.V.C.C.F.F.G.G.G.G.L.L.XXXXL.L.L.L.B.N.N.v.{ Q * # N l y u p u.i.i.9.",
"p u w q.g.w.b F X ' b.b.b.b.b.n.b.b.n.n.V.C.C.F.G.G.G.G.J.G.J.J.J.J.G.J.J.J.J.J.K.J.J.G.J.J.J.J.F.N.z.W @ g c c i 0.0.s.9.",
"i 9.i q.w.b y S * ` b.b.n.n.n.V.C.F.G.G.G.G.G.J.J.J.J.J.J.J.J.J.J.J.J.J.J.J.J.J.J.J.J.J.J.J.J.J.J.J.F.} % D 7 7 f b 9.u.y ",
"q y 4 y y y i D % ^ c.V.C.F.F.G.J.G.J.J.J.J.J.J.J.J.J.J.J.J.J.J.J.J.J.J.J.J.J.J.J.J.J.J.J.H.G.H.F.B.A.G * L 7 q b i p p q ",
"y q 7 y 9.e.8.j $ ^ M.G.J.J.J.J.J.J.J.J.J.J.J.J.J.J.J.J.J.J.J.J.K.K.K.K.L. X X.XXX.X}.N.v.x.z.z.} ` / * Z k y l q.w.q.b b ",
"y l 7 l e.t.r.M C ~ x.F.F.G.F.F.F.C.C.V.B.M.N.N.Z.}.|.|.oXoXoXoXOX@X@X@X#X8X8X8X8XqX!./ J J * J J * H A h b c c i w.q.p b ",
"0.y w r y.a.y.u.G % ~ } l.l.l.l.{ ` ^ ~ ~ W W ! R.{.0X0XqX0XqXqX<X=XqXqXqXeX1XeX2XrX_.U @ B S A S k k e i l b w y i q 9.0.",
"y.9.p t e.y.t.u.j % % & % P P % P + + P % % X ( (.qXwXwXwXwX<X).Q.*X1X2X2X2X1X2X2XrX_.! C M t 7 9 u.p w i y i p 9.9.9.9.9.",
"i.0.q q w t e.r S % + + % + + + X U _ | | | ) &.].wXwXwX1X1X'.@.I @.*X2X2X2X2X1X2XrX_.U H u w 6 7 q q q q q p 9.r 0.t.8.9.",
"0.u.r 7 i 0.9.q S % + + + + + + P &.).=X<X=X].].<XwXwXwX1X1XW.! + Y Q.2X2X2X1X1X2XrX_.! C v 5 6 6 7 q q 6 7 9.e.9.a.d.8.r ",
"9.8.r 6 c p p y 3 % + + + + + + _ ).1X1X2X1X1X1X1X1X1X1X1X<X:.% + P E.2X2X2X2X2X2XrX_.! @ S 1 6 7 q 6 q l l 9.p t.t.8.8.i ",
"8.y r i y l q q.F + + + + + + I Q.1X1X1X2X1X1X1X1X1X1X1X1X1XE.Y + I Q.2X2X2X2X2X2XrX*X&._ - N a l y l q q q 6 l y y 8.a.r ",
"9.9.8.t.i q q q.k % + + + + + U !.2X1X1X1X1X1X1X2X1X1X1X1X1X'.@.I @.*X2X2X,X2X2X<X<X>X*X(.@.@ D x l l 6 d 6 6 q 6 q r 9.9.",
"9.r 9.0.9.9.y i j $ + + + + + U >.,X1X1X1X1X2X1X1X1X1X1X1X1X1X_.>._.>X;X'.(.Q.E.>.(.*X1X<XE.P Z x d l y q > 6 6 6 , 7 q z ",
"0.9.8.s.i.9.8.e.l o + + + + + P @.).wXwXwXwX1XwX1X1XwX1XwXwX1X1X1XwX].>.) ) T Y I ) >.*X*X>.P V l 9.9.a.r z d > d l x z q.",
"9.p.f.s.q.9.8.9.f V + + + & I ) =.].wXwXwXwX1X1X1X1X1X1XwXwX1XwX1X].*.U + + % + + O Y | @.( * D q 9.9.e.a.s.q.l d x z z q ",
"q.0.i.0.9.q 9.9.f N I +.&.=.W.).{.<XwXwX1X1X1XwX1X1XwX1XwXwXwXwX1XE.( + + + + + + + + + % H S v t.8.8.9.y.p.0.w.x b c q 6 ",
"l x q.0.q , 9.8.f N Y >.*X;X,X2XwXwXwXqX1XwX1X1X1XwX1X1XwXwXwXrX<X&.I & + + + % O + + + @ S f r r 0.t.t.s.t.i.i.q.0.y 6 6 ",
"9.q.9.i.9.r 9., 5 D = &.-X2X2X2XwXwXwXwX<XwXwXwX1XwXrXwXwXwXrXrX1X_.=.@.( Y U U I P + % # j w 7 q 8.t.d.a.t.u.u.u.i.9.i y ",
"9.9.8.0.a.9.q.9.5 1 o ( >.:X,X,X,X:XqXqXqX0X0XqX0X=X,X:X,X,X=X0XqX=X[.[.!.!.!.~.R.v.E % B c q a , b w.t.9.0.9.p t.p.9.t.y.",
"9.8.i.0.0.q.q , 6 6 V % +.6.7.7.7.^.T.oX|.oXoXoXoXT.^.7.7./.^.~.oXoXoXOXoXoXoXoX.XH.` # D q.q.d d x w.q.y 9.0.0.0.0.8.t.0.",
"9.r 8.0.q.9.9.q y f B P #.2.2.2.5.-.Y.J.J.J.K.J.J.K.U.5.2.2.5.I.Z.H.J.J.J.J.J.K.J.J.v.E Z x q.z d l x q y 9.u.u.9.p 8.t.8.",
"8.9.t.0.y 9.9.p i f Z T $.2.2.2.3.P.Z.J.L..X.X.X.XK.U.4.2.2.2.1.-.U.H.G.J.J.J.J.J.J.N.W H z g.w.x q 9.0.p i 9.i q 7 y q i ",
"w 9.u.9.9.9.t.8.p k C R ,.2.2.2.4.P.H.oX$X9X9X0X8X#XU.=.1.2.2.2.<.4.I.U.Z.H.G.J.J.J.F./ J k k.k.k.p t.t.0.b y q y q q r t.",
"p p p q 9.y.8.8.p 3 # X.<.2.2.2.3.P.+X9XqX1X1X1XrXqX~.I.1.2.2.2.2.2.1.4.-.I.P.Y.Y.}.U.G J L w.w.h.9.9.8.e.r 9 7 x i 9.8.8.",
"b x 6 q 9.i.0.p 7 1 $ X.<.2.2.2.3.W.=XwX1X1X1X1XrXrX{.^.2.2.2.2.2.2.2.2.2.<.<.3.3.5.%.K = D k.k.0.r p 9.q 6 q l y 8.8.r 9.",
"9.y l q p q.p q 6 1 @ o.<.2.2.2.2.7.:XwX1X2X1X1XrXrX:X/.2.2.2.2.2.2.2.2.2.2.2.2.2.2.<.X.$ L j.f.i.p b 0.p y w p 9.u.e.9.t.",
"q l i y l l l p y 3 @ X.<.2.2.2.2./.:X1X1X1X1X1XrXrX{.6.2.2.2.2.2.2.2.2.2.2.2.2.2.2.<.X.$ L g.9.i.i.9.e.t p m u.u.i.t 9.t.",
"6 6 q y w p 9.e.e.M $  .,.2.2.2.5./.:XrX1X1X1X2XwX>XW.#.#.%.2.2.2.2.2.2.2.2.2.2.2.2.,...$ j 9.r e.e.y.t.r p r.y.i.u.t u.s.",
"w q w i r y.9.r 8.M o ; %.2.2.2.2.6.-XrX1XrX1X1X=X>.! X O ; #.<.2.2.2.2.2.2.2.2.2.2.%.; $ k p p t t m e.t r e.y.p c u.y 9.",
"b p 8.p w t r w w m 3 - O.2.2.2.2.5.`.1XrX1X;X_.;.P         - #.<.2.2.2.2.2.2.2.2.2.#.- $ h r i.u.t w p c u r t.t.9.0 0 4 ",
"e.e.y.y.r r t r r e.3 @ ; %.2.2.2.2.5./.(.>.@.( .             ; %.2.2.2.2.2.2.2.<.,.R & B 9 0 t p i q 7 u p e.e.0 0 , 6 y ",
"y.y.t.a.8.t.a.r.8.a.u B - ; O.o.o.o.o.o.) X                     ; o.o.o.o.o.o.o.o.; & o s y y t w w 4 b p w t t 6 6 , , 0 ",
"y.y.e.t.y t 8.y.r 8.t.h G @ % % & + + + .                       . O @ O @ + % + + $ A k w e m r.e u y y y q w w 0 6 , r 8.",
"e.e.a.d.y.9.y q 6 6 y y y 2 D , N D N @ X                       . # V < 3 3 3 k 3 k u 9.9.8.8.8.r.e 4 7 q 4 y w q , , q 8.",
"t 8.a.a.y.i l 6 7 7 y p t w y q d d a V @ X .               . . O N < 4 m m m r.t r 9.w.8.r 8.y.y.u 8 y p t p y q 7 r w 0 ",
"r 8.y.a.9.i x q q l y r t u.9.8.6 , d 1 V @ + X X . . X X X + @ A s 5 5 0 w 0 m 8.p i.w.i r 8.y.y.e.p 9.e.e.u.9.i q 9.9.q ",
"e.8.e.q 7 6 d q l q l p 9.e.8.q.q.q f 5 a 2 G H @ @ & @ % # A 3 e m q 7 4 5 0 e 9.y.a.i q y 8.y.d.a.p p 9.p u.i.0.9.l q 8.",
"8.r p 6 > 5 > > 6 d l 0.8.8.8.8.q l l q l 7 9.p n k g g 1 1 u u.4 y y f d : 4 w i u.t.q l q.p.d.y.i.t.9.r 9.t.9.0.t.i q q.",
"q y 0 5 5 q 0 6 > d x 8.8.8.8.9.0 q x q.q.i 9.q.j.j.q 5 6 6 q i 6 7 c n 7 7 t t r 9.e.q 7 l 0.t.p p y.p p a.y.p 9.r 6 , l ",
"l b q 0 0 r p y l q 7 y r 9.9.8.0 > q 9.9., l 7 c q.7 6 l c f c y f b b 7 w 8.e.8.y.i.9.9.9.y.0.p 9.s.t.q 8.a.e.t.0.d d , ",
"b q y q q r l x 0.b q d , x q 6 > : > q q , > > 6 y z b q.u.q.p p b p p w p 8.8.e.t.0.u.y.9.8.9.u.s.0.q 0 t t.e.a.9.l z q.",
"y 9 y 7 6 p q.i.s.0.y x d 6 , > > 6 , 6 6 > > > f l g.h.w.u.p.9.u.p y.e.e r r 8.0.9.y 9.y.p.8.q.0.u.x > 0 e.9.0.0.8.q l x "
};
