/* XPM */
static char *player_left_2[] = {
/* columns rows colors chars-per-pixel */
"61 61 219 2 ",
"   c #2C2631",
".  c #332834",
"X  c #342935",
"o  c #3C2D39",
"O  c #3F3039",
"+  c #462D37",
"@  c #432F3C",
"#  c #433537",
"$  c #453B34",
"%  c #493D34",
"&  c #44333B",
"*  c #4A333D",
"=  c #443C3D",
"-  c #4B393A",
";  c #57343B",
":  c #6C383B",
">  c #3B5E0A",
",  c #3E630D",
"<  c #3F6610",
"1  c #444E1F",
"2  c #48561D",
"3  c #4C5C1C",
"4  c #545D1E",
"5  c #4C6C07",
"6  c #42660C",
"7  c #4B6608",
"8  c #456A0D",
"9  c #4A6D0C",
"0  c #546F0C",
"q  c #4F7006",
"w  c #4D720D",
"e  c #547506",
"r  c #5A7605",
"t  c #577907",
"y  c #5B7D06",
"u  c #52750B",
"i  c #5C750D",
"p  c #557A0B",
"a  c #597D0A",
"s  c #486414",
"d  c #446B11",
"f  c #4A6C13",
"g  c #4C621B",
"h  c #536E13",
"j  c #5A6D16",
"k  c #55631C",
"l  c #58641A",
"z  c #53691B",
"x  c #5A6A1A",
"c  c #4C7312",
"v  c #4D7815",
"b  c #527411",
"n  c #5B7513",
"m  c #597715",
"M  c #547B11",
"N  c #627E08",
"B  c #627913",
"V  c #4B4D27",
"C  c #45442C",
"Z  c #4B452D",
"A  c #474B28",
"S  c #4B4C29",
"D  c #504F28",
"F  c #4B5423",
"G  c #495425",
"H  c #4E5B21",
"J  c #515524",
"K  c #525B22",
"L  c #4A4232",
"P  c #47413D",
"I  c #586120",
"U  c #4D3840",
"Y  c #523944",
"T  c #533C44",
"R  c #5A3C44",
"E  c #6F3C43",
"W  c #454441",
"Q  c #484A42",
"!  c #554749",
"~  c #495443",
"^  c #4B5C44",
"/  c #56574A",
"(  c #674447",
")  c #774B4B",
"_  c #79534E",
"`  c #4C6446",
"'  c #4D6A46",
"]  c #4C6D48",
"[  c #537847",
"{  c #7E6158",
"}  c #803F3C",
"|  c #85413D",
" . c #844343",
".. c #8C4343",
"X. c #904542",
"o. c #9A4743",
"O. c #89534D",
"+. c #875B54",
"@. c #AA4C45",
"#. c #BA5146",
"$. c #966859",
"%. c #A6725E",
"&. c #B37050",
"*. c #977464",
"=. c #A67764",
"-. c #C95548",
";. c #D05748",
":. c #D35B49",
">. c #D95B48",
",. c #CA6749",
"<. c #D36249",
"1. c #DC634B",
"2. c #DE6D4E",
"3. c #DB6F52",
"4. c #E17B59",
"5. c #5E8106",
"6. c #5C820B",
"7. c #5F880D",
"8. c #5A8311",
"9. c #5A8716",
"0. c #628505",
"q. c #688505",
"w. c #658A06",
"e. c #698D04",
"r. c #61850A",
"t. c #648A0A",
"y. c #698D09",
"u. c #6D9204",
"i. c #67910E",
"p. c #6B920A",
"a. c #719603",
"s. c #719807",
"d. c #618813",
"f. c #6A9211",
"g. c #588348",
"h. c #578948",
"j. c #58934A",
"k. c #5A9E4B",
"l. c #649847",
"z. c #5BA24B",
"x. c #5EA94A",
"c. c #5FA550",
"v. c #64AB45",
"b. c #67B344",
"n. c #69B945",
"m. c #62B249",
"M. c #65BA48",
"N. c #77BA4B",
"B. c #63A953",
"V. c #78B86C",
"C. c #6BC546",
"Z. c #6ECB45",
"A. c #75C947",
"S. c #72D443",
"D. c #78D44A",
"F. c #7CD053",
"G. c #96904D",
"H. c #A78D55",
"J. c #92A747",
"K. c #88B746",
"L. c #8BB14E",
"P. c #A6BC5D",
"I. c #918A72",
"U. c #AB826C",
"Y. c #B5846B",
"T. c #B48E73",
"R. c #B59974",
"E. c #ABA96C",
"W. c #D6865C",
"Q. c #CB9372",
"!. c #C49E7C",
"~. c #CC9C78",
"^. c #E38D67",
"/. c #E5996F",
"(. c #CCA67A",
"). c #D4A37D",
"_. c #DAA37A",
"`. c #D6B87F",
"'. c #E6A376",
"]. c #E4A77B",
"[. c #87CD52",
"{. c #93CE5A",
"}. c #83D251",
"|. c #8BD256",
" X c #80D55B",
".X c #96D15C",
"XX c #99D05E",
"oX c #9DCE65",
"OX c #A4CD6C",
"+X c #B5CC79",
"@X c #C6C67C",
"#X c #A4A797",
"$X c #B8ACAD",
"%X c #DAAB81",
"&X c #DBBD85",
"*X c #E1AE82",
"=X c #E4B284",
"-X c #E8B585",
";X c #E4B688",
":X c #E8B688",
">X c #E5BB8B",
",X c #E9BF8F",
"<X c #EABF90",
"1X c #90C586",
"2X c #A9CA9D",
"3X c #AFCCA3",
"4X c #B4D3AA",
"5X c #B9DAB0",
"6X c #CAC989",
"7X c #DDC289",
"8X c #E2C18C",
"9X c #E9C08F",
"0X c #E7C090",
"qX c #EAC090",
"wX c #CED9C6",
"eX c #E2DCD6",
"rX c #E4DED9",
"tX c #E9DFDD",
"yX c #E5E0DB",
/* pixels */
"M 8.6.6.5.y.p.t.t.7.5.w p w q w c 6.t 8 t w d w w 8.i.f.r.5.0.y 5.q.e.q.5.e q t q.7.u 6.5.6.8 q w 8 , 8 9 5.7.7.f.9.v v v ",
"a 6.8.6.t 0.r.5.t y 5.e 6.t w 6.w p e 5.6.8 w w w 8.7.w.y.0.q.5.t 0.e.q.w.e 8 q a f.t.w.p.u 8 w d w < , 8 5 q t 9.9.v v 8.",
"6.u c u e 5.w.5.y 5.y.0.6.t 5.w.5.w u 5.5.q w w w d p 6.0.5.t y y q.5.y 5.y q w p d.t.u.8.t 5.p 6.6.u u 5 8 t 8.m M v c c ",
"r.t w 9 e 5.y.w.5.5.e.w.6.t 5.5.5.6.6.5.w.w.q w w w 8.6.e.N y 0.e.0.y e.5.q w w M p 6.r.t 8.u.u.u.7.5.5.e y t 5.6.M 8.p p ",
"t y e 5 u u q.e.e.0.w.e.r.p t 0.w.5.t.r.5.a f s f z h b i r N i M h s B m s d c p u p a r.r.p.e.e.5.0.y y 5.y y 7.7.f.8.c ",
"w t t u u y e.q.e.t.6.e t 8 w t 5.e.6.j k K G C C C S G D V D Z S C A S S A A g z f f c p t.u.6.y t 5.y e y 5.5.6.d.i.M w ",
"t y 5.y y 0.0.0.w.5.w 8 u 8.8.w w z F $ & & & U U = U O = = = & = = = = = = o O # % V G g c r.7.t 5.e.y w e 5.7.a 8.p.t.w ",
"0.5.q y 0.t t e.u.y e t u 8.d.u > C & U ~ ` ` ] ] ] ] ] ] ] ] ] ] ] ] ] ] ' ] ^ ~ W & # O G n i w.p y y 7 r 6.w.r.6.M p w ",
"y y y 5.q.t e 5.e.t w p y u 5.a C & W ] j.k.k.z.z.z.z.k.k.z.k.k.k.k.k.z.k.k.k.k.j.[ ] ^ W O $ G n p w y r 0.e.w.y.6.p v a ",
"y y 5.5.N e.e.t t p w a w.q.6.z P = ] k.z.z.z.z.z.z.z.z.z.z.z.z.z.z.z.z.z.z.z.z.k.k.z.j.[ ` W = Z x r.u.e.e.q.5.0.8.p t t ",
"y y 5.N N N q.u q w t q.0.5.6.4 O ~ j.k.z.z.z.z.z.z.z.z.z.z.z.z.z.z.z.z.z.z.z.z.z.z.z.z.z.k.[ P U L l q.a.q.0.0.6.t t 7.e.",
"y y t t r 0.0.y q 8 w 5.y 5.r.F = ] B.B.z.z.z.z.z.z.z.z.z.z.z.z.z.z.z.z.z.z.z.z.z.k.z.z.z.z.z.h.^ & $ x u.u.u.y w e y 5.e ",
"w.r.u q.q.r.t a p w w y 0.5.u V U #X#X2XV.V.z.z.z.z.z.z.z.z.z.z.z.z.z.k.z.z.z.z.z.z.z.z.z.z.z.z.h.^ = C m u.e.t t 5.5.w.5.",
"f.a u r.N y u y q 5 8 5 9 8 6 C ! #XeXeXwX3XV.c.k.z.z.z.z.z.k.z.z.z.z.z.z.z.z.z.z.z.z.z.z.z.z.z.z.h.~ O 4 r.e.y.e.w.5.5.0.",
"a b c w.e.a y y e 6 > , 6 9 8 C Y $XeXrXyXyX4XV.z.z.z.z.z.z.z.z.z.z.z.z.k.z.z.z.z.z.z.z.z.z.z.z.z.k.] O Z h 6.0.e.w.p w t ",
"N b w t.y.w.w.q.r 7 9 w w a h C Y $XtXrXyXyXeX2XV.z.k.z.z.z.z.z.z.z.z.z.z.z.z.z.z.z.z.k.z.z.z.z.z.z.g.W % k 6.r.w.5.t 6.5.",
"y b 0 M M u.u.w.q.e b j J D L # T $XyXyXyXyXyXwX1Xc.z.z.z.z.z.z.z.z.z.z.z.z.z.z.z.z.z.z.z.z.z.z.z.z.k.^ & H y.s.r.p q.0.5.",
"q.r.u 9 w r.d.d.r.x S L % - Q Q / #X5X5X5X5X5X5X1XB.x.x.z.x.z.z.z.z.z.z.z.z.z.z.z.z.z.z.z.z.z.z.z.z.k.` & J r.w.a t w.6.t ",
"y u u u M M 8.a I % % Q [ l.b.b.M.F.F.F.F. X XF.F.Z.Z.Z.C.C.C.M.M.m.m.v.x.z.x.z.z.z.z.z.z.z.z.z.z.z.z.' & A h u 6.0.p.y.6.",
"a a u M d.d.a z % Q g.m.C.S.S.S.S.S.D.D.S.S.S.S.S.S.S.S.Z.S.S.S.S.Z.Z.Z.Z.C.M.M.m.x.x.x.z.z.z.z.z.z.k.' U G b M p 8.8.p.7.",
"b 7.u 6.8.M u F & I Z.D.S.S.S.S.S.S.S.S.S.S.S.S.S.S.S.S.S.S.S.S.S.S.S.S.S.S.S.S.Z.Z.C.C.M.m.x.z.z.z.z.` & G 9 9 w M a r.p ",
"w u 9 u u p p H - ` B.C.Z.Z.Z.Z.S.S.S.S.S.S.S.S.S.S.S.S.S.S.S.S.S.S.S.S.S.S.S.S.S.S.S.S.S.Z.Z.C.M.m.k.^ # H 9 w M p a a v ",
"M w 9 w a r.r.j Z = ~ ` [ h.j.h.c.b.[.|.|.|.|.}.F.D.D.D.D.S.S.S.S.S.S.S.S.S.S.S.S.S.S.S.S.S.S.S.S.S.x.^ $ z b u M d.8.M p ",
"w w f u 7.e.q.w.n A $ = % P - P W / R.7X6X6X6X6X+XOXOXOXoXXXXX.X{.|.{.{.N.b.v.v.b.n.n.n.C.C.C.Z.C.C.k.P L z c M p 9.8.8.p ",
"7.u p t e.e.e.e.y.a 3 2 F J D A # ! !.qX0X0X0X>X8X8X8X8X8X&X&X>X&X8X7X&XI.! Q Q ~ ^ ^ ` [ g.g.g.g.[ ~ * A f M u u 8.w 8.7.",
"e.5.a t 0.e.w.w.e.7.u u p q.y b C R !.qX<X<X0X<XqXqX>X).R.%X>X0X<X<X<X,XQ.( o O @ o U & U & U & = & @ & F u p 6.6.6.t 6.5.",
"t.7.w w e 7.5.t t w w a t a w.y C T !.0X<X<X<X<XqXqX).+.T +.).<X,X,X,X,X_.$._ { { { _ Y o o @ @ @ @ @ @ G w a 5.t 5.w.5.6.",
"7.r.t 9 t 6.6.u w w w t 6.t e.i L T !.0X<X<X<X<XqXqXT.R @ R U.<X,X,X,X<X;X_.).*X>X;X~.+.U U @ @ @ @ @ & G 8 6.0.5.u.u.7.p ",
"6.5.t 8 c p t p t t 0.0.e.r 0 J $ R !.<X<X<X<X<X<X<XT.U @ @ *.<X<X,X,X,X,X,X,X,X<X<X>X!.+.& @ @ @ @ @ @ G w t 6.p.w.5.5.t ",
"5.p u e p c w 8.5.5.e.e.w.0 S * ( $.%X<X<X<X<X<X,X<XT.R @ R U.<X,X,X,X,X,X,X,X,X<X<X<X>XY.Y @ @ @ @ @ @ G w 8 c q v 5.e.6.",
"5.6.7.w.p w w 6.w.e.7.e.q.k - ) =.%X>X>X<X<X>X>X,X,X).+.Y +.).<X<X,X,X,X,X,X,X<X<X<X<X<XR.Y @ @ @ @ o @ G 8 8 w 8 q e 5.6.",
"5.p 6.7.6.8.u p 7.6.y q.q.J ; =.:X>X%XQ.=.Y.Y.Q.).=X:X!.=.!.>X<X,X,X,X,X,X,X,X<X<X<X<X>XU.U @ @ @ @ U & < , 8 8 8 < w c v ",
"7.6.5.p.i.6.6.5.5.6.6.5.5.F - %._.%X=.( Y R E ( +.=._.,X,X,X,X,X,X,X,X,X,X,X9X,X9X,X>X).+.& @ @ @ @ @ % 4 w d d d c v f v ",
"6.y.s.p.6.6.6.5.6.q q 5.5.g % ( _ +.R U @ @ @ @ @ Y $.%X,X,X,X,X,X,X,X,X,X9X,X,X,X,X9X_.%.) ; * * @ @ % B p.M b c v c v w ",
"8.7.i.7.6.w 6.6.q w 5.6.w.n 4 L @ @ U o @ @ @ @ @ @ ( U.,X,X9X9X9X,X,X9X,X,X,X9X9X,X9X>X*X~.U.%.$.O.T S r.y.d.8.v M c c w ",
"w v 8.6.w < 6.5.< w w 5.5.a r 4 @ o o U @ @ @ @ @ * Y *.>X9X9X9X,X,X,X,X,X9X,X9X,X,X,X9XqX9X>X=X*X=.R K y.t.w.d.8.7.w w 6 ",
"8.8.8.w.5.8.6.< , c t 6.6.y t z L U o U T W T T R +.%.~.,X,X9X9X9X9X9X9X9X9X9X9X,X,X9X9XqX9X9X9X*X$.; I y.w.r.t.w.r.6.p q ",
"6.8.5.7.e.6.8.6.8 8 q 5.0.0.5.n J # W l.E.R.R.R.R.(.`.8X7X>X>X:X;X;X:X:X8X8X7X8X7X7X7X7X>X;X;X=XY.( L m 6.7.6.6.t.y.6.w.u.",
"5.5.7.5.7.8.w < w 8 w a 5.t.w.y F - ` C.|.{.XX.XXXXX.X.X{.E.W.4.4.4.4.W.P..X.XXX.X.X{.{.E.W.4.4.O.* J c u 6.6.8.t.5.5.w.7.",
"6.5.5.7.8.6.6.w c w a 6.6.t u b S W l.Z.S.S.S.S.S.S.S.D.N.H.,.>.>.1.<.G.A.S.S.S.}.}.}.}.L.,.>.:.o.U G c u 6.t.6.7.p 7.w.5.",
"5.5.t.6.p 6.6.t p u w.t.6.6.6.M Z Q b.S.S.S.S.S.S.Z.A.J.&.:.>.>.>.>.1.J.S.S.}.oX@X@X@X@XP.H.:.>.#.E S m M a r.p w w u w 6.",
"e 6.t.6.t 7.t.5.p 6.t 5.6.t.p.z L ^ n.S.S.S.C.N.N.J.G.,.:.>.>.>.>.>.<.J.S.}.+X7X<X<X,X,X7X(.3.>.-.E L n 8.p u 9 w w w t 5.",
"p 8.p w 6.t.5.5.5.5.5.5.a M a z L / J.K.K.K.J.G.,.,.<.>.>.>.>.>.>.>.<.G.A.OX7XqX<X,X,X<X<X:X^.>.;...L z q.p 5 9 v p 6.5.5.",
"M c w q 6.y.7.6.8 q 6.5.5.7.m K P  .#.,.,.,.;.<.>.:.>.>.>.>.>.>.>.>.>.&.L.@X,X<X<X<X,X,X<X<X'.2.;...% k w w u c u 5.5.y 6.",
"6.p f w p 8.p q 8 w u p t n H L - ..;.>.>.>.>.>.>.>.>.>.>.>.>.>.>.>.>.<.H.@XqXqX,X<X,X,X<X<X'.2.;...& D h u a u 6.w.7.t 7.",
"w c p p w c v a w t u 9 b H # o + E -.>.>.>.>.>.>.>.>.>.>.>.>.>.>.>.>.>.3.].qXqX,X,X,X,X<X<X].2.;.} @ # S h a 0.w.r.a 5.w.",
"8 9 w u u 6.6.w.w.u.y 9 3 % o X . ; -.>.>.>.>.>.>.>.>.>.>.>.>.>.>.>.>.>.1.^.-X,XqX,X,X<X,X,X/.1.#.: . o # J q.e.q.r.y r.i.",
"u q w p t e.6.t 5.e.t w G & X     + @.>.>.>.>.>.>.>.>.>.>.>.>.>.>.>.>.>.>.2.^.'.'.'.'.'.'.^.2.>.@.+     o Z n y.a M y p 6.",
"a t y y t y t u e e.e.t V o X     o o.;.>.>.>.>.>.>.>.>.>.>.>.>.>.>.>.>.>.>.1.1.2.2.2.2.2.1.>.>.| .     o % h q.w.6.9 5 5 ",
"r.r.u.w.t t y t y 0.y e K $ X       ; o.:.>.>.>.>.>.>.>.>.>.>.>.>.>.>.>.>.>.>.>.>.>.1.>.>.:.;.#.: .     o C i y q 9 < 5 q ",
"u.w.e.u.5.5.u.q.5.u.5.y B Z o X       ; : } } } } ....X...X.X.X.X.X.X.| X.X.X.X...| | | | | } ;       o # F a r < q < , q ",
"e.e.0.w.p y 5.e.t 5.0.a y H $ o .       .   . . . o @ & & & @ & & & * & @ * & * o .                 . + Z s u e q 5 < 5.w.",
"0.5.e.a.u.t p w 8 8 u p y u g O O .             . o $ J 2 2 2 3 l 4 2 1 4 4 4 D + .             . o & L 3 5 0 e w < < < 5.",
"y 5.u.u.e.p c 8 9 w u t y t w 2 $ o o . .       . o J q.y 5 5 t r 5 6 7 y y N l # o         . o o # C 3 a r p t u 9 e 6.q ",
"y 5.u.u.6.6.M w d c p t y 6.6.6.2 C # o o o . + @ % z q.q.y e y 0.5 7 8 e q 5 0 Z & o o X o o # Z 4 h a 0.0.7.6.u w 8.6.w ",
"w.5.0.q 8 < d c w c w 6.5.5.5.6.u f 2 A $ $ # # L l y y q.0.0.q.0.0.9 9 9 6 5 r z S $ & & $ D x B y.a a 6.a w.r.t.6.w w 6.",
"5.p t 8 , , , , < < w 6.5.5.5.6.u w c f s g j m n r.8.t w 5 0.r.5 u u 9 8 > 8 t u n n 3 g z d.u.u.e.r.6.p 6.w.6.6.7.p w 6.",
"q w q 8 8 q q w < c v 7.5.6.5.6.w u v 9.8.w 8.8.p.f.8 6 6 8 w p 8 8 M m 9 9 y y t r.0.w w v 7.w.a 6.e.a t e.e.5.5.6.8 < d ",
"c M w q 5 t t p c d w u w 6.5.6.w 8 w p 6.8 c 8 M 8.w 8 c m c c u c M b 9 u 5.q.5.e.e.8.6.t p.7.t 6.p.w.p 5.u.w.u.7.8 d v ",
"v w p w w p c M 7.6.w < < 8.w 8 , > , q w < , < 6 c c M 8.r.8.a a M 6.t t t 5.y w.5.7.r.u.6.t 5.7.s.6.w 5 y w.0.u.8.d v v ",
"u 0 u 9 5 p 8.d.p.7.6.w < d < , , 8 6 6 8 < , 6 f M 9.d.8.q.y.6.N 6.e.0.e y u 0.5.6.p 6.t.p.5.8.8.t.v 6 5 0.6.7.7.6.w d 8."
};
