/* XPM */
static char *player_left_1[] = {
/* columns rows colors chars-per-pixel */
"61 61 224 2 ",
"   c #2C2530",
".  c #352935",
"X  c #3C2C39",
"o  c #413C2F",
"O  c #4C2E36",
"+  c #432F3C",
"@  c #443636",
"#  c #463B34",
"$  c #4A3E35",
"%  c #44333B",
"&  c #4B343D",
"*  c #443C3D",
"=  c #4C3B3B",
"-  c #56363A",
";  c #6D3B3F",
":  c #3C5C0D",
">  c #3E630D",
",  c #3F6610",
"<  c #45591A",
"1  c #46591C",
"2  c #4B5B1D",
"3  c #525C1F",
"4  c #42660D",
"5  c #456A0D",
"6  c #4C6808",
"7  c #4A6D0C",
"8  c #536D0A",
"9  c #4D720D",
"0  c #547506",
"q  c #5A7605",
"w  c #577907",
"e  c #5B7D06",
"r  c #52750B",
"t  c #5C750D",
"y  c #557A0B",
"u  c #597D0A",
"i  c #486415",
"p  c #456C11",
"a  c #4B6D12",
"s  c #4C631A",
"d  c #546C14",
"f  c #5A6D16",
"g  c #576619",
"h  c #53631C",
"j  c #556B1B",
"k  c #5A6C19",
"l  c #4C7311",
"z  c #4D7815",
"x  c #527411",
"c  c #5C7512",
"v  c #547B11",
"b  c #5A7A12",
"n  c #617D0A",
"m  c #627914",
"M  c #474B27",
"N  c #4A4E27",
"B  c #45432C",
"V  c #49452D",
"C  c #4C4B2A",
"Z  c #504F28",
"A  c #4C5324",
"S  c #4D5922",
"D  c #4E5028",
"F  c #535724",
"G  c #545C22",
"H  c #4A4232",
"J  c #47423A",
"K  c #526222",
"L  c #4A3C41",
"P  c #543942",
"I  c #523C46",
"U  c #5B3C44",
"Y  c #663A41",
"T  c #763D42",
"R  c #454341",
"E  c #474A41",
"W  c #494B42",
"Q  c #594147",
"!  c #564549",
"~  c #475143",
"^  c #495443",
"/  c #4A5B44",
"(  c #5A5C4B",
")  c #684447",
"_  c #7B4A4A",
"`  c #79514D",
"'  c #7A5A52",
"]  c #4B6346",
"[  c #4C6A46",
"{  c #4C6F48",
"}  c #516843",
"|  c #4F7648",
" . c #527646",
".. c #567D47",
"X. c #557051",
"o. c #813F44",
"O. c #824141",
"+. c #8B4646",
"@. c #984744",
"#. c #885B53",
"$. c #AB4C46",
"%. c #B34E46",
"&. c #886459",
"*. c #96685A",
"=. c #9B755C",
"-. c #BB6C4D",
";. c #A37353",
":. c #A67659",
">. c #906D60",
",. c #9B7965",
"<. c #A57966",
"1. c #B47C64",
"2. c #C35648",
"3. c #CD5648",
"4. c #D45B48",
"5. c #D95B48",
"6. c #CA6649",
"7. c #D26349",
"8. c #DA644B",
"9. c #D46E55",
"0. c #DC7957",
"q. c #E17957",
"w. c #5E8106",
"e. c #5C820B",
"r. c #5F880D",
"t. c #5B8311",
"y. c #5A8716",
"u. c #628505",
"i. c #688506",
"p. c #658A06",
"a. c #698D04",
"s. c #618509",
"d. c #648A0A",
"f. c #698E09",
"g. c #6D9204",
"h. c #67900E",
"j. c #6B920A",
"k. c #719603",
"l. c #719807",
"z. c #618913",
"x. c #6A9211",
"c. c #578A48",
"v. c #57944A",
"b. c #5A9D4B",
"n. c #689949",
"m. c #5BA24B",
"M. c #5EA94A",
"N. c #64A946",
"B. c #68B745",
"V. c #62B248",
"C. c #66BB48",
"Z. c #70B153",
"A. c #77B76B",
"S. c #6BC446",
"D. c #6ECB45",
"F. c #73C748",
"G. c #72D443",
"H. c #7AD44C",
"J. c #7ACE54",
"K. c #7FD559",
"L. c #8D914F",
"P. c #978F50",
"I. c #B3865B",
"U. c #8AA548",
"Y. c #89B447",
"T. c #92B04E",
"R. c #A4B45A",
"E. c #AA836B",
"W. c #B7846C",
"Q. c #AE8970",
"!. c #B38A71",
"~. c #BD9377",
"^. c #84BD7B",
"/. c #A5AB6A",
"(. c #B8A475",
"). c #D08C5D",
"_. c #E18059",
"`. c #C5886B",
"'. c #CC9C78",
"]. c #D59671",
"[. c #E38B66",
"{. c #C9A27E",
"}. c #C6A87B",
"|. c #D8A67D",
" X c #CCB87E",
".X c #E6AB7E",
"XX c #8CCA56",
"oX c #94CE59",
"OX c #9BCB5E",
"+X c #89D254",
"@X c #8DD258",
"#X c #91D259",
"$X c #9DC866",
"%X c #9DD060",
"&X c #A5CD6B",
"*X c #B2CC77",
"=X c #CDC57E",
"-X c #B09E9E",
";X c #96A68B",
":X c #BAAFAF",
">X c #D9AB82",
",X c #DBB886",
"<X c #E1AD82",
"1X c #E4B485",
"2X c #E8B283",
"3X c #E5B788",
"4X c #E6BB8C",
"5X c #E9BF8F",
"6X c #E9BF90",
"7X c #8CC382",
"8X c #ABCA9F",
"9X c #B1CEA4",
"0X c #B6D6AD",
"qX c #B6D9AC",
"wX c #CCC98A",
"eX c #DAC286",
"rX c #D8C488",
"tX c #E3C18C",
"yX c #E9C08F",
"uX c #E9C090",
"iX c #CDD9C5",
"pX c #E2DCD7",
"aX c #E3DED9",
"sX c #E7E0DC",
/* pixels */
"v t.e.e.w.a.j.d.r.w.w.7 y 9 7 9 9 e.w 5 y 7 5 9 9 t.x.x.d.e s.e n i.a.u.e 0 r 0 i.r.w e.r.w 9 9 9 5 > , 9 w.w.r.x.y.z z z ",
"u e.t.e.w s.s.e.u w.w.w e.u r e.r w r w.w.5 7 9 v t.r.d.a.s.u.u.e u.p.a.a.0 6 0 w x.d.d.a.9 5 7 5 9 , > 5 6 9 e.z.y.z z t.",
"e.r l r 0 w.p.w.w w.g.u.e.w e.u.w.9 r w.w.0 9 9 l 5 9 w.i.w.e e e u.w.w.u.e 7 9 v d.d.a.e.u r.r e.e.r w 5 5 w e.v z z l l ",
"s.w 9 7 0 w.a.p.w.w.a.a.e.w w.w.w.e.e.w.p.a.r 5 9 9 e.e.a.n q u.a.u.e p.e 0 7 9 r v e.u.u e.g.g.g.u.e.e.w w w w.e.b t.r v ",
"w e 0 7 r r i.a.p.u.p.u.d.w w s.p.w.d.s.u.w 9 i a a z x q t t t y x i m c p p r y r y w r.r.g.a.p.w.u.e e w.e e r.y.x.y.l ",
"9 w w 0 r e a.i.a.p.w.w y 5 9 w w.a.e.j h F M B V V V D N Z Z C N V B N V B N S j j i l 9 a.j.e.e e e e 0 e w.w.u z.f.u 9 ",
"w e e e e u.u.u.s.s.9 5 9 u t.l 9 j N # % % * L L * L X * * * * * * * R L X X * @ H M S i l d.e.w w.p.w.8 0 w.s.v d.h.d.9 ",
"u.e r e u.w e p.g.u 0 u r e.d.9 : B % L ^ ] ] { { { { { { { { [ { { { { { | ] / ~ R * % # N f u u.u e e 6 w r.u.s.e.u y 9 ",
"e w.e w.i.w w w.a.w 9 w u w e.t B X R { v.b.m.m.b.m.b.m.b.m.b.m.b.b.m.b.m.b.m.b.v.| { / R % H S b w r u 0 i.a.p.a.t.r v w ",
"e e w.w.n i.p.w w y 9 u p.u.e.j R R | b.m.m.m.m.m.m.m.m.m.m.m.m.m.m.m.m.m.m.m.m.b.m.m.v.| ] R X V k s.g.g.i.u.u.s.e.r u u ",
"e q w.n n n a.r 7 9 w u.s.w.e.S X ~ c.b.m.m.m.m.m.m.m.m.m.m.m.m.m.m.m.m.m.m.m.m.m.m.m.m.m.v.| J % H g a.k.i.u.s.w w u e.p.",
"w.w.0 w n u.u.w 9 5 r w.q u.s.A J X.A.M.m.m.m.m.m.m.m.m.m.m.m.m.m.m.m.m.m.m.m.m.m.m.m.m.m.m.b.c./ % $ f g.k.g.w.r y w.w.w ",
"p.w.r i.i.n w u w r 0 w.w.w.q M R ;X:X8X^.Z.m.m.m.m.m.m.m.m.m.m.m.m.m.m.m.m.m.m.m.m.m.m.m.m.m.m.c./ X N m k.a.q w e.w.p.w.",
"j.u r u.u.u 0 0 0 6 5 6 5 5 5 B ! -XpXpXiX9XA.m.m.m.m.m.m.m.m.m.m.m.m.m.m.m.m.m.m.m.m.m.m.m.m.m.b.c.E % g u.p.a.g.w.w.w.w.",
"b x l d.a.w u e 0 4 : > > 9 5 o I :XpXaXsXaX0XA.m.m.m.m.m.m.m.m.m.m.m.m.m.m.m.m.m.m.m.m.m.m.m.m.b.b.] L C x u s.a.p.w 9 e ",
"e.r 9 f.f.f.a.i.0 6 7 8 9 e a B ! :XsXsXsXsXpX9XZ.m.m.m.m.m.m.m.m.m.m.m.m.m.m.m.m.m.m.m.m.m.m.m.m.m.| R # j e.u.p.e.w e.w.",
"u r 7 b u f.j.s.i.8 r f A Z H % ! :XaXaXpXaXaXiX7Xm.m.m.m.m.m.m.m.m.m.m.m.m.m.m.m.m.m.m.m.m.m.m.m.m.v.^ % 2 f.k.d.w p.s.e.",
"i.s.r 5 7 r.d.d.i.g C $ = J W J ( 8XqX0XqXqXqXqX7XM.M.m.m.M.M.m.m.m.m.m.m.m.m.m.m.m.m.m.m.m.m.m.m.m.m./ % 3 s.f.w w p.s.w ",
"w r r x b t.t.b G $ * ^  .N.B.B.C.J.K.K.K.K.K.K.J.G.D.D.S.S.S.S.B.B.V.N.M.M.m.m.m.m.m.m.m.m.m.m.m.m.b.] % A x r u s.a.d.e.",
"u u r t.y.t.u g $ W c.B.S.G.G.G.G.G.G.D.G.G.G.G.G.G.G.G.G.G.G.D.G.D.D.G.D.D.S.C.V.M.M.M.m.M.m.m.m.m.b.] % S l b y r.y.j.r.",
"r t.w t.t.v 9 S %  .F.G.G.G.G.G.G.G.G.G.G.G.G.G.G.G.G.G.G.G.G.G.G.G.G.G.G.G.G.G.D.D.D.C.B.V.M.M.M.m.b./ % 1 5 7 a b e.e.r ",
"r r 8 r v r y S % } N.B.S.D.D.D.G.G.G.G.G.G.G.G.G.G.G.G.G.G.G.G.G.G.G.G.G.G.G.G.G.G.G.G.D.G.D.S.C.V.v.^ * s 9 9 v y w u v ",
"v 9 7 9 u i.s.d C * J ]  .c.c.c.b.B.XX#X+X@X@X+XK.H.J.H.H.G.G.G.G.G.G.G.G.G.G.G.G.G.G.G.G.G.G.G.G.D.M.^ H j x 9 t.z.t.v 9 ",
"9 9 a 9 u.p.i.f.c C H J * J = = * ! }.,XrXwXwXwX*X&X&X&X%X%X%X%XoXoXoXoXZ.N.N.N.V.B.V.B.S.S.S.D.S.S.c.J V j r v r y.t.t.t.",
"r.r r w a.g.a.a.g.u 2 1 S F A N @ Q {.uX4X6X6X4XuXtX,XtXtXrX4XrX4XtXtX,X,.^ R R ~ ~ / /  ...c..... .W % D l r y r t.9 e.r.",
"a.w.u w u.a.u.u.f.w.r r y i.u x V Q {.5X6X6X6X6XuXuX3X'.!.>X4X6X6X5XyX4XW.) + % L X L + L % % % & % + % 2 9 y e.e.u u e.w.",
"d.e.9 9 0 w.w.e.y 9 9 e u e.u.n $ Q -X2X6X6X6X6XuXuX'.#.P &.>X4X5X5X5X5X|.*.` &.&.&.` P + + + + + + + % 1 9 u r.u w.d.w.e.",
"r.d.w 9 w r.e.9 9 9 9 q e w u.u B Q >X6X6X6X6X6XuXuXQ.I + Y !.4X5X5X5X6X4X|.|.3X4X,X'.#.P + + + + + + % 1 7 u u.w.g.k.w.r ",
"w.w.e.5 l y e.r w y s.u.a.q 6 A @ Q {.5X6X6X6X6X6X6X<.L + L ,.4X6X5X5X5X6X6X4X6X6X6X4X'.` % + + + + + % S l u e.a.p.w.w.w ",
"w.r 9 w r l l e.u.u.a.a.i.8 V & _ *.>X5X6X6X6X6X6X6X!.P + U !.6X5X5X5X5X6X6X6X6X6X6X6X3XE.& + + + + + % 1 9 5 9 9 y w.g.u ",
"e.e.w.p.y 9 9 e.p.p.s.a.p.3 = #.`..X4X4X6X4X6X6X6X6X>X' P &.>X6X6X5X4X6X6X6X6X6X6X4X6X4XQ.& + + + + + % 1 5 5 a 5 7 w e.e.",
"e.w w.r.t.t.r y r.e.e u.i.F & <.1X5X>XW.,.1.1.1.>X<X>X>X1.>X4X6X6X6X6X6X6X6X6X6X6X6X6X3X<.& + + % + % # < , 5 5 5 , 5 l z ",
"d.w.r.j.d.e.w.u.e.e.w.w.w.A & :.].>X>.) P U Y ) ` ,.|.4X5X5X5X5X5X5X5X5X5X5XyX5X5XyX4X'.` L + + + + + $ d 9 p 4 p l z a t.",
"t.d.l.j.t.e.w.e.e.9 9 e.p.s @ ) ` ' U % + + + + + P *.<X5X6X5X5XuX5X5X5X5X5X5X5X5X5X4X|.:._ P & L L + $ m j.v z l z z z p ",
"t.t.d.r.e.9 e.e.9 9 w.w.d.t 3 V + + + + + + + + + + Y Q.4X5X5X5X5X5XyX5XyX5XyXuX5X5X6X5X>X>XW.:.*.+.L D i.f.z.t.z v z a 9 ",
"l t.t.e.9 , e.w., 9 7 e.u.u q 3 $ + + + + + + X + & U ,.5X5X5X5X5X6X5X5X5XyXyXuXyX5X5X5X4X6X4X1X>X:.U G f.d.a.d.t.r.9 7 5 ",
"e.t.e.p.e.e.e., > 9 u e.u w.w h $ % % I ! Q Q ) ) *.1.|.5X5X6X6XuXuXyXyXuXuXuXuXuXuX6X6X6X6X6X6X|.&.H m g.u.d.d.a.d.e.y 9 ",
"e.t.w.r.p.e.t.e.5 5 9 w.u.u.w.b A @ R n./.(.(.(.}.}. XeXeX4X3X3X1X2X1XeXeXeXeXrXrXrX,X3X2X2X2X<X<.I C m e.r.u u r.f.e.p.g.",
"e.w.r.r.e.t.9 , 5 5 9 u u a.p.y S * } F.+X+X#X#X@X#X#X#X@XR._.0.q.q.).R.#X#X#X#X#X@XR.0.q.q.q.9.+.% K z r e.e.r.u.w.r.p.w.",
"w w.w.r.t.r.e.9 9 9 u e.e.w r x V J N.G.G.G.G.G.G.G.G.F.Z.;.8.5.5.7.T.G.G.G.G.G.G.G.Y.-.5.5.5.5.@.& S l r e.s.r.r.y w.p.w.",
"w.w.p.r.r w.e.u u r p.d.e.e.e.b H J B.G.G.G.G.G.G.G.F.P.-.3.5.5.7.-.Y.+X@X#XoX#X+XH.B.P.4.5.5.5.$.; D b v u e.u 7 9 r 9 e.",
"w w.r.e.e.r.u.e.e.u w w.e.d.h.j H / F.G.G.G.F.B.Y.U.;.4.5.5.5.5.4.=.T.*XrXtXeXtX=XOXJ.L.4.5.5.5.3.; V b r.r r 7 r 9 7 w r.",
"r t.w 9 e.d.w.w.w e w.w.e r u K H ( U.T.Y.T.L.;.6.6.3.5.5.5.5.5.7.I. XrX5X5X6X4XyXwX$XP.4.5.5.5.3.T # f d.y 8 7 z u e.w.w.",
"v z 7 9 e.d.r.e.7 9 w.w.r.r.t.K $ O.3.7.7.7.7.4.5.5.5.5.5.5.5.5.5.).1X5X5X5X5X5XyXyX>XI.4.5.5.5.3.O.# j 9 9 9 9 r w.w.w e.",
"e.v 5 9 v t.y 7 5 9 9 y w e.v h $ o.5.5.5.5.5.5.5.5.5.5.5.5.5.5.5.q.2XuX5X5X5X6X5X5X.Xq.5.5.5.5.3.o.# k e.r y w e.w.r.e w.",
"9 9 v u 9 9 r e.9 e 0 9 y e.z.K $ @.3.5.5.5.5.5.5.5.5.5.5.5.5.5.5.q.2XuX6X6X5X5X5X5X2Xq.5.5.5.5.3.o.# g e.q u s.d.d.e s.a.",
"6 6 9 y 9 e.e.u.p.g.e 7 9 u e.g $ O.3.5.5.5.5.5.5.5.5.5.5.5.5.%.@.@.1.3X6X6XuX5X5X6X2Xq.5.5.5.5.2.T V f w e p.a.i.e.e s.j.",
"9 r 9 r w g.e.w w.a.0 r u u r d o ; 2.5.5.5.5.5.5.5.5.5.5.3.$.- X X U ,.,X5X5X5X5X5X.X0.5.5.5.5.%.Y C b e.q i.a.u x s.r e.",
"u u e e w e w 0 0 w.a.w.r w r 9 V - $.4.4.5.5.5.5.5.5.5.3.@.O         L >.~.,X4X4X2X[.8.5.5.5.4.@.- N c r q q d.p.e.9 7 6 ",
"r.w.g.p.e 0 e w w.w.w.w d.d.r.t.A @ T %.4.4.4.4.5.5.4.4.$.-             . ! ' >.).0.8.4.4.5.3.%.; @ 2 7 y u i.n 9 0 > 7 0 ",
"a.a.p.g.w.p.g.i.w.g.w.w.p.p.d.e.s H & ; O.O.o.O.O.O.O.O.-                     X ; O.O.O.o.O.o.; @ A d r e.r w.w 7 > > , 0 ",
"g.p.u.p.y w w.a.w w.w.w.e.w.e.9 p 1 B @ % % % % % % % + X                       X + % % + % @ $ A 8 r r 9 9 0 0 0 > , w.w.",
"w.w.g.k.a.e.r 9 7 5 y 9 e.0 e., p p i s c k h 2 2 f 3 $ X                     . X $ 3 h h h s d n q 6 9 r 7 0 r 9 > > , w.",
"e w.g.g.a.r 9 5 5 5 r e.w.0 w.7 7 p p r u p.w.r 0 u.i.G % X .               . X % A b r.w.w u.a.a.q 6 9 e q u w e., 0 e.9 ",
"e w.a.g.r.e.v p l l 9 e.0 e.w.e.p , 5 5 9 a.a.u w.p.s.c Z # % X X X X X X X X # N d d.t.u w w.g.a.u.e.e.i.s.r.e.y 7 e.e.r ",
"p.w.w.0 5 , 7 l 9 5 9 e.w.w.e.e.y 9 5 5 5 u p.k.a.g.u.q n h Z C # # @ # B X M j b d.g.u 9 r w.g.k.k.u y w.e s.s.d.t.9 9 w ",
"w.w w 5 > > > > 5 5 l t.r.w.w.e.v 9 l l l 9 w.l.j.d.t.w 9 6 u m < i s s < : 6 0 u s.u.9 l t.d.k.a.f.s.u w w.p.w.r.d.w l t.",
"9 9 7 5 4 r 0 5 > p v w.w.w.w.e.9 9 9 y.t.9 e.e.h.h.9 > 4 5 7 y 5 7 r b 7 7 e e y r.s.9 l 9 r.p.w e.a.e.w g.a.u e.w 5 , z ",
"l v r 7 9 w u r l 5 7 9 9 e.e.w.7 5 l e.e., l 5 r t.5 5 l b l l 9 l v b 7 r w.u.w.a.a.e.w.u h.w.e.e.j.u.w w.g.s.a.r.p p , ",
"v 9 r 0 9 w l z r.t.l 5 , t.9 5 > : > 9 9 5 > > , l l t.t.e.t.u u v e.w w w w.n u.u.w.r.j.e.e.w.r.j.r.9 7 e p.p.g.t.p z t.",
"r 8 r 7 7 y t.d.j.r.t.9 , 5 , > > 7 > 5 5 > > > 7 v y.z.y.u.j.e.u.u a.u.w w r s.d.e.y e.d.f.w.t.e.d.l > 9 u.e.e.r.e.l 5 t."
};
