/* XPM */
static char *player_right_2[] = {
/* columns rows colors chars-per-pixel */
"61 61 217 2 ",
"   c #2C2631",
".  c #312732",
"X  c #332935",
"o  c #392A36",
"O  c #3C2C39",
"+  c #452D37",
"@  c #432F3C",
"#  c #453B34",
"$  c #483D34",
"%  c #44333B",
"&  c #4A343D",
"*  c #473839",
"=  c #443C3D",
"-  c #59343B",
";  c #70393C",
":  c #3B5E0A",
">  c #3E630D",
",  c #3F6610",
"<  c #46571B",
"1  c #4B5B1C",
"2  c #545E1E",
"3  c #4D6B07",
"4  c #42660D",
"5  c #456A0D",
"6  c #4A6D0C",
"7  c #546C0B",
"8  c #546F0C",
"9  c #4D720D",
"0  c #547507",
"q  c #5B7605",
"w  c #567907",
"e  c #5B7D06",
"r  c #52750B",
"t  c #5B760C",
"y  c #557A0C",
"u  c #597D0A",
"i  c #486414",
"p  c #446C11",
"a  c #4C6C11",
"s  c #4B611B",
"d  c #526C14",
"f  c #596A17",
"g  c #54631C",
"h  c #556919",
"j  c #4C7312",
"k  c #4A7616",
"l  c #4E7915",
"z  c #527611",
"x  c #5A7312",
"c  c #537B11",
"v  c #587914",
"b  c #617E0A",
"n  c #464C27",
"m  c #4C4E27",
"M  c #46442B",
"N  c #49442D",
"B  c #4B4C2A",
"V  c #475422",
"C  c #4C5423",
"Z  c #4E5921",
"A  c #515625",
"S  c #525725",
"D  c #4A4331",
"F  c #47413A",
"G  c #546322",
"H  c #4E3840",
"J  c #523944",
"K  c #533C44",
"L  c #5A3C44",
"P  c #6F3C43",
"I  c #454441",
"U  c #474842",
"Y  c #484C42",
"T  c #554749",
"R  c #495443",
"E  c #4B5C44",
"W  c #56574A",
"Q  c #664447",
"!  c #794F4D",
"~  c #78514D",
"^  c #4C6446",
"/  c #4D6A46",
"(  c #4C6D48",
")  c #506E48",
"_  c #537847",
"`  c #7E6158",
"'  c #803F3C",
"]  c #85413D",
"[  c #813F41",
"{  c #8C4342",
"}  c #904642",
"|  c #9A4743",
" . c #89534D",
".. c #865B54",
"X. c #AA4B45",
"o. c #B95146",
"O. c #976959",
"+. c #9A7F53",
"@. c #AF7155",
"#. c #977464",
"$. c #A67864",
"%. c #C85548",
"&. c #D05748",
"*. c #D35B49",
"=. c #D95B48",
"-. c #CA6749",
";. c #D36249",
":. c #DC634B",
">. c #DE6D4E",
",. c #DB6F52",
"<. c #E17B59",
"1. c #5E8106",
"2. c #5C820B",
"3. c #5F880D",
"4. c #5A8312",
"5. c #5B8716",
"6. c #628505",
"7. c #688504",
"8. c #658A06",
"9. c #698D04",
"0. c #618509",
"q. c #648A0A",
"w. c #698E0A",
"e. c #6D9204",
"r. c #67900E",
"t. c #6B920A",
"y. c #719603",
"u. c #719807",
"i. c #628A11",
"p. c #628815",
"a. c #6A9311",
"s. c #689416",
"d. c #588348",
"f. c #578948",
"g. c #58934A",
"h. c #5A9E4B",
"j. c #649847",
"k. c #5BA24B",
"l. c #5EA94A",
"z. c #5FA550",
"x. c #64AB45",
"c. c #67B344",
"v. c #69B945",
"b. c #62B249",
"n. c #65BA48",
"m. c #77BA4B",
"M. c #63A953",
"N. c #78B86C",
"B. c #6BC546",
"V. c #6ECB45",
"C. c #75C947",
"Z. c #72D443",
"A. c #78D44A",
"S. c #7CD053",
"D. c #96904D",
"F. c #A78D55",
"G. c #92A747",
"H. c #88B746",
"J. c #8BB14E",
"K. c #A6BC5D",
"L. c #918A72",
"P. c #AC826B",
"I. c #B3846C",
"U. c #B48E73",
"Y. c #B59974",
"T. c #ABA96C",
"R. c #D6865C",
"E. c #CB9372",
"W. c #CC9A77",
"Q. c #C49E7C",
"!. c #E38D67",
"~. c #E5996F",
"^. c #CCA67A",
"/. c #D4A37D",
"(. c #DAA37A",
"). c #D6B87F",
"_. c #E6A376",
"`. c #E3A87C",
"'. c #87CD52",
"]. c #93CE5A",
"[. c #83D251",
"{. c #8BD256",
"}. c #80D55B",
"|. c #96D15C",
" X c #99D05E",
".X c #9DCE65",
"XX c #A4CD6C",
"oX c #B5CC79",
"OX c #C6C67C",
"+X c #A4A797",
"@X c #B8ACAD",
"#X c #DBAC81",
"$X c #DBB985",
"%X c #E1AE82",
"&X c #E4B284",
"*X c #E8B585",
"=X c #E4B688",
"-X c #E8B688",
";X c #E5BB8B",
":X c #E9BF8F",
">X c #EABF90",
",X c #90C586",
"<X c #A9CA9D",
"1X c #B4D3AA",
"2X c #B9DAB0",
"3X c #CAC989",
"4X c #D4C386",
"5X c #DDC289",
"6X c #E2C18C",
"7X c #E9C08F",
"8X c #E7C090",
"9X c #EAC090",
"0X c #CED9C6",
"qX c #E2DCD6",
"wX c #E4DED9",
"eX c #E9DFDD",
"rX c #E5E0DB",
/* pixels */
"c 4.4.2.1.9.t.q.q.3.e p y 9 6 9 9 2.y 5 y p p 9 r y r.a.q.e 6.w 1.7.7.7.1.0 3 e 6.3.w 2.2.1.6 9 9 , > , 9 1.1.q.s.5., k l ",
"u 2.2.4.w 6.6.2.w 1.1.e 1.u r u r y 0 1.1.5 9 9 y 4.3.q.w.6.7.b w 6.9.9.8.0 5 0 u r.q.q.8.9 5 9 9 9 > > 5 3 9 4.5.5.5.k 4.",
"2.r 9 r 0 1.8.1.e 1.9.8.u e u 8.1.9 0 1.e 0 9 j 9 5 r 1.6.1.e e e 7.1.6.1.w 6 9 y i.q.e.2.y 2.y 1.2.r r 3 5 w 2.v 4.l j j ",
"0.w 9 6 0 1.9.8.1.e 9.8.2.e 1.1.1.2.2.1.8.9.0 6 9 l 4.1.9.b e 6.9.7.w 6.1.r 3 r r y u q.2.2.e.y.e.1.2.1.w w y 1.2.z 4.z c ",
"u e 0 3 r 0 6.9.8.8.8.8.q.y u 1.1.1.0.6.6.6.6 i s j d l q t b t c z i b l p k k z r 0 2.3.3.w.9.9.6.1.e 1.1.w 1.3.4.a.4.9 ",
"9 w w 0 r e 9.7.7.q.2.w y 5 9 w 1.9.u x f Z n M M N B C m m m N B M M B B M M V g s k 9 9 8.w.2.e w 1.w 0 w 1.1.u i.r.2.9 ",
"w e e e e 6.6.6.6.6.0 5 9 u 5.j i g C # * % = = H = H O = H * = = = = = H = O O * O C s 9 r 3.2.e 2.9.1.3 0 1.2.2.4.r.q.9 ",
"6.e r e 6.w u 8.t.u 0 w y z h m O F = I R E ^ ( ( ( ( ( ( ( ( ( ( ( ( ( ( ( ( ^ E H = M s j 9.8.8.y e e 3 e 1.3.0.2.y y 9 ",
"e e e 1.7.w 0 1.9.w 3 y d n = O I E ( _ f.h.h.h.k.k.k.h.k.h.h.h.h.k.h.h.h.k.h.h.g.( I = B j u y 8.2.9 w 0 7.7.9.q.4.y l u ",
"e e 1.1.b 7.8.e y y a 1 F O I ^ ( h.h.h.k.k.k.k.k.k.k.k.k.k.k.k.k.k.k.k.k.k.k.k.k.g.( H # < 6 z 2.9.9.e.e.7.8.6.q.u y e u ",
"b w 1.b b b w.0 6 i C $ = R _ g.k.k.k.k.k.k.k.k.k.k.k.k.k.k.k.k.k.k.k.k.k.k.k.k.k.k.f.U # Z r r q.e.8.e.y.7.6.6.e y u 1.8.",
"1.e w w b 6.6.w 6 < # = E f.k.k.k.k.k.k.k.h.k.k.k.k.k.k.k.k.k.k.k.k.k.k.k.k.k.k.k.M.M.) = A u u 9.e.e 6.e.y.e.1.9 y e 1.0 ",
"8.1.r 6.7.6.0 u d N O ^ g.k.k.k.k.k.k.k.k.k.k.k.k.k.k.k.k.k.k.k.k.k.k.k.z.z.z.M..X<X<XL.H C r y 8.9.1.6.9.e.9.w y 1.1.8.1.",
"t.u r 6.0.t 0 t < % Y f.k.k.k.k.k.k.k.k.k.k.k.k.k.k.k.h.k.k.k.k.k.k.k.k.h.z.N.@X0XwXwX+XT m 9 0 1.9.q.0.7.6.8.9.9.1.1.1.1.",
"u z a q.9.e w 7 N H ( h.k.k.k.k.k.k.k.k.h.k.k.k.k.k.k.k.k.k.k.k.k.k.k.z.z.N.1XwXeXeXwX@XK D w 1.e.e w u w y 2.6.9.8.w r e ",
"2.z 9 w.w.w.w.f * F _ k.k.k.k.k.k.k.k.k.k.k.k.k.k.k.k.k.k.k.k.k.k.k.k.z.M.1XqXeXeXeXwX@XK B x 0 1.0 w u 2.3.2.6.9.2.2.y 1.",
"u z 6 z u w.t.g = E g.k.k.k.k.k.k.k.k.k.k.k.k.k.k.k.k.k.k.k.k.k.k.k.k.z.,X0XrXrXrXrXrX@XT % D M C 1 x r 9 y w.u.q.y 8.1.2.",
"7.6.r 6 j 6.p.S % / k.k.k.k.k.k.k.k.k.k.k.k.k.k.k.k.k.l.k.l.l.k.k.l.l.M.,X1X2X2X2X2X2X<XW Y I = = # n < i r 6.q.w w 9.0.2.",
"w r r z c u v A % / k.k.k.k.k.k.k.k.k.h.k.k.k.l.l.l.b.b.n.n.n.B.V.V.B.V.S.S.}.S.S.S.S.S.v.c.c.j.) F = $ n i r u u 0.9.q.2.",
"u u z u p.5.c A H / h.k.k.k.k.k.k.k.l.l.b.n.B.B.B.V.V.V.Z.V.Z.Z.Z.Z.Z.Z.Z.Z.A.Z.A.Z.Z.Z.Z.Z.Z.Z.B.v.d.Y $ s z r y 3.5.t.2.",
"c 2.t 2.4.c z C O ^ h.k.z.l.l.b.n.B.B.V.V.Z.V.Z.Z.Z.Z.Z.Z.Z.Z.Z.Z.Z.Z.Z.Z.Z.Z.Z.Z.Z.Z.Z.Z.Z.Z.Z.Z.Z.V.) % C 6 6 a c 2.6.r ",
"r r 9 r y r r Z % E h.b.n.B.V.Z.V.Z.Z.Z.Z.Z.Z.Z.Z.Z.Z.Z.Z.Z.Z.Z.Z.Z.Z.Z.Z.Z.Z.Z.Z.Z.Z.Z.Z.C.V.C.V.v.M.S = Z a 9 c y u u r ",
"y 9 5 9 2.0.6.g $ E x.V.Z.Z.Z.Z.Z.Z.Z.Z.Z.Z.Z.Z.Z.Z.Z.Z.Z.Z.Z.Z.Z.A.A.A.S.[.{.{.}.].'.c.x.f.f.f._ / E H B v z r 4.4.4.c c ",
"j 9 a 9 6.9.6.x N R g.B.V.B.B.B.B.n.n.n.b.c.c.c.m.'.].{.|.|.|.|..XXXXXXXoX3X3X3X3X5XY.W = * F F = F D m h y j z c 5.5.u y ",
"3.0 9 e 9.e.9.6.A & R _ d.d.d.d._ ^ E R R U U W F.$X5X$X6X5X6X6X8X6X6X6X6X8X8X8X>X9XQ.L * C m C Z g f u 0 j y r r l r 4.3.",
"9.2.u e 6.9.6.0.g % % H % = O H H @ O H @ @ @ Q E.;X>X;X9X9X$X#XU.W.;X>X>X>X9X;X>X>XQ.K N x e 6 8 0.t 0 y 9 u 2.2.2.e 2.1.",
"q.2.9 9 0 e 6.u C % @ @ @ @ @ @ @ J ~ ` ` ` ~ ..#X>X>X>X>X>X#X..J ..#X>X>X>X>X>X>X8XQ.T D u 0 5 6 r 9 9 9 9 u 3.e 1.8.1.2.",
"3.q.w 6 y 3.2.9 C % @ @ @ @ @ @ H O.W.;X$X=X(./.;X;X>X>X9X>X$.J H J U.>X>X>X>X>X>X9XQ.L D x 5 4 p 5 9 9 6 5 u 6.1.e.e.3.y ",
"1.1.w 5 r y 2.y Z % @ @ @ @ @ @ ~ W.>X>X>X>X;X>X>X>X>X>X>X>X#.H O H P.>X>X;X>X>X>X9XQ.T # m < 5 6 9 5 r 9 p 2.2.q.8.1.1.y ",
"2.y 0 y z j 9 u 2 % @ @ @ @ @ J U.;X>X>X>X>X>X>X>X>X;X>X>X>X$.J H K U.>X>X>X>X>X>X9X#XO.~ - n i 9 l j 9 j 9 5 9 r 0 1.e.e ",
"2.2.1.8.y 9 j 4.g % @ @ @ @ @ J Y.9X>X>X>X>X>X>X>X;X>X>X>X>X#X..J ..#X>X>X;X>X>X>X;X=X(.E...* V l j p p p 5 5 j 5 6 0 2.2.",
"2.w 2.3.2.2.r y g # @ @ @ @ @ J I.=X>X;X>X>X>X>X>X>X>X;X>X>X$X#X$.Q.%X%X(.E.U.P.$.E.#X8X;XI.& B l p 9 y 9 > 5 5 5 5 p j l ",
"3.2.3.e.q.2.2.6.j M @ @ @ @ @ &  .^.;X:X:X:X:X:X:X:X:X:X9X>X>X9X8X:X(.$.! ! P L J Q $.#X#X$.H M k 2.2.9.u j p , p j k k 4.",
"2.q.u.t.4.2.2.1.a M @ @ & & J ! $./.:X:X:X:X7X:X:X7X:X7X9X9X;X9X>X#XO.K @ @ @ @ @ H L ` ..Q = V 9 2.1.6.t.t.c k j l k j p ",
"c 4.q.3.2.9 2.2.a N J  .O.O.I.W.`.:X:X7X:X:X:X:X7X:X:X:X>X;X9X;X:X$.Q % @ @ O H @ @ @ @ % D C x 8.1.2.2.w.w.q.4.l c r j 9 ",
"l 4.4.2.r , 2.1.a n L $.`.&X;X>X7X:X7X7X7X:X7X:X:X:X:X7X9X9X9X8X;X#.J % @ @ @ O @ @ @ @ * C a u e 1.8.8.e.3.9.q.4.3.9 6 5 ",
"2.4.2.q.1.y 2., > V H O.&X9X9X>X7X7X7X7X7X7X7X7X:X7X7X7X7X7X8X>X:XW.$. .Q L L K J J @ % # s 0 6 9 1.8.y.e.8.q.q.q.q.2.y 9 ",
"2.2.3.q.e.2.2.4.5 < D Q $.*X-X-X;X$X5X5X5X5X5X6X5X*X-X-X-X-X=X4X6X$X).^.Y.Y.Y.T.T.j.F % n x 9 p , c 5.q.4.1.4.u q.q.2.q.e.",
"2.2.1.1.2.4.9 , 5 p n %  .,.<.!.T.].|.|.|.|.|.|.K.R.<.<.<.<.R.T.|.|.|.|.|.|. X|.'.v.^ # C 4.c k p l 5.y 9 1.2.3.q.3.1.8.1.",
"w 1.3.3.4.2.2.9 9 a C - | =.=.-.H.[.[.[.[.A.Z.Z.C.D.;.=.:.=.,.F.m.C.Z.Z.Z.Z.Z.A.A.V.h.I B v c j p k 4.9 r 2.0.3.1.u 1.8.1.",
"e 1.8.2.y u 2.u u a m P o.=.*.F.K.oX4X4XOXXX[.Z.Z.G.;.=.=.=.*.*.@.G.C.V.Z.Z.Z.Z.Z.Z.c.F D l p.5.j 9 2.3.c u 0.y 9 6 0 9 2.",
"w 2.q.2.u 3.8.1.u h D P %.=.:.^.5X7X>X>X;X5XoXS.Z.G.;.=.=.=.=.=.=.&.D.H.H.C.V.Z.Z.Z.v.^ F d s.s.s.u q.q.3.y r 6 r 9 6 y q.",
"y 4.u 9 2.9.2.1.u s $ { &.=.!.&X7X:X:X:X7X7X5X.XC.D.*.=.=.=.=.=.=.=.;.-.@.+.D.m.H.'.G.W F G 5.5.i.3.1.6.6.w 8 6 9 4.2.1.1.",
"c 9 6 6 4.q.q.u 6 < $ { &.>._.>X:X7X:X7X7X:X7XOXJ.@.=.=.=.=.=.=.=.=.=.=.=.=.;.;.-.-.o.] = S p.s.0.w u 2.9 6 9 j r 2.1.w 2.",
"2.y a 9 u 4.c 9 i n & } &.<._.:X9X:X:X:X>X>X9XOXF.:.=.=.=.=.=.=.=.=.=.=.=.=.=.=.=.=.&.{ & $ G a.q.y c 4.u r y t 2.1.1.2.1.",
"9 j y y j j r d n + @ [ &.,._.:X9X9X:X:X>X>X9X`.<.:.=.=.=.=.=.=.=.=.=.=.=.=.=.=.=.=.%.P O @ % Z q.6.6.2.u w e 6.3.8.u 6.8.",
"3 5 9 r 0 u c S + X . - o.>.~.-X9X9X9X9X9X>X`.!.:.=.=.=.=.=.=.=.=.=.=.=.=.=.=.=.=.=.o.- . X O $ f 6.9.6.u e 9.9.0.6.e 0.t.",
"0 r 9 y w e.x M O . . + | =.>.!._._._._._.~.!.>.=.=.=.=.=.=.=.=.=.=.=.=.=.=.=.=.=.=.o.+     X % A e b 6.u e 6.9.2.z 2.r 2.",
"c w e e y 1.d # O     . ] =.=.:.:.>.>.>.>.:.:.=.=.=.=.=.=.=.=.=.=.=.=.=.=.=.=.=.=.&.| o     . @ A w 0 u r t w 9.8.1.5 6 3 ",
"2.6.e.8.w 0 7 M O X     - o.*.=.=.=.=.=.:.=.=.=.=.=.=.=.=.=.=.=.=.=.=.=.=.=.*.=.&.X.-       o * A r 9 9 v e 6.b 9 0 > 6 w ",
"e.9.9.e.6.6.9.2 * X .   . - ' ] ] ] ] ] { } ] | } } } } } } } } ] } } { ] ] ] ] ; - .     . O N i 0 8 z 2.0 e e 6 > 5 > 0 ",
"9.7.8.8.y u b b B O X .               . @ % & % % + % & @ % @ & & + % o .               . O * 2 q q r 9 9 9 0 0 0 > , 0 1.",
"6.6.e.y.9.u y 9 1 # O o X             X + B Z C 1 g f 2 1 < < 1 g 2 # O               X O # 1 0 b q 5 r r 3 r 0 9 , > 9 1.",
"e 1.e.e.8.y j 5 i < n * O X . .     . O # g u 9 0 6.y.9.b 3 3 e w 3 M O . .       X O @ $ 1 b 9.9.q 7 r e w y w 9 9 1.9 0 ",
"w 1.9.e.2.u z j 6 j d C N % O O X O o O D b 9.2.1.8.6.8.b e 0 e 6.3 < # O o o o O = * B g 0 8.9.7.7.u 2.6.6.3.2.r 9 2.2.9 ",
"6.1.6.9 5 5 5 j j j 9 y x g B # % % % M 1 y 8.e.9.9.6.e 7.6.6.6.7.e i V D % + # D S f d j 0 1.9.y.e.u u u u 8.0.q.2.p 9 2.",
"1.e w 5 > > > > 5 p 9 3.8.1.r j s s s i j p 8.y.t.3.2.w r 3 6.6.3 0 j a < < < i a x 8.r j 4.w.y.e.q.8.u 0 2.8.2.2.1.2.9 2.",
"9 9 6 5 4 9 6 6 > p r 3.1.2.1.y 9 r l 4.4.9 2.4.r.r.6 > 4 5 6 y 5 6 z v 5 6 1.1.0 0.6.9 j 9 3.8.u 2.q.2.y e.9.1.2.2., , p ",
"j c 9 6 6 e u z k 5 p r r 2.2.1.9 5 p 2.2.5 5 5 y 4.9 5 j c a j 9 j c z 6 0 1.7.1.9.q.2.1.y w.q.e 2.e.q.0 3.e.8.e.2.5 k k ",
"r 9 y 0 0 w j c 3.4.9 5 , r l 5 > : > 9 9 , , > 5 9 p 4.4.0.4.2.u z 2.u 0 u 1.u 8.1.3.q.w.2.2.2.3.u.2.9 3 w 8.6.t.2.5 k l ",
"r r r 6 6 r u i.t.3.y 9 p 5 , > > 3 > 5 5 > > 5 p l p.p.4.q.q.2.6.2.9.6.0 w w 6.3.u w 2.q.w.1.2.4.q.9 , 3 1.3.3.3.1.j p 4."
};
