/* XPM */
static char *portal[] = {
/* columns rows colors chars-per-pixel */
"61 61 240 2 ",
"   c #5A2700",
".  c #5D2A00",
"X  c #612B00",
"o  c #693306",
"O  c #713407",
"+  c #3B5F0C",
"@  c #3D620D",
"#  c #7A4815",
"$  c #42660C",
"%  c #456B0D",
"&  c #4B6808",
"*  c #4A6E0C",
"=  c #536E0F",
"-  c #4E7306",
";  c #4D720D",
":  c #547506",
">  c #5B7605",
",  c #567906",
"<  c #5B7D06",
"1  c #52750B",
"2  c #557A0B",
"3  c #597D0A",
"4  c #446B11",
"5  c #486F10",
"6  c #4C7412",
"7  c #4D7716",
"8  c #527612",
"9  c #547C11",
"0  c #597B19",
"q  c #6E7616",
"w  c #4F7722",
"e  c #597926",
"r  c #547B37",
"t  c #766823",
"y  c #62752F",
"u  c #4B3E51",
"i  c #48495C",
"p  c #534B5D",
"a  c #5B705F",
"s  c #787951",
"d  c #484E61",
"f  c #555263",
"g  c #655A68",
"h  c #786C76",
"j  c #7A6F7A",
"k  c #C42F31",
"l  c #8D511C",
"z  c #817F12",
"x  c #925725",
"c  c #A4482C",
"v  c #BB4835",
"b  c #A95834",
"n  c #8D6F2C",
"m  c #97682A",
"M  c #AB652B",
"N  c #B16D35",
"B  c #F06519",
"V  c #F26F1E",
"C  c #DC463E",
"Z  c #D2523C",
"A  c #E1453F",
"S  c #F27728",
"D  c #EE7832",
"F  c #986C54",
"G  c #887D58",
"H  c #AC6450",
"J  c #88757D",
"K  c #9B7C74",
"L  c #A17578",
"P  c #A37B7D",
"I  c #5E8106",
"U  c #5C820B",
"Y  c #5F880D",
"T  c #5A8312",
"R  c #5C8616",
"E  c #628505",
"W  c #688504",
"Q  c #658A06",
"!  c #698D04",
"~  c #618509",
"^  c #648A0A",
"/  c #698E0A",
"(  c #6D9204",
")  c #67900A",
"_  c #6B920A",
"`  c #709504",
"'  c #719806",
"]  c #628316",
"[  c #628A12",
"{  c #65871B",
"}  c #6B9216",
"|  c #769315",
" . c #5B8224",
".. c #5D873C",
"X. c #688626",
"o. c #6E8A2F",
"O. c #779424",
"+. c #758A3A",
"@. c #7B9539",
"#. c #698F4C",
"$. c #798848",
"%. c #619068",
"&. c #839932",
"*. c #BD803D",
"=. c #88A231",
"-. c #CC8D3B",
";. c #F5872D",
":. c #E88B39",
">. c #F68E32",
",. c #F28738",
"<. c #F69334",
"1. c #F69B39",
"2. c #FBAC34",
"3. c #F9A438",
"4. c #FCB23A",
"5. c #868C48",
"6. c #86984C",
"7. c #8A8655",
"8. c #889B59",
"9. c #97985C",
"0. c #AE8745",
"q. c #99A854",
"w. c #948466",
"e. c #959A65",
"r. c #9D8C75",
"t. c #A28579",
"y. c #9AA668",
"u. c #9FA475",
"i. c #A4A969",
"p. c #A9B26A",
"a. c #A6A775",
"s. c #ABB278",
"d. c #B1B379",
"f. c #D28F4D",
"g. c #ED8445",
"h. c #EB9A47",
"j. c #F19245",
"k. c #E59855",
"l. c #D9A959",
"z. c #F8A949",
"x. c #FCB744",
"c. c #FDBB4C",
"v. c #E8AB5D",
"b. c #FBB955",
"n. c #F9B95F",
"m. c #CF8E6C",
"M. c #E69A6F",
"N. c #DCA27D",
"B. c #EDB06A",
"V. c #FDC158",
"C. c #F8C468",
"Z. c #FECB6C",
"A. c #FDCE71",
"S. c #FFD074",
"D. c #FFD87D",
"F. c #8C7B82",
"G. c #927D83",
"H. c #A67D81",
"J. c #A87F83",
"K. c #99858A",
"L. c #9F8E92",
"P. c #AA8285",
"I. c #AB8586",
"U. c #AE898B",
"Y. c #B28C8D",
"T. c #BB8C8B",
"R. c #AA9681",
"E. c #B8928E",
"W. c #B38F91",
"Q. c #A89496",
"!. c #B59393",
"~. c #BA9695",
"^. c #B79999",
"/. c #BD9C9B",
"(. c #96AE82",
"). c #ADA686",
"_. c #B0AA8D",
"`. c #B7B986",
"'. c #B9A39A",
"]. c #BAB697",
"[. c #BBA5A2",
"{. c #C59995",
"}. c #C49B97",
"|. c #D9A284",
" X c #C2A29E",
".X c #CCA39B",
"XX c #C2AA9D",
"oX c #D9AB98",
"OX c #C2B799",
"+X c #D5B598",
"@X c #E4A685",
"#X c #E7B590",
"$X c #C4A5A3",
"%X c #C9A6A3",
"&X c #C9AAA5",
"*X c #C5AAA8",
"=X c #CAADAB",
"-X c #D2ADA4",
";X c #C8B9A7",
":X c #CDB2AD",
">X c #D3B3AD",
",X c #D5B8A9",
"<X c #CDB4B1",
"1X c #CFB9B1",
"2X c #D2B6B1",
"3X c #D4BBB4",
"4X c #D9BDB4",
"5X c #D6BEB9",
"6X c #D8BFB9",
"7X c #E4BCA5",
"8X c #BEC18D",
"9X c #C1C295",
"0X c #FFDE83",
"qX c #FFE58B",
"wX c #C8C5A6",
"eX c #D2C9AD",
"rX c #CFC2B1",
"tX c #D5C6B6",
"yX c #DBC3BC",
"uX c #DDCABD",
"iX c #DCD2B9",
"pX c #E7C3AB",
"aX c #E5C9B9",
"sX c #EDD1BE",
"dX c #DDC6C0",
"fX c #DEC8C1",
"gX c #DDDBC3",
"hX c #E2CCC3",
"jX c #E4CFC8",
"kX c #E5D2C5",
"lX c #E6DAC7",
"zX c #E6D2CA",
"xX c #E9D5CC",
"cX c #EAD9CD",
"vX c #F1D6C2",
"bX c #EAD7D0",
"nX c #EDDBD3",
"mX c #F0DFD7",
"MX c #F1E0D7",
"NX c #F2E2DA",
/* pixels */
"9 T U U I ! _ ^ ^ Y I 5 2 - ; 6 ; U , 5 2 5 % ; ; 9 } } ~  .%.U < E ! W I : * > W ~ 2 U I U * ; - 5 @ @ - I I Y [ R 7 @ R ",
"3 U Y 9 , ~ ~ I , < I , U 2 - < ; , 2 I I % ; ; 2 T ~ Q ! X.%.n m &.! W z q = = 3 [ Q ^ ) ; @ ; % 6 @ @ * * - T R R 7 T T ",
"U 1 6 2 : U Q I < I ! Q , , U ~ I 1 - I I : ; ; ; 5 - U ~ { G C C M ! m Z m 0 6 2 ^ ^ ( U 2 I 2 I I 2 , * % 2 U 9 0 7 6 6 ",
"~ , ; & : E ! Q I I ! Q U < I Q Q U , I Q Q - ; 6 1 T U ! ] F C C k c k A M q * 8 9 3 ^ U U ( ( ( Y 2 I : 2 < I U 9 T 8 9 ",
", < : * = : ~ ! W Q Q Q ^ , , I Q I Y E Q I - 4 ; 1 2 2 I ] G m b k k k v n e 1 2 1 2 I Y I ( ! W I E < < I < < Y R _ R 6 ",
"- , , : : < ! W ! ^ U , 2 % ; 2 I Q Q Y Q I 2 4 % ; U I ! } #.I q x c c t 1 ; , ^ 2 6 6 1 Q ) U I < < < : < I I 3 [ ) 3 ; ",
", 3 I < < I E Q W U : % ; 3 T ; ; U 2 1 1 1 9 5 $ % 1 I ) } #.1 , 2 2 2 1 3 I < Q U U ; 5 9 I Y < I ! < : : I I 3 T ) ^ ; ",
"~ < - I I < < W _ , : 2 2 U ^ 1 @ ; 2 ; % @ 4 4 & $ % ; I { #.1 1 2 2 6 6 2 Q Q I Q ( 1 5 9 Q Q Q 2 3 < & > U ^ ^ U 8 2 1 ",
"I < < I W , , E Q , * 2 3 2 < U 8 2 Y : % + + 6 1 * % 2 I  .#.T ^ ) U 9 @ 6 Q W I ! ' U 2 - U 2 Q U ; < , W ! Q / U 9 8 3 ",
"< < I I W ! Q 3 2 2 1 < Q Q I Y T Y , U - $ @ 4 : * % ; * R %.U ^ I * @ @ 1 ! ` ( ' ) U 2 * ; 8 U ! ! ! ( W E E ~ 3 2 , , ",
"< < I < > W W : * ; 2 W I I U U T U , < &.8. ...$.e e $.X.@.u.o.O.5.e w e e } &.O.Q < 2 ; U 2 ; Q ( ! ( ` W E I < 2 U U Q ",
"< < , > > < ~ 3 ; % : < I I ~ , U I I ~ 8XMX(.`.zXy.a.fXp.s.fXq.y.5X8.$.t.5.5.~.p.U , ~ Q ~ U 3 Q ( I I ( ` ( I - 2 < I , ",
"/ ~ 1 W W < 2 < , ; : 3 I I , ; - U I Q `.NXwXeXlX_._.kXd.9XhXs.d.6Xu.w.H.7.7. Xp.~ U ^ Q I , , Q ! U E ! ! ( , , U I I I ",
"/ 3 2 < W 3 2 , : & % * * % % ; 1 T Y Y p.MXNXMXlXuXaXhXaXiXyXyXyX5X<X/.P P H.$Xq.I 8 U Q < ; : Q Q Q ^ ! W W ! ! ~ Q I E ",
"3 8 8 / / < 3 < : + $ + $ ; % % 5 6 U T 8XMXMXnXxXkXkXkXkXjXhXhXdXyXyX=XU.I.I.&Xd.~ ; : , : < < ! I , , 3 , 3 ~ ! Q 2 - < ",
"3 8 * / / / W W > & & : - U 2 ; @ 5 2 R `.fXaXyX3X4X3X4X3X3X2X<X<X=X=X[.P.P P '.p.8 $ % $ , I 2 I , 2 , 3 Y U ~ ! < I 2 I ",
"3 1 * 8 3 / ( ~ Q , I Q I I U U 5 % ; T } a.=X*X$X/.}././.^.~.!.!.W.U.J.H.H.I.9.] ; ; % $ : 2 : > ; 2 2 ; 1 / ' ^ 2 W E I ",
"W ~ 2 * ; ~ [ [ ! ! I Q U I ! I * 5 @ T T y.iXdXyX3X3X3X3X3X1X:X:X*X$XI.P P R.6.U 8 ; 4 * ; - 3 2 : 1 * % 2 ~ Q 3 , Q ~ , ",
"3 1 1 ; 9 0 U Q ( ! ! ( I 1 Q Q 6 @ @ 9 ; 7 8.W.U.I.I.I.I.P.P.P.J.P.H.P H.H.s 9 2 2 % % : 2 4 : : , 2 ; * ; 2 > 3 ~ ( ^ T ",
"3 3 : T [ T 9 ~ ` I U ! Q 2 I ^ T 6 @ @ @ % y.fXyX>X:X=X%X X/.!.!.U.I.P L J.+.; T R 6 8 9 1 6 $ : 3 8 3 9 9 8 8 2 U R _ Y ",
"8 U 2 3 U 8 6 9 _ Y 2 Q , , U ^ ) U @ @ @ Y `.zXzXhXhXhXhXkXhXyX5X<X$XP.H.^.e.9 R [ T U 9 3 U : , 2 U W 9 ; * * 6 8 U ~ 1 ",
"= : ; 8 2 2 , 9 _ ' ( Y 2 < I ^ ) ) 9 @ % Y `.bXbXkXhXhXuX3X3X3X5X5X5X!.H. Xi.Y T Y Q ( ^ 2 < 3 1 : Q 3 1 9 * 6 9 2 3 3 1 ",
"2 ; * ; U ~ I U Y ! ^ 3 2 U Q U Y ) T 5 % 9 9XxXuX3XtXdX[.g g K.1XyX5X<X/./.u.8 , ~ / ( Q U U : 2 2 ~ U T T 1 6 T R 3 9 9 ",
"1 6 * ; ~ Q W Q Y U 8 8 ; , Q ~ Y U 9 5 ; R wXzXQ.g F.1X'.d d J 5X^.g J /./.).6 ; ~ ~ 3 3 ~ U 3 2 2 W ! U 3 8 8 2 R T T 9 ",
"U 2 : , ! ( Q Q ( I ; ; 2 ^ 0 , I Y 2 4 - { eXcXK.d j 3X'.p i J 2XQ.d h W.!.).7 1 3 Y 8 8 , R T 2 E ~ < 3 ; 8 2 1 2 6 U Y ",
"/ < 3 3 W ! Q Q / U 2 : U X.#.2 U U U 2 9  .iXMXK.i J 3X[.p i J 3XQ.i h ~.!.].0 6 3 Q ^ 9 U #.w 1 E > 2 2 8 2 3 U U 3 I I ",
"^ U : ; 2 I I U 2 ; ; < 2  .7.N n U 8 8 9 X.iXcXL.d J 2X*Xf d K.>X^.i j !.!.OXe 7 U _ _ ^ U a H b q 6 * ; ; 3 ~ < U Q I U ",
"Y ^ 2 % , U U ; ; ; - < I 9 H A v x x e 5 +.sXMXL.d F.2X*Xp i G.2X'.d j !.W.;XO.^ Y ^ [ ^ U r Z C c n 7 % % I ~ I ( ( I 2 ",
"I I 2 5 ; 2 U 2 , 3 U E ! 0 s m k v t 9 ; #.lXMXQ.i G.>X*Xf i K.>X^.i j E.Y.wX@.Q Y T R [ 3 r n b k b 0 ; ; 3 U ! Q Y I 2 ",
"I 2 1 2 8 ; 6 3 I Q Q ! ! R .., t t 7 7 U $.cXMXQ.d G.>X;Xf d K.:X[.d j E.Y.1X@.^ ^ T ^ ^ 3 r 7 = t t 8 ; 6 % 6 6 - I ( I ",
"U U I Q 2 6 ; U Q Q ~ ! ! ] ..U < 9 ; 6 * 8.zXzX[.j U.>X>XJ j ^.>X*Xj K.Y.U.1X+.Q _ R Y U 3 r w 7 7 5 $ % 4 % * * - 1 I I ",
"U , I I U T 1 2 I I < E Q } o.E I 2 - 2 U u.mXjX3X>X-X|.B.v.v.k.k.N..XY.L U.tX$.U T 2 : % % .. .7 4 5 2 ; $ % % % @ * 6 7 ",
"Y I Y ) ) U I Q } @.O.O.O.@.#.X.X.{ | O.W p.mXkXhX7XB.z.z.<.<.>.>.>.j.m.L U.3X8.9 +.+.o.o. .#.#.w X.] O.] 6 @ @ 5 6 7 5 9 ",
"U ) ' ) Y U U - y.lXgXgXeXeXrX9XI.5.a.d.^ s.cXxX#Xb.z.<.>.>.>.>.>.>.>.:.m.Y.5Xe.e ].lXlXiXeX;X].'.r.5.OXq._ T 7 7 7 7 6 6 ",
"T T ) Y T 5 U U y.MXNXcXzXzXfXdXU.t.XX,Xd.*XzXpXb.1.>.>.;.,.j.,.;.;.>.<.,.@XhX;X).uXNXNXzXxX6XdX<XH.t.+X=.Q ^ R 7 T 8 ; 5 ",
"6 9 T U - @ U I y.MXNXcXkXhXdX5X!.P.=X3X>X>X,XB.1.>.;.,.@X7X-X4X@Xg.S ;.S D -X5X4XjXMXmXzXjX5X5X:XI.U.eX=.Q Q ^ T U 1 5 % ",
"U T T Q I 2 U * $.rXdX5X3X1X:X=XW.H.$X3X2X3X#Xz.>.;.D oXhXdX2XdXdX-XD S V V M.hX3X6XhXyX3X3X*X&X$XI.U.OX&.Q ^ ^ Y Y U 2 - ",
"I T I Y ! Y T - @ e ).=X[. X^.W.H.Y.{.}.2X2Xv.<.<.S @X5X5X5XdX6XyXyXoXD V V D 6X3X{.$X>X*X$X~.!.U.t.e.{ U U U 3 Y ! I ! ) ",
"I I Q Y U T 6 5 5 % e.:X$X/.~.Y.J.{.{.}.yX>Xj.<.;.g.4XdXdXyXyX6XyXyXyXk.V V S oX6X{.{.=X$X^.~.!.I.I.+.T 1 U U Y Q I U Q I ",
"U 2 I Y T U U ; ; ; s.bXhXuXyX%XJ. X{.-XhX7X<.;.S N.3XaXyX6XyXaXhXhXhX#XS V V @XhX}.{.zXhXyX2X2X!.E.#.- 1 U ~ Y I U I Y Y ",
"I I ^ T 2 U U , 2 2 d.bXhXfXfX*XP.$X{.%XhX#X,.;.D 7X5X2XyXyXtX3X6XyXfXpXD V V @XdX}.{.hXhXyXyXyXW.W.6.~ 9 9 ~ 2 ; * 1 1 2 ",
", U Q U , Y ^ I 2 U `.MXhXL.Q.'.P.%XT..XfXoXS S D pXkXuXyXjXhXkXhXfXdXyXg.V V @XdX{.{.xXbX<XK.^.W.U.q./ Y 3 1 * 2 * 5 , ^ ",
"2 9 , : U ^ I I < Y 9XNXyXg g !.P %XT..XpX|.V B D pXvXsXsXsXvXsXsXsXaXoXD V B M.7X{..XcXcXQ.u F.Y.Y.y.W ~ , = * 8 9 3 I I ",
"T 8 % ; U ) Y I * 8 OXzXyXg g ^.P. X{.m.z.n.z.z.z.n.n.n.n.n.n.n.n.n.n.n.z.z.z.c.z.m..XjXyX^.i G.T.Y.y.< : 4 ; ; 1 ~ ~ < 3 ",
"3 2 4 ; 2 T 2 % % 0 wXzXyXK.I.^.H.%X{.k.c.qXqXqXD.S.S.S.S.S.S.S.A.A.S.S.S.S.S.A.c.h..XjX6X:XJ ^.Y.U.u.~ 3 1 2 2 < ~ ~ 3 Q ",
"; 6 3 2 6 6 8 U - { eXzXaX>X=X/.H.%X{.k.c.qXqXqXD.S.S.S.S.S.Z.S.A.S.S.S.S.S.S.S.V.h..XxX3XyX>X&XT.I.u.< 3 3 < W Q ^ > ~ Q ",
"* & ; 1 - 3 U Y I | eXfXdXdXyX*XP. X}.k.V.D.D.A.S.S.A.S.C.*.x m l.S.S.S.S.S.S.S.V.1..XzX6XyXyX3X~.I.a.~ 3 > W ! / < < ~ _ ",
"1 ; - 2 < ( I U ^ | tXxXaXyX6X=XP. X}.k.c.qXqXS.S.S.S.A.N o . . l B.S.S.A.S.S.A.V.h.-XxXhX6XyXyX~.U.a./ < 3 W / < 9 < 8 3 ",
"9 3 < 3 , < , : : | iXbXhXuX6X=XJ. X}.k.b.qX0XA.S.S.S.C.x . X X o l.S.S.S.S.S.S.b.h.-XMXzXyXyXyX^.J.).] > 1 > Q Q : - * & ",
"I ~ ( Q < : < < , O.iXcXhXyX3X=XJ./.}.f.c.S.A.A.S.S.S.Z.M X . . # l.S.S.S.S.S.S.x.h.-XnXkXyX5X5X/.I.R.0 3 3 E E - * % % : ",
"! ! W ( I I ! W I =.gXbXhXyX5X=XJ./.}.k.x.A.S.S.S.S.S.S.v.l X O 0.A.S.S.S.S.S.A.x.k.>XbXzXaXyX5X~.J.R.e U 1 < > - % % * : ",
"! ! Q Q 2 < I ! , @.cXnXhXyXyX=XJ.^.$Xm.4.Z.S.S.S.S.S.S.A.f.X x A.S.S.S.S.S.S.Z.4.k.>XNXxXhXdX3XW.H._.0 ; ; , : * @ % 1 E ",
"E I ! ` ( U 2 - * +.jXnXhXdX5X=XJ.~. Xm.3.b.S.S.S.S.S.S.C.M . # C.S.S.S.S.S.S.V.3.m.>XmXjXhX5X<X~.J._.e : * ; 2 - % @ 5 I ",
"< E ( ` Q 2 7 y s r.zXfXdXdX5X=XJ.!.$XT.h.x.Z.S.S.S.S.S.v.l . X f.S.S.S.S.S.Z.4.<.{.2XxXhXyX5X3X}.J.%X6.< > , 2 1 5 - 9 - ",
", I ! ( U 3 8 w.H.^.mXzXdXdX6X:XJ.!.%XT.N.3.c.Z.S.S.S.S.f.O .   n D.S.S.S.A.V.2.k.Y.3XjXyXyX6X5X XH.%X9.~ ^ ~ U 1 ; 2 U ; ",
"E E E - % $ w K H.}.nXzXfXdXdX:XJ.!..XU..Xz.2.c.A.S.S.C.M .     # C.S.S.A.c.2.3.|.{.hX:X3XyX3X5X/.H.%Xt.X., W ~ Q Y 6 1 2 ",
"I 2 , % @ @ r L P '.xXjXdXyXyX=XI.W.%XY.$X|.1.2.x.V.S.n.N t l l m B.S.V.4.4.3.M.&X&XhX6XyX$X2X<X/.H. XW.G ] ! W ~ Q 2 6 T ",
"; - % & % - G L L $XnXxXaXyXyX<XJ.Y.%XT.=X*XN.3.2.4.c.V.V.C.C.C.C.V.V.4.2.1.k.,X&X%X$X}.$XY.:XyX/.H. X!.P &.! < 3 3 $ 4 5 ",
"6 9 1 ; * q w.P H.2XmXcXkXhXyX3X~.$X3XY.^.=X>X#X1.3.2.2.4.4.4.4.2.2.2.2.1.v..X<X/.:X:X:X5X!. XyX=XU. X XP 5.( W ! U 4 5 7 ",
"8 1 1 - 1 7.P P !.bXmXkXkXzXdXhX5XdXhXY.P.$XhXnX+Xf.1.3.2.2.2.2.2.2.3.:.#XcX:X*X$X>XyX2XhX/.P.<X<XU.U.:XU.K +.^ _ U 5 7 9 ",
"8 = 1 * = w.P P $XcXcXiXuXrX&X1X=X%X'.P.K r.].1X).a 7.-.:.<.<.<.:.-.0.s _.eX_.e.OX3XyX>X2XY.P $X<XU.H.'.W.t.w.+.^ U 5 5 9 "
};
