/* XPM */
static char *portal_active[] = {
/* columns rows colors chars-per-pixel */
"61 61 238 2 ",
"   c #3B5F0C",
".  c #3D620D",
"X  c #42660C",
"o  c #456B0D",
"O  c #4B6808",
"+  c #4A6E0C",
"@  c #536E0A",
"#  c #4E7306",
"$  c #4D720D",
"%  c #547506",
"&  c #5B7605",
"*  c #567906",
"=  c #5B7D06",
"-  c #52750B",
";  c #557A0B",
":  c #597D0A",
">  c #446B11",
",  c #486F10",
"<  c #546D15",
"1  c #4C7412",
"2  c #4D7716",
"3  c #527612",
"4  c #547C11",
"5  c #597918",
"6  c #5B7D1A",
"7  c #6E7616",
"8  c #57423D",
"9  c #674338",
"0  c #4F7722",
"q  c #597926",
"w  c #547B37",
"e  c #766823",
"r  c #62742D",
"t  c #617733",
"y  c #4B3E51",
"u  c #30414D",
"i  c #36616F",
"p  c #3C6B77",
"a  c #4E4443",
"s  c #464A5D",
"d  c #49485C",
"f  c #534B5D",
"g  c #765C4B",
"h  c #715F52",
"j  c #586A5E",
"k  c #7A664D",
"l  c #7D794B",
"z  c #6A645B",
"x  c #766556",
"c  c #62745C",
"v  c #484E61",
"b  c #4F5063",
"n  c #575364",
"m  c #655A68",
"M  c #4C6E67",
"N  c #426972",
"B  c #6F6774",
"V  c #786C77",
"C  c #7E747A",
"Z  c #C62B31",
"A  c #C23331",
"S  c #817F12",
"D  c #94572E",
"F  c #965D3D",
"G  c #A4482C",
"H  c #BB4835",
"J  c #A65935",
"K  c #9A6D2C",
"L  c #83702F",
"P  c #957128",
"I  c #9B633C",
"U  c #AC663A",
"Y  c #AB6E39",
"T  c #B46738",
"R  c #D05B27",
"E  c #DC463E",
"W  c #CD6C2F",
"Q  c #DC6823",
"!  c #E36D25",
"~  c #E56F28",
"^  c #E97229",
"/  c #8D5F44",
"(  c #84634C",
")  c #8A6549",
"_  c #946344",
"`  c #9C6542",
"'  c #97684A",
"]  c #916D55",
"[  c #887D58",
"{  c #A56B42",
"}  c #B06E47",
"|  c #86757C",
" . c #9B7C74",
".. c #A17578",
"X. c #A37B7D",
"o. c #CE4F48",
"O. c #5E8106",
"+. c #5C820B",
"@. c #5F880D",
"#. c #5A8312",
"$. c #5C8616",
"%. c #628505",
"&. c #688504",
"*. c #658A06",
"=. c #698D04",
"-. c #618509",
";. c #648A0A",
":. c #698E0A",
">. c #6D9204",
",. c #67900A",
"<. c #6B920A",
"1. c #709504",
"2. c #719806",
"3. c #628316",
"4. c #628A12",
"5. c #65871B",
"6. c #6B9216",
"7. c #769315",
"8. c #5B8224",
"9. c #5D873C",
"0. c #688626",
"q. c #748926",
"w. c #749122",
"e. c #7C9827",
"r. c #6C8736",
"t. c #758A3A",
"y. c #689230",
"u. c #7B9539",
"i. c #628844",
"p. c #798848",
"a. c #67924A",
"s. c #6E9050",
"d. c #619068",
"f. c #819B2D",
"g. c #859736",
"h. c #88A231",
"j. c #868C48",
"k. c #86984C",
"l. c #8A8755",
"z. c #889B59",
"x. c #97985C",
"c. c #99A854",
"v. c #948466",
"b. c #959A65",
"n. c #9D8C75",
"m. c #A28579",
"M. c #9AA668",
"N. c #9FA475",
"B. c #A4A969",
"V. c #A9B26A",
"C. c #A6A775",
"Z. c #B4AC7F",
"A. c #ABB278",
"S. c #B1B577",
"D. c #8C7B82",
"F. c #927D83",
"G. c #A67D81",
"H. c #A87F83",
"J. c #8C8586",
"K. c #97868A",
"L. c #9F8E92",
"P. c #9A9694",
"I. c #999796",
"U. c #A88483",
"Y. c #AA8285",
"T. c #AD8689",
"R. c #AE898B",
"E. c #B28C8D",
"W. c #BA8D8D",
"Q. c #AA9681",
"!. c #B9918E",
"~. c #B38F91",
"^. c #A79697",
"/. c #B59393",
"(. c #BB9594",
"). c #B79999",
"_. c #BD9C9B",
"`. c #ADA686",
"'. c #B0AA8D",
"]. c #B7B986",
"[. c #B8A39B",
"{. c #BAB697",
"}. c #AAA5A3",
"|. c #B8A7A5",
" X c #BAB1AD",
".X c #C19592",
"XX c #C49996",
"oX c #C49D9A",
"OX c #C89F9B",
"+X c #C0BD8F",
"@X c #C1A29E",
"#X c #C8A49D",
"$X c #C2B799",
"%X c #C4A5A3",
"&X c #CAA6A2",
"*X c #C5AAA7",
"=X c #CAAAA5",
"-X c #CAADAB",
";X c #D0ADA7",
":X c #C8B9A7",
">X c #CDB2AD",
",X c #D3B3AD",
"<X c #D2BBAB",
"1X c #CBAFB0",
"2X c #CDB4B1",
"3X c #C7B9B2",
"4X c #D2B6B1",
"5X c #D5BBB4",
"6X c #D9BDB6",
"7X c #D6BEB9",
"8X c #D8BFB8",
"9X c #BEC18D",
"0X c #C1C295",
"qX c #C8C5A6",
"wX c #D2C3AD",
"eX c #D3CDAD",
"rX c #D6C5B7",
"tX c #DBC3BC",
"yX c #DEC9BE",
"uX c #DCD2B9",
"iX c #E1C5BC",
"pX c #E0CABF",
"aX c #DCC6C0",
"sX c #DFC9C1",
"dX c #DDDBC3",
"fX c #E2CCC3",
"gX c #E4CFC8",
"hX c #E5D1C5",
"jX c #E6D2C9",
"kX c #E9D5CC",
"lX c #E4DCCA",
"zX c #EAD9CE",
"xX c #EAD7D0",
"cX c #EDDBD2",
"vX c #F0DFD6",
"bX c #F1DFD8",
"nX c #F1E0D7",
"mX c #F2E2DA",
/* pixels */
"4 #.+.+.O.=.<.;.*.@.O., ; $ $ , $ +.* o ; + , $ $ #.6.6.-.8.d.O.&.&.=.&.O.% # & -.%.- +.O.+.+ # , o . . $ O.O.@.4.$.2 . $.",
": +.@.4 * -.-.O.* = O.* O.: * * $ : % O.O.o + $ 4 #.@.*.=.0.d.L P 7 =.=.S 7 < @ : 6.;.*.,.$ o , , # . . + + # #.4.$.#.2 #.",
"+.- 1 ; % +.*.O.= O.=.*.: : = *.O.- - O.O.# # $ , o - +.&.5.[ E E T &.P E K 5 $ ; 4.;.=.+.# +.+.O.O.- - + o * +.6 2 2 1 1 ",
"-.* $ O % %.=.*.O.O.=.-.+.* O.-.O.+.* O.*.=.- , , - +.O.=.5.] E E A G H E J 5 % 4 : : ;.+.+.>.>.>.@.O.O.* * * +.: 4 #.; 2 ",
"* = * O @ - &.=.*.*.*.*.@.: * -.*.O.O.-.*.O.- , 1 - ; - = 3.l.K J Z Z Z H K 6 ; ; $ ; O.+.@.,.,.*.%.%.= = O.= = @.#.6.#.$ ",
"$ * * - - = =.&.=.*.+.* * o $ * O.>.,.O.*.O.1 , + - : *.=.6.a.= 7 D G G e - 1 * -.: 2 $ - *.2.O.= * O.= % = O.O.+.4.<.: $ ",
"* = O.= = %.-.%.-.O.% o - : #.1 $ +.; 4 ; - 4 , X O - * *.6.a.- * ; 3 * $ ; O.* -.O.+.$ $ 4 +.O.* O.=.= % - O.-.: #.,.;.$ ",
"%.O.# = %.* = *.>.: * * 1 +.;.$ . $ - $ o . . , O X o $ %.0.a.- - ; ; 2 1 ; *.%.O.=.>.- 1 $ ,.O.-.: = = O & O.-.-.+.4 ; $ ",
"= = = %.&.* * -.*.: + ; = * +.+.$ ; O.- # . . , - @ > * O.$.s.#.;.<.+.1 o , *.&.O.,.2.+.; - O.1 *.O.# : & &.=.*.<.+.; 3 : ",
"= = O.= &.=.*.& ; * $ : *.*.O.+.$.@.+.+.# . . o + + o # o 8.d.+.;.+.$ X o $ =.1.>.2.,.+.* + $ ; +.>.*.>.=.*.&.O.+.+.1 : : ",
"= = O.= & &.*.- + $ * *.O.O.+.: #.+.* O.e.z.9.9.p.q q p.0.u.N.y.q.u.q 0 q q 6.g.e.O.O.* 1 O.; $ *.>.=.>.1.&.%.-.* : +.O.*.",
"= +.* & & = *.& + o - O.O.O.-.: +.O.O.+.9XnXN.'.jXM.C.sXB.S.sXc.B.5Xz.p.X.j.j.(.V.-.* -.*.+.+.: *.>.= O.>.1.>.O.- % O.O.% ",
"*.%.; = &.&.; : * % % : O.= % $ # O.+.*.].mXeXeXzX`.].fXS.0XpXS.].7XN.v.G.l.l.@XV.O.+.;.*.O.% * *.>.%.= =.1.=.* ; O.O.O.O.",
":.: ; = &.: & * % O + + + + o $ 1 #.*.@.V.nXnXnXkXyXyXhXpXpXiXrX6X7X2X_.X.X.G.%Xc.O.4 +.*.= - % -.*.;.-.=.&.&.=.>.O.*.O.%.",
"6 3 , ;.:.: : = %       X + o , $ $ +.#.0XmXnXzXkXhXhXhXjXfXfXfXaXtX8X-XR.Y.U.-XS.-.$ - % % = = =.O.* * - * : -.=.*.* $ = ",
"%.- - ;.:.&.;.&.& O + % - +.* $ . . #.$.S.yXfXtX5X6X5X5X5X5X4X4X2X1X-X|.H.G.X.[.V.- X o o * -.% %.% * : +.@.+.*.*.O.+.; O.",
"= 3 + 3 : =.=.;.O.* = *.O.*.O.+.$ , 2 $.6.N.>X*X|.@X@X[.oX(.(././.~.R.H.G.G.T.x.5.+ + , X - * % - % & - $ 4 :.2.;.* *.%.O.",
"&.= ; + $ -.4.;.>.>.O.*.O.* >.O., . . #.$.M.uXaX6X5X5X5X5X5X5X>X-X-X%XT...F.Q.k.= ; $ > + $ $ = - - - , o - &.&.; * *.-.: ",
": ; - - 5 4 #.;.>.>.>.>.O.# >.-.1 . . - , 2 l.~.E.R.Y.Y.Y.Y.U.H.Y.Y.G.G.G.X.t 6 4 - o + * 4 + - * & ; - + 1 ; ; : ;.:.-.+.",
": : ; 4 4.$.; ;.>.O.O.>.O.4 O.-.+.1 . . . $ M.sX8X,X>X=X%X@X_./.~.R.Y.G.G.H.j.3 4 #.1 4 4 $ $ X * : - ; 4 4 3 3 ; +.$.<.@.",
"; +.; : #.4 $ 4 <.@.: O.+.* : @.,.@.. . , +.].jXkXpXfXfXfXjXhXtX7X2X%XG.G._.b.#.$.4.#.: : : +.- * ; +.%.4 + + + , 4 : &.* ",
"< % + 3 * - ; 3 <.2.,.;.* * O.;.,.,.#.. . +.].xXzXjXfXfXyX5X4X5X7XrX7X/.G.@XB.#.+.4.;.>.;.4 : * $ * ;.: ; 4 + $ 4 ; : : 1 ",
"- $ + - +.-.O.: +.,.,.: ; +.*.-.@.@.+.. 1 #.0XlXsX5XrXiX|.m n K.4XtX3X2X_._.N.- * -.:.<.;.: : & - ; -.= #.#.$ $ +.4.6 4 4 ",
"3 3 + + -.*.*.>.-.+.3 3 $ : *.-.@.+.#., 1 $.qXgX^.m D.5X[.b v | 6X).m D._.).`.1 - -.-.: : *.%.; ; & *.=.+.; 4 3 4 $.#.#.; ",
"+.* * * *.=.=.=.>.+.$ $ * ;.6 & @.@.- $ $ 5.eXvXK.v V 5X[.f s | 4X^.v B (.(.'.2 - : -.4 - = 6 -.& ;.-.-.: $ 4 - ; ; 1 +.@.",
";.+.: * *.=.*.-.<.O.* - * y.i.5 O.+.+.1 ; 0.eXnXK.s | 5X%Xf d D.5X/.d B (.(.{.5 1 : ;.-.4 -.a.w ; -.& - * 1 ; +.+.= : +.O.",
";.+.* $ % O.-.* * $ $ * * 8.l.T P +.1 1 ; y.uXzXL.s | 4X|.n s F.4X^.v V /./.$Xq 1 +.<.<.4.+.c ' J 7 1 $ $ $ : O.* @.-.O.+.",
"@.-.* , : @.O.1 $ $ $ * O.6 { E H D D e $ r.uXvX^.v D.,X*Xf d K.4X).v V /.~.:Xw.;.@.4.;.;.%.t o.E G L < o + +.-.O.>.>.O.; ",
"+.O.* , $ : : ; * : O.%.*.5 [ K H H e $ # s.lXnX^.d | 6X-Xn s K.,X).d C /.~.wXe.;.;.#.$.4.: w e J Z J 6 $ , +.+.,.*.*.O.O.",
"O.- - ; ; , 1 +.O.*.>.=.=.5 9.: e e 1 1 4 p.cXnX^.d K.,X-Xn v K.>X[.b C ~.R.3Xu.-.,.#.@.;.: w 2 < e e 3 $ $ o 1 1 # O.>.* ",
"O.+.O.*.; $ 1 +.*.-.-.=.*.4.9.& * 3 $ + $ z.kXkX|.| ^.;X>X| C ^.=X-X| K.E.E.5Xt.;.<.4.@.+.+.9.0 3 1 , > , , o + + # * +.+.",
"+.* +.;.+.: $ ; O.O.= %.*.6.y.%.*.: $ * +.M.vXfX,X;X;X,X6X,X;X=X=X>X#XR...R.rXp.: +.: $ + o w q 2 > , * o . o o o . , 1 2 ",
"@.+.@.<.,.+.+.*.6.u.w.e.w.u.s.5.q.5.w.7.&.S.vXfXfXpXfXpXfXpXtXtX7X4X2XT.X.E.7Xz.4 r.t.y.q.0.s.9.0 0.5.f.6 - > . > 1 2 , 2 ",
"+.,.2.,.+.+.+.# M.lXdXuXuXeXwX{.m.l.C.S.4.V.kXjXfXpXfXpXsXyXtXtX7X7X2X~.m.E.7Xb.0 :XlXlXrXeX:X3X[.n.j.+Xc.<.4 2 2 3 2 , $ ",
"; #.,.@.#.1 O.+.M.mXmXcXjXjXsXaXR.m.#X<X`.$XkXkXjXhXfXjXhXhXsXgXsXtXsX-X_.5XyX:X`.yXmXmXjXxX5XtX>XX.m.<Xh.>.;.#.2 #.2 1 $ ",
"2 4 #.+.# . +.O.M.nXmXlXhXhXaX7XW.m.:X6X,X,X5XfXtXpXpX6XyXsX,XfXtX>XfX7X>XfX6X5X6XfXmXnXkXfX5XrX>XU.E.<Xh.O.*.;.@.+.1 $ o ",
"+.#.@.,.O.- +., p.qXaX7X5X5X>X*X~.H.%X5X4X4XtXsX5XtXaX4XaXtX4XaXtX6XsXtX7XaX7X7X6XtXfXtX5X5X*X-X%XY.R.+Xf.-.;.;.O.;.+.- - ",
"O.#.+.O.,.+.+.1 . r `.*X@X[._.~.U.W.(.oX4X4X7XtXtXtXtXrXtXtXtX8XrXtX8X7X8XtXtXtX5X.X%X4X%X#X)./.E.m.b.5.+.+.+.+.*.,.+.,.,.",
"O.O.@.@.+.#.# , , o b.1X%XoX).E.H.(.W.#XaX4X4X5X5X6X7XtXtXrX8X7XtXrX8XtXaXtX7XtX7XXX(.;X&X_././.U.U.t.+.; +.+.#.@.O.+.*.O.",
"+.O.O.@.#.+.#.# 3 $ A.cXsXfX8X%XY.=X.X=XgXaXtXtXtX5X,XtXtXtXtXfXgXfXfXfXfXgXtXtXiXOXXXjXsXrX,X5X/.!.s.- 1 O.-.-.O.+.O.*.O.",
"O.O.*.+.; O.#.: ; 1 S.xXgXsXaX*XY.*X.X&XpXiXtXfXiXfX6X4XtXtXrX5XrXtXiXpXpXfXyXtXtXoXXXfXfXtX8XtX/./.k.-.#.; -.; $ + - - : ",
"% +.;.+.+.O.-.O.+.+.].nXsX^.^._.G.&X(.#XtX8XyXyXyXfXfXtXtXgXfXhXfXfXtXtXtXpXpXiXtXXXXXzXxX2XK.[.E.E.c.;.@.; - + - + 1 * *.",
"; +.: $ +.*.O.O.* +.0XmXrXm m /.H.&XW.&XfXtXjXfXjXjXvXzXcXcXcXxXzXkXkX4XfXfXpXpXtXXXOXcXxX^.y D.E.R.M.*.-.* @ + 3 : : O.O.",
"4 3 + , +.,.@.O.+ 4 $XjXtXm m ).H.&X.XOXiXsXkXkXkXfXpXhXfXjXjXhXgXfXiXfXkXkXtXtXiX.XOXfXaX[.y F.W.W.b.+.$ + $ 1 - +.-.* : ",
"+.3 , $ ; #.; + o 6 wXgXtXU.K._.H.&X.XoXtXyXkXfX[.J.K.I.I.I.P.I.P.P.K.F.|.hXtXtXiX.XOXgX7X2X| ).T.T.N.#.: 3 ; & +.%.%.; -.",
"1 $ ; ; 1 $ 1 +.$ 5.eXgXiX,X;X_.X.%XXXXXtXtXkXjXC 8 9 9 9 a u 8 9 9 9 8 J.jXtX5X6X.X&XkX7X6X;X=X~.T.B.: : : = -.;.;.; %.=.",
"O o $ 1 - +.#.*.O.7.eXfXfXaXtX*XH.%XXX(.6XtXsX5XV J R R R k i _ Q R Q F | >X4X8X6X.X&XjX6XtXfX7X(.T.C.&.* = &.>.:.= : -.<.",
"; # % ; % >.O.O.O.7.eXkXtXaX8X*XH.#XXX(.4XyXsXdXn.U ! Q ! ( p ' ! Q ^ F K.fX;X8X5X.X=XxXfX8XtX7X(.Y.Z.:.= = &.:.= 3 = ; : ",
"4 * O.= % = & * % 7.uXvXfXiX7X-XG.@XoX.X2X8XsXjXJ.( Y { { z p x Y Y { g I.fX=X5X5XW.;XbXjXtXtX8X).T.`.6 & & : &.*.% # + O ",
"%.-.=.*.* * = * = w.uXzXfXtX7X-XG.@XoXXX7X7XaXxXP.g { _ ' z p x I _ I g I.gX-X>X,X.X;XbXfXtX8X7X_.H.Q.5 4 : &.= # + o + % ",
"=.=.*.>.O.-.>.%.%.f.dXkXfXtX7X-XG._.oX.X7X7XsXxXP.J ^ Q ~ ) p ` Q ! ! F ^.gX4X8X-XW.,XxXjXfXtX7X).H.Q.6 : - %.* + o o o - ",
"=.=.*.*.% : O.=.* u.lXcXfXtX8X-XG.).@X.X7X8XaXjXP.I ^ ~ ~ ' p { Q ! ^ F I.fX,XtX4XW.,XbXkXfXiX4X~.H.'.6 - $ - - + . o * %.",
"%.O.=.1.>.+.* $ o r.hXxXsXaXtX-XH.(.@XW.4X2X7XxXI.( } Y T x p ( T } } h }.gX2X7X1XW.4XbXgXfX8X1X).H.[.0.% + % % # o . , O.",
"= -.>.>.*.; 1 t [ n.gXhXtXaX7X-XH.(.%XW.-X5X8XjX^.h ) ' ' z p x ) k k z }.jX-X7X1XW.5XxXaXaX7X5X_.H.[.j.= & ; * - + # 4 # ",
"* O.=.>.+.: 6 [ G.).cXjXaXsXtX-XH.(.&XW.-X7XaXxX}.F Q Q ^ _ N ( _ _ ) g |.fX-X7X-XW.5XfXtXpX7X7X_.G.&Xx.*.-.%.+.4 + +.#.# ",
"%.%.&.- o X 0  .X.%XcXjXsXsXtX1XY.~.&XE.*X7XaXjX}.I ! ~ ^ F N ) ( z ) h  XgX-X4X-XXXfX>X5XtX7X7XoXG.=Xm.0.: ;.-.*.#.$ $ ; ",
"O.* * o . . q X.G._.xXfXyXtXtX-XT.~.&X~.%X1X7XkX}.g } { { x p z J T { z  XgX=X2X-X=XfX7XtX*X,X4X_.G.@X~.[ 3.=.%.-.;.: $ +.",
"$ $ + O o # l G...%XcXxXyXtXtX2XH.R.&XE.-X*X7XxX Xh ` ` I z N c ` W ` n  XxX=X2X*X%X%X_.%XE.>XrX@XG.@X~.X.g.=.= : : X > 1 ",
"1 4 - $ + 7 v.X.H.4XbXxXhXfXaX5X(.%X5XE._.1X7XxX X/ ! ! Q I M ) ) { ) x 3XjX&X1X_.;X1X;X4X/.%XaX-XR.@X@XX.j.>.*.,.+.> , 2 ",
"1 - - # 3 l.X.X./.xXcXgXjXjXtXsX7XiXfXE.H.|.sXcX3X/ W W W _ p ) T Q { z 3XcX4X%X%X4X7X7XgX_.Y.4X2XR.R.1XY.m.q.*.>.+., 2 2 ",
"; < % + < v. .X.*XzXlXyXyXwX-X<X-X%X@Xm. .n.{.5X^.j c c c j p j k Y l M {.wX'.b.#X6XtX>X6XE.X.[.1XR.m.|.E.m. .t.@.+.$ , 4 "
};
