/* XPM */
static char *wall_2[] = {
/* columns rows colors chars-per-pixel */
"61 61 110 2 ",
"   c #010000",
".  c #0B0504",
"X  c #070B01",
"o  c #080D00",
"O  c #170B08",
"+  c #1C0B09",
"@  c #0E1401",
"#  c #141804",
"$  c #200C0A",
"%  c #280F0D",
"&  c #24110D",
"*  c #2C120E",
"=  c #2E1511",
"-  c #341511",
";  c #391512",
":  c #331913",
">  c #3B1C16",
",  c #1C2504",
"<  c #232C04",
"1  c #431E18",
"2  c #4E1D18",
"3  c #482015",
"4  c #46221A",
"5  c #4B221B",
"6  c #55231D",
"7  c #52281F",
"8  c #65231F",
"9  c #69231F",
"0  c #562A21",
"q  c #6D2421",
"w  c #632C23",
"e  c #6D2A23",
"r  c #712522",
"t  c #742C24",
"y  c #792E26",
"u  c #7E2F28",
"i  c #6C3026",
"p  c #6E352A",
"a  c #7C3625",
"s  c #713328",
"d  c #7E3028",
"f  c #76392D",
"g  c #7D3A2E",
"h  c #2F460A",
"j  c #304508",
"k  c #3E4A10",
"l  c #434B0A",
"z  c #495108",
"x  c #545D0C",
"c  c #5D5C14",
"v  c #676B0F",
"b  c #646415",
"n  c #676811",
"m  c #6B6B14",
"M  c #737413",
"N  c #747B12",
"B  c #73751E",
"V  c #833927",
"C  c #803129",
"Z  c #8E362D",
"A  c #833A2E",
"S  c #89392A",
"D  c #90362D",
"F  c #9A332E",
"G  c #943A2E",
"H  c #893D30",
"J  c #9F3C32",
"K  c #A43E34",
"L  c #A83F35",
"P  c #817B19",
"I  c #854132",
"U  c #894234",
"Y  c #914536",
"T  c #944738",
"R  c #964939",
"E  c #9A4B3A",
"W  c #AB4136",
"Q  c #AB4835",
"!  c #B04337",
"~  c #B54439",
"^  c #BA463A",
"/  c #C1493D",
"(  c #C94C3F",
")  c #C1513B",
"_  c #B65140",
"`  c #BF5D48",
"'  c #CC4D40",
"]  c #D14F42",
"[  c #C15644",
"{  c #CE5243",
"}  c #C75846",
"|  c #CA5C47",
" . c #CC5A48",
".. c #D35143",
"X. c #D45E4B",
"o. c #CC634D",
"O. c #D4614C",
"+. c #DD624E",
"@. c #D56751",
"#. c #DB6751",
"$. c #DD6B54",
"%. c #E0634F",
"&. c #E16651",
"*. c #E26D55",
"=. c #E86F57",
"-. c #E77057",
";. c #EC7259",
":. c #F2755C",
">. c #818116",
",. c #87881E",
/* pixels */
"j X                       < b c ,                                                       < M b ,                       X h ",
"X . ; > > > > > 4 > > > + . Y S   & ; > > > > > > > > > > > > > > > > > > > > > > > > &   S G . + > > ; > > > > > > > . X ",
"  ;  .X.X.X.X.*.*.*.*.*.f   Z d   g O.X.X.X.+.*.*.*.*.*.$.*.*.*.$.-.*.*.*.*.*.-.*.*.-.I   C D   i +.X.O.X.+.*.*.$.-.$.>   ",
"  > X.+.+.+.+.=.;.;.;.:.f   D d   A %.%.+.+.&.;.;.;.;.;.;.;.;.;.;.;.;.;.;.;.;.;.;.;.;.U   C Z   s #.+.+.+.&.;.;.;.;.-.>   ",
"  > X.+.+.+.+.=.;.;.=.;.f   D u   A %.+.+.+.&.;.;.;.;.-.;.;.;.;.;.;.;.-.;.;.;.;.;.;.;.U   C Z   s %.+.+.+.&.;.;.;.;.*.>   ",
"# w +.+.+.+.+.=.;.;.;.;.f   D u   A %.+.%.X.&.;.;.;.;.;.;.;.;.;.;.;.;.;.;.;.-.;.;.;.;.U   d D   s %.+.+.+.#.=.;.;.;.$.>   ",
"m | +.+.+.+.%.=.;.;.;.;.f   D u   A #.+.%.%.&.;.;.-.;.;.;.-.;.;.;.-.;.;.;.;.;.;.;.;.;.U   d Z   s +.+.+.+.&.;.;.;.;.*.>   ",
"P +.+.+.+.+.+.=.;.;.;.:.f   D u   A %.+.%.X.&.;.;.;.;.;.;.;.;.;.;.;.;.;.-.;.;.;.;.;.;.U   C Z   s %.+.+.+.#.=.;.;.;.*.>   ",
"k Y +.+.+.+.+.=.;.;.;.;.f   D u   A %.+.+.+.&.;.;.;.;.;.;.;.;.;.;.;.;.;.;.;.;.;.;.;.;.U   C D   t %.+.+.+.%.;.;.;.;.*.>   ",
"  > X.%.+.+.+.=.;.;.;.;.f   D C   A %.+.+.+.&.;.;.;.;.;.;.;.;.;.;.;.;.;.;.;.;.;.;.;.;.U   C Z   p +.+.+.+.&.=.;.;.;.*.>   ",
"  ; X.%.+.+.%.=.;.;.;.;.f   D u   A %.+.+.+.&.;.;.;.;.;.;.;.;.;.;.;.;.;.;.;.;.;.;.;.:.U   C D   s %.+.+.%.&.;.;.;.;.*.>   ",
"  ; X.%.%.%.&.;.;.:.:.:.f   D u   A &.%.%.%.*.:.;.;.;.;.;.:.;.;.;.:.;.;.;.;.;.:.;.;.:.U   d G   s %.%.%.&.&.;.;.;.;.-.>   ",
"  & A A H H H U Y Y Y T 4   G C   7 H A H H H U Y Y T U T T U T U T T Y Y Y Y Y T Y T 0   S D   1 H H H A U Y Y T T U &   ",
"<                         = ^ W $                                                       $ W ~ %                         < ",
"m d r r r r r y y y y y C ! ] ' W d y y y y y y y y y y y y y y y y y y d y y y y y y u W ' ..! C y y y y y y y d y y V n ",
"n t 9 8 9 8 9 e e e e e e e e e e e e r e e e e e e e e Z ( { ' Z e e e e e e e e e e e e e e e e e e r e e e e e e e a v ",
",                                                       . t ' t .           .                   X           .           , ",
"  & G Y Y J Y E E E E E E E E E E E E E E E E E E E E I . > / ; . g Y G Y Y Y E E E E E E E E E E E E E E E E E E E R &   ",
"  > X.%.%.%.&.;.:.:.;.;.;.:.;.;.;.:.:.;.;.:.;.;.:.:.:.@.+ ; / ; O } %.%.%.&.=.:.:.;.:.:.;.:.;.;.;.;.;.:.:.;.;.;.:.:.-.>   ",
"  > X.%.+.+.#.=.;.;.;.;.;.;.;.;.;.;.;.;.;.;.;.;.;.;.;.o.+ ; ^ ; O { &.X.X.%.=.=.;.;.;.;.;.;.;.;.;.;.;.;.;.;.-.;.;.;.*.>   ",
"  ; X.+.+.+.+.=.;.;.;.;.;.;.-.;.;.;.;.-.;.;.;.-.;.;.;.o.O ; / ; O [ %.%.%.X.=.;.;.=.;.;.;.;.;.;.;.;.;.;.;.;.;.;.;.;.-.>   ",
"  > X.+.+.+.+.=.;.;.;.;.;.;.;.;.;.;.;.;.;.;.;.;.;.;.;.o.+ : ^ ; O [ X.%.%.%.*.;.;.;.;.;.;.;.-.;.;.;.;.;.;.;.;.;.;.;.$.>   ",
"  > X.+.+.+.&.*.-.;.;.;.;.;.;.;.;.;.;.;.;.-.;.;.;.;.;.o.+ ; / ; O ` %.%.X.%.&.;.;.;.;.=.;.;.;.;.;.-.;.;.;.;.;.;.;.;.-.>   ",
"  > O.+.+.+.+.-.;.;.;.;.;.-.;.;.;.;.;.;.;.;.;.;.;.;.;.o.+ ; ^ ; O ' %.X.%.%.=.;.;.;.;.;.;.=.;.;.;.;.;.;.;.;.;.;.;.;.$.>   ",
"  > X.%.+.+.+.=.;.;.;.;.;.;.;.;.;.;.;.;.;.;.;.;.;.;.;.o.+ : / ; O ` +.&.%.%.*.;.;.;.;.=.;.;.;.;.;.;.;.;.;.;.;.-.;.;.$.>   ",
"  ; O.+.+.+.+.=.;.;.;.;.;.;.;.-.;.;.-.;.;.;.;.;.;.;.;.o.O > ^ ; + [ #.X.%.X.=.;.-.;.;.;.;.;.;.;.;.;.-.;.;.;.;.;.;.;.-.>   ",
"  > X.+.+.+.&.=.;.;.;.;.;.;.;.;.;.;.;.;.;.;.;.;.;.;.;.o.+ ; / ; O [ #.+.%.%.=.;.;.;.;.;.;.;.;.;.;.;.;.;.;.;.;.;.;.;.-.>   ",
"  ; }  .X. .X.$.$.$.$.$.$.$.$.$.$.$.$.$.$.$.$.$.$.$.$.` O ; ^ ; O ~ X.X.X. .X.*.$.$.$.$.$.$.$.$.$.$.$.$.$.$.$.$.$.$.@.>   ",
". . * * - - = - : - : : : : : : = : : = - : : : : : : *   2 ' 2   * = - - - : : : : : = - = : : : : : : : ; : : : : = . X ",
"z % $ + + + + + $ $ + + + + + + + $ + $ $ $ + $ $ $ + $ > W ..K > $ $ $ + $ + + + $ $ + $ $ + + + + $ + + + + + $ $ $ * l ",
"M J F F F F F K K K K K W ~ ^ ^ ~ W K K K K K K K K K K ! ^ ^ ^ ! K K K ! ^ ^ ! K K K W ^ ^ ^ ^ L K K K K K W W K K W Q N ",
"z % + + + + + + $ + $ + $ e ' / 8 $ $ + $ + + $ + + $ + + + + + + $ + + t ....6 + + + $ 6 ' ' e $ + + + + + + + $ + O * k ",
"o . = - - = - : : : ; : O . W A   O ; - - = ; : : : : : : : : : : > : : U -.-.p : > : + X G J . O - = : - : ; : > : : . X ",
"  ; } X.X.X.X.$.$.$.$.-.p   D u   g X.X. .X.O.$.$.$.$.$.$.$.$.$.$.$.$.$.*.;.;.*.$.$.-.g   d Z   e X.X. . .O.$.$.$.$.@.>   ",
"  > X.+.+.+.%.=.;.;.;.;.f   D u   A &.+.#.+.&.;.;.;.;.;.;.;.;.;.;.;.;.;.;.;.;.;.;.;.;.U   d Z   s %.+.%.+.&.;.;.;.;.$.>   ",
"  > X.+.+.+.+.=.;.;.;.;.f   D u   A %.+.+.+.&.;.;.;.;.;.;.;.;.;.;.;.;.;.;.-.;.;.;.;.;.U   C Z   s %.+.%.+.&.=.;.;.:.*.>   ",
"  > X.+.+.+.+.=.;.;.;.;.f   D u   A &.+.+.+.&.;.;.;.;.;.;.;.;.;.;.;.;.;.;.;.;.;.;.;.;.U   d Z   s %.+.X.+.#.;.;.;.;.*.>   ",
"  ; X.+.+.+.+.=.;.;.;.;.f   D u   A +.+.+.+.&.;.;.;.;.-.-.;.;.;.;.;.;.;.;.;.;.;.;.;.:.U   C Z   s %.+.+.+.&.=.;.;.;.*.>   ",
"  > X.+.+.+.+.=.;.;.;.:.f   D u   A +.+.+.+.&.;.-.;.;.;.;.;.;.-.;.;.;.;.*.;.;.;.;.;.;.U   C Z   s +.+.+.+.%.=.;.;.;.$.>   ",
"  > X.+.+.+.+.=.;.;.;.;.f   D u   A &.+.+.+.&.=.;.;.;.;.;.;.;.;.;.;.;.;.;.;.;.;.;.;.;.U   C D   s %.+.+.+.&.;.;.;.;.*.>   ",
"  ; X.%.+.+.+.=.;.;.;.;.f   D C   A &.+.+.+.&.;.;.;.;.;.;.;.;.;.;.;.;.;.;.;.;.;.;.;.;.U   d Z   s %.+.+.+.&.=.;.;.;.-.>   ",
"  > X.%.+.+.%.=.;.;.;.;.f   D u   A %.+.+.+.&.;.;.;.;.;.;.;.;.;.;.;.;.;.;.;.;.;.;.;.:.U   C Z   s %.+.+.+.%.;.;.;.;.$.>   ",
"  > X.&.%.%.%.=.;.;.:.:.f   D u   A &.%.%.&.&.:.;.;.;.:.;.;.;.:.;.;.;.;.;.:.:.;.;.;.:.U   C Z   s &.%.%.%.*.;.;.;.;.-.>   ",
"  $ H Y U G Y E E E E E 5   G C   6 Y U G U Y E E E R E R E R R E E E E E E E E E E E 0   C G   4 G Y Y Y G E E E E T &   ",
",                         * ~ L +                                                       $ W ~ %                         , ",
"c t q 9 9 9 q e t r e e y ! ] ] K t r t t r e e e t e t t q e e e e e t e t t e t e t y L ] ] ! y e r e t e t e t t t a N ",
"c y r q q r q y y y y y y y y t y y y y y y y y y y y y G ( ] ' G y y t y y t y t t y t t t t t y y y y y y y y y y y V N ",
",                                                       . t ] y .                                                       < ",
"  & A H H H H Y T T Y T Y Y U Y U T U T T Y Y R R R T g . > / ; . s H H G H Y Y T Y Y T Y Y U T T U U T T Y T Y R T U +   ",
"  ; X.%.%.%.&.;.;.;.;.;.;.;.:.:.:.:.;.:.:.:.:.;.;.;.:.o.+ ; ^ - O } %.%.&.&.=.:.;.;.;.;.;.;.;.:.:.;.;.:.:.;.;.:.;.:.;.>   ",
"  > X.+.+.+.%.=.;.;.;.;.;.;.:.;.;.;.-.;.;.;.-.;.;.;.;.o.+ ; _ ; O [ &.+.%.%.*.;.;.;.;.;.;.;.;.;.:.;.;.;.;.;.;.;.;.;.*.>   ",
"  > X.+.+.+.+.=.;.;.-.;.;.;.;.;.;.;.;.;.;.;.;.;.;.;.;.o.O ; ( ; O [ #.+.+.X.=.;.;.;.;.-.;.:.;.;.;.;.;.;.;.-.;.;.;.;.*.>   ",
"  > X.+.+.%.%.=.;.;.-.;.;.;.;.;.;.;.;.;.-.;.;.;.;.;.;.o.O ; ^ ; + [ %.+.+.+.*.;.;.;.;.;.;.-.;.;.;.;.;.;.;.;.-.;.;.;.*.>   ",
"  > X.+.+.X.%.=.;.;.;.;.-.;.;.;.;.;.-.;.;.;.;.;.;.;.;.o.O ; / ; + [ +.+.+.+.=.;.-.;.;.;.;.;.;.;.-.;.;.;.;.;.;.;.;.;.$.>   ",
"  > X.+.+.+.+.=.;.;.;.;.;.;.;.-.;.;.;.;.;.;.-.;.;.;.;.o.+ ; / ; O [ +.+.%.%.&.;.;.;.;.-.;.;.;.;.;.;.;.-.;.;.;.;.;.;.*.>   ",
"  ; X.+.+.+.%.=.;.;.-.;.;.;.;.;.-.;.;.;.-.;.;.;.;.;.;.o.+ ; ^ ; + [ %.+.+.X.=.;.;.;.;.;.;.;.;.;.;.;.;.;.;.-.;.;.;.;.*.>   ",
"  > X.+.+.+.+.=.;.=.;.;.;.;.;.;.;.;.;.;.;.;.;.;.;.;.;.o.O ; ^ ; O [ X.%.+.+.*.;.;.;.;.;.;.;.;.;.;.;.;.-.;.;.;.;.;.;.*.>   ",
"  > X.+.+.+.+.=.;.;.;.;.;.;.;.;.;.;.;.;.;.;.;.;.;.;.;.o.+ ; [ ; O [ %.%.+.+.*.;.;.;.;.;.;.;.;.;.;.;.;.;.;.;.;.;.;.;.*.>   ",
"  >  .X.X.+.+.=.;.-.-.$.*.*.$.*.*.$.$.$.$.*.*.*.*.*.*.o.+ ; ^ ; O _ X.X.X.X.#.*.*.#.*.*.$.$.*.$.*.$.$.*.$.*.*.*.*.*.@.>   ",
"X . : ; : e o.$.R > > > > > > > > > > > > > > > > > > =   3 ) 3   - ; ; > > > > > > > > > > > > > > > > > > > > > > > . X ",
"j X       , B ,.l               X                       @ x >.x @                               X                     X h "
};
